<?xml version="1.0" encoding="UTF-8"?>
<svg xmlns="http://www.w3.org/2000/svg" xmlns:xlink="http://www.w3.org/1999/xlink" version="1.2" >
<font id="LisboaSansLF-Bold">
<font-face  font-family="Lisboa Sans LF" units-per-em="1000" ascent="750" descent="-250" font-style="normal" font-weight="700" font-stretch="normal" cap-height="750" x-height="500" underline-position="-123" underline-thickness="20" />
<missing-glyph  horiz-adv-x="1000" d="" />
<glyph glyph-name="NULL" horiz-adv-x="500" d="" />
<glyph glyph-name="CR" unicode="&#xd;" horiz-adv-x="500" d="" />
<glyph glyph-name="space" unicode="&#x20;" horiz-adv-x="230" d="" />
<glyph glyph-name="exclam" unicode="&#x21;" horiz-adv-x="320" d="M207 232 L226 685 L98 685 L117 222 L207 232 Z M164 -14 C205 -14 238 19 238 60 C238 100 205 134 164 134 C123 134 90 100 90 60 C90 19 123 -14 164 -14 L164 -14 Z " />
<glyph glyph-name="quotedbl" unicode="&#x22;" horiz-adv-x="457" d="M105 458 L183 458 L197 685 L90 685 L105 458 Z M275 458 L353 458 L367 685 L260 685 L275 458 Z " />
<glyph glyph-name="numbersign" unicode="&#x23;" horiz-adv-x="686" d="M488 384 L616 384 L616 451 L503 451 L544 663 L459 663 L419 451 L309 451 L350 663 L266 663 L225 451 L95 451 L95 384 L209 384 L190 283 L70 283 L70 213 L177 213 L133 0 L217 0 L262 213 L371 213 L326 0 L411 0 L456 213 L583 213 L583 283 L468 283 L488 384 Z M294 384 L402 384 L383 283 L274 283 L294 384 Z " />
<glyph glyph-name="dollar" unicode="&#x24;" horiz-adv-x="534" d="M244 563 L244 392 C207 410 171 434 171 480 C171 528 199 553 244 563 L244 563 Z M292 83 L292 256 C326 240 365 216 365 174 C365 126 336 97 292 83 L292 83 Z M225 -14 L244 -14 L244 -113 L292 -113 L292 -11 C404 1 479 56 479 176 C479 296 388 334 292 372 L292 568 L308 568 C359 568 409 559 458 544 L458 635 C404 653 348 658 292 658 L292 761 L244 761 L244 656 C138 644 55 585 55 471 C55 354 152 314 244 276 L244 75 C234 74 225 73 215 73 C162 73 109 84 59 102 L59 13 C111 -11 169 -14 225 -14 L225 -14 Z " />
<glyph glyph-name="percent" unicode="&#x25;" horiz-adv-x="848" d="M646 660 L542 660 L211 0 L314 0 L646 660 Z M340 487 C340 580 298 660 195 660 C96 660 50 577 50 487 C50 401 101 315 195 315 C298 315 340 394 340 487 L340 487 Z M237 487 C237 457 237 402 195 402 C153 402 153 457 153 487 C153 517 153 574 195 574 C236 574 237 516 237 487 L237 487 Z M798 159 C798 252 756 332 653 332 C554 332 508 249 508 159 C508 73 559 -13 653 -13 C757 -13 798 66 798 159 L798 159 Z M695 159 C695 129 696 74 653 74 C611 74 611 129 611 159 C611 189 611 246 653 246 C694 246 695 188 695 159 L695 159 Z " />
<glyph glyph-name="ampersand" unicode="&#x26;" horiz-adv-x="655" d="M285 613 C332 613 353 573 353 531 C353 483 316 447 278 423 C250 448 213 491 213 531 C213 575 238 613 285 613 L285 613 Z M232 317 L401 126 C376 94 337 72 296 72 C233 72 174 118 174 184 C174 233 189 288 232 317 L232 317 Z M687 -14 C687 -14 584 92 532 144 C570 208 590 296 590 370 L590 372 L509 372 C505 317 485 264 464 214 L329 369 C396 401 449 453 449 532 C449 628 381 699 284 699 C185 699 103 632 103 529 C103 468 136 411 179 369 C112 327 55 252 55 171 C55 50 153 -14 265 -14 C343 -14 411 4 465 63 C489 37 540 -14 540 -14 L687 -14 Z " />
<glyph glyph-name="quotesingle" unicode="&#x27;" horiz-adv-x="287" d="M105 458 L183 458 L197 685 L90 685 L105 458 Z " />
<glyph glyph-name="parenleft" unicode="&#x28;" horiz-adv-x="414" d="M338 800 C152 707 70 478 70 281 C70 82 150 -137 338 -231 L374 -177 C227 -72 191 110 191 280 C191 446 224 645 370 747 L338 800 Z " />
<glyph glyph-name="parenright" unicode="&#x29;" horiz-adv-x="414" d="M76 -231 C262 -138 344 91 344 288 C344 487 264 706 76 800 L40 746 C187 641 223 459 223 289 C223 123 190 -76 44 -178 L76 -231 Z " />
<glyph glyph-name="asterisk" unicode="&#x2a;" horiz-adv-x="483" d="M294 504 L414 550 L378 617 L275 562 L281 685 L203 685 L209 560 L106 617 L70 550 L191 501 L107 411 L164 359 L242 467 L322 359 L378 412 L294 504 Z " />
<glyph glyph-name="plus" unicode="&#x2b;" horiz-adv-x="592" d="M347 278 L522 278 L522 366 L347 366 L347 555 L246 555 L246 366 L70 366 L70 278 L246 278 L246 88 L347 88 L347 278 Z " />
<glyph glyph-name="comma" unicode="&#x2c;" horiz-adv-x="270" d="M115 -216 C175 -138 216 -41 216 59 C216 99 183 133 142 133 C101 133 68 99 68 59 C68 -5 122 7 122 -44 C122 -98 104 -154 74 -198 L115 -216 Z " />
<glyph glyph-name="hyphen" unicode="&#x2d;" horiz-adv-x="390" d="M70 287 L330 287 L330 188 L70 188 L70 287 Z " />
<glyph glyph-name="period" unicode="&#x2e;" horiz-adv-x="270" d="M68 60 C68 19 101 -14 142 -14 C183 -14 216 19 216 60 C216 101 183 134 142 134 C101 134 68 101 68 60 L68 60 Z " />
<glyph glyph-name="slash" unicode="&#x2f;" horiz-adv-x="428" d="M106 -139 L0 -139 L288 699 L398 699 L106 -139 Z " />
<glyph glyph-name="zero" unicode="0" horiz-adv-x="636" d="M60 312 C60 140 122 -14 320 -14 C519 -14 576 140 576 312 C576 468 503 660 320 660 C137 660 60 468 60 312 L60 312 Z M176 312 C176 405 193 576 320 576 C447 576 460 405 460 312 C460 220 442 67 320 67 C198 67 176 220 176 312 L176 312 Z " />
<glyph glyph-name="one" unicode="1" horiz-adv-x="395" d="M187 0 L305 0 L305 660 L282 660 C221 633 126 608 60 596 L60 523 C94 527 157 530 187 544 L187 0 Z " />
<glyph glyph-name="two" unicode="2" horiz-adv-x="540" d="M60 0 L477 0 L500 95 L227 95 C359 182 441 288 441 450 C441 578 352 660 226 660 C177 660 125 644 85 615 L73 525 C115 547 167 563 214 563 C288 563 333 518 333 445 C333 273 190 145 60 54 L60 0 Z " />
<glyph glyph-name="three" unicode="3" horiz-adv-x="521" d="M226 -14 C361 -14 461 28 461 179 C461 249 438 307 372 338 C427 370 438 416 438 476 C438 596 335 660 224 660 C180 660 126 641 90 616 L76 523 C116 547 163 563 210 563 C263 563 328 533 328 473 C328 430 309 383 259 383 L161 383 L151 286 L259 286 C313 286 353 241 353 188 C353 94 270 77 193 77 C155 77 117 88 81 100 C76 72 74 43 70 15 C116 -4 177 -14 226 -14 L226 -14 Z " />
<glyph glyph-name="four" unicode="4" horiz-adv-x="638" d="M352 511 L352 258 L163 258 L352 511 Z M457 173 L580 173 L599 258 L457 258 L457 646 L352 646 L50 233 L50 173 L352 173 L352 2 L457 2 L457 173 Z " />
<glyph glyph-name="five" unicode="5" horiz-adv-x="536" d="M201 -14 C359 -14 477 30 477 210 C477 392 331 412 183 422 L197 551 L460 551 L480 646 L109 646 L73 319 C158 319 360 331 360 205 C360 101 278 78 190 78 C149 78 109 87 70 100 L60 19 C104 -2 152 -14 201 -14 L201 -14 Z " />
<glyph glyph-name="six" unicode="6" horiz-adv-x="585" d="M297 -14 C429 -14 525 53 525 193 C525 322 450 405 319 405 C273 405 211 385 177 354 C201 485 252 570 400 570 C430 570 462 561 488 546 L479 638 C455 650 422 660 395 660 C153 660 60 459 60 245 C60 102 146 -14 297 -14 L297 -14 Z M305 314 C377 314 411 259 411 192 C411 121 369 71 296 71 C211 71 172 160 172 234 L172 262 L172 265 C203 292 263 314 305 314 L305 314 Z " />
<glyph glyph-name="seven" unicode="7" horiz-adv-x="530" d="M267 -14 L479 597 L479 646 L67 646 L44 551 L367 551 L163 24 L267 -14 Z " />
<glyph glyph-name="eight" unicode="8" horiz-adv-x="574" d="M278 -14 C392 -14 504 30 504 162 C504 246 429 298 366 339 C422 371 478 430 478 498 C478 608 374 660 276 660 C183 660 77 588 77 488 C77 409 130 367 191 329 C131 292 66 224 66 149 C66 35 179 -14 278 -14 L278 -14 Z M276 578 C330 578 375 549 375 491 C375 444 326 408 289 388 C243 412 188 433 188 494 C188 539 232 578 276 578 L276 578 Z M276 282 C321 256 397 219 397 159 C397 94 333 71 278 71 C225 71 174 98 174 157 C174 217 226 260 276 282 L276 282 Z " />
<glyph glyph-name="nine" unicode="9" horiz-adv-x="584" d="M222 -14 C487 -14 516 209 516 422 C516 574 449 660 291 660 C168 660 55 590 55 459 C55 324 150 244 281 244 C321 244 360 260 391 285 C381 160 346 78 206 78 C167 78 132 90 95 100 L85 18 C127 0 176 -14 222 -14 L222 -14 Z M291 583 C370 583 399 512 399 454 C399 424 398 394 397 364 C367 343 331 333 295 333 C223 333 177 383 177 462 C177 533 214 583 291 583 L291 583 Z " />
<glyph glyph-name="colon" unicode="&#x3a;" horiz-adv-x="270" d="M68 60 C68 19 101 -14 142 -14 C183 -14 216 19 216 60 C216 101 183 134 142 134 C101 134 68 101 68 60 L68 60 Z M68 383 C68 342 101 309 142 309 C183 309 216 342 216 383 C216 424 183 457 142 457 C101 457 68 424 68 383 L68 383 Z " />
<glyph glyph-name="semicolon" unicode="&#x3b;" horiz-adv-x="275" d="M120 -215 C180 -137 221 -40 221 60 C221 100 188 134 147 134 C106 134 73 100 73 60 C73 -4 127 8 127 -43 C127 -97 109 -153 79 -197 L120 -215 Z M68 383 C68 342 101 309 142 309 C183 309 216 342 216 383 C216 424 183 457 142 457 C101 457 68 424 68 383 L68 383 Z " />
<glyph glyph-name="less" unicode="&#x3c;" horiz-adv-x="570" d="M90 218 L495 -6 L495 99 L226 257 L495 408 L495 513 L90 296 L90 218 Z " />
<glyph glyph-name="equal" unicode="&#x3d;" horiz-adv-x="578" d="M70 192 L508 192 L508 282 L70 282 L70 192 Z M70 392 L508 392 L508 482 L70 482 L70 392 Z " />
<glyph glyph-name="greater" unicode="&#x3e;" horiz-adv-x="570" d="M90 -6 L495 218 L495 296 L90 513 L90 408 L358 257 L90 99 L90 -6 Z " />
<glyph glyph-name="question" unicode="&#x3f;" horiz-adv-x="479" d="M429 518 C429 645 322 699 209 699 C166 699 125 685 83 676 L50 568 C95 580 143 590 190 590 C236 590 299 573 299 516 C299 420 157 397 157 243 C157 238 158 232 158 227 L254 237 C254 355 429 364 429 518 L429 518 Z M209 -14 C249 -14 282 19 282 59 C282 99 249 133 209 133 C169 133 134 100 134 59 C134 18 169 -14 209 -14 L209 -14 Z " />
<glyph glyph-name="at" unicode="&#x40;" horiz-adv-x="1092" d="M589 381 C620 381 627 376 651 364 L615 166 C599 123 571 77 523 77 C471 77 449 115 449 165 C449 248 507 381 589 381 L589 381 Z M763 413 C696 445 665 465 587 465 C427 465 332 299 332 155 C332 69 382 -14 476 -14 C544 -14 580 10 605 74 L643 0 L745 0 C929 0 1032 133 1032 309 C1032 540 831 699 607 699 C317 699 60 468 60 174 C60 -65 239 -240 475 -240 C539 -240 613 -235 668 -206 L687 -120 C627 -141 559 -144 496 -144 C294 -144 176 -6 176 190 C176 426 365 606 601 606 C777 606 921 494 921 313 C921 213 881 71 758 71 L706 71 L763 413 Z " />
<glyph glyph-name="A" unicode="A" horiz-adv-x="601" d="M451 0 L571 0 L343 685 L260 685 L30 0 L143 0 L192 154 L404 154 L451 0 Z M299 528 L300 528 C300 528 302 486 304 478 L380 242 L218 242 L296 478 C299 486 299 528 299 528 L299 528 Z " />
<glyph glyph-name="B" unicode="B" horiz-adv-x="593" d="M398 345 C408 343 420 348 428 353 C480 386 505 437 505 498 C505 622 397 685 286 685 L100 685 L100 0 L310 0 C441 0 533 48 533 199 C533 273 473 339 398 345 L398 345 Z M286 594 C344 594 384 557 384 500 C384 437 361 387 289 387 L214 387 L214 594 L286 594 Z M214 298 L290 298 C359 298 407 264 407 199 C407 129 378 86 309 86 L214 86 L214 298 Z " />
<glyph glyph-name="C" unicode="C" horiz-adv-x="599" d="M396 600 C440 600 494 592 537 581 L537 681 C491 692 434 699 387 699 C184 699 60 536 60 343 C60 142 186 -14 394 -14 C440 -14 495 -7 539 6 L539 108 C499 96 447 87 405 87 C253 87 189 210 189 347 C189 477 251 600 396 600 L396 600 Z " />
<glyph glyph-name="D" unicode="D" horiz-adv-x="686" d="M334 0 C538 0 626 155 626 340 C626 518 531 685 334 685 L100 685 L100 0 L334 0 Z M296 597 C453 597 501 474 501 340 C501 204 456 88 297 88 L213 88 L213 597 L296 597 Z " />
<glyph glyph-name="E" unicode="E" horiz-adv-x="576" d="M100 0 L507 0 L507 91 L214 91 L214 294 L430 294 L430 390 L214 390 L214 589 L508 589 L508 684 L100 684 L100 0 Z " />
<glyph glyph-name="F" unicode="F" horiz-adv-x="568" d="M100 0 L214 0 L214 294 L460 294 L460 390 L214 390 L214 589 L508 589 L508 684 L100 684 L100 0 Z " />
<glyph glyph-name="G" unicode="G" horiz-adv-x="675" d="M60 341 C60 131 176 -14 394 -14 C461 -14 534 -14 600 14 L600 386 L334 386 L334 293 L486 293 L486 89 C458 82 430 81 402 81 C245 81 180 199 180 342 C180 487 234 600 395 600 C449 600 503 592 555 576 L555 677 C496 692 435 699 375 699 C172 699 60 530 60 341 L60 341 Z " />
<glyph glyph-name="H" unicode="H" horiz-adv-x="720" d="M506 0 L621 0 L621 685 L506 685 L506 389 L217 389 L217 685 L100 685 L100 0 L217 0 L217 300 L506 300 L506 0 Z " />
<glyph glyph-name="I" unicode="I" horiz-adv-x="314" d="M100 0 L214 0 L214 685 L100 685 L100 0 Z " />
<glyph glyph-name="J" unicode="J" horiz-adv-x="325" d="M82 -201 C173 -163 225 -97 225 4 L225 685 L111 685 L111 4 C111 -62 89 -92 36 -128 L82 -201 Z " />
<glyph glyph-name="K" unicode="K" horiz-adv-x="686" d="M481 0 L629 0 L335 344 L630 685 L477 685 L217 345 L481 0 Z M100 0 L217 0 L217 685 L100 685 L100 0 Z " />
<glyph glyph-name="L" unicode="L" horiz-adv-x="566" d="M100 0 L507 0 L507 90 L214 90 L214 684 L100 684 L100 0 Z " />
<glyph glyph-name="M" unicode="M" horiz-adv-x="829" d="M668 0 L779 0 L671 685 L590 685 L423 210 C418 195 417 177 417 161 L416 161 C416 177 414 195 408 210 L225 685 L137 685 L50 0 L155 0 L206 426 C208 439 208 454 208 467 L209 467 C209 456 212 436 216 426 L377 0 L453 0 L601 408 C606 421 608 435 609 449 L610 449 C610 435 612 422 614 408 L668 0 Z " />
<glyph glyph-name="N" unicode="N" horiz-adv-x="700" d="M513 0 L600 0 L600 685 L498 685 L498 231 C498 220 499 199 501 189 L500 189 C496 201 495 219 488 230 L184 685 L100 685 L100 0 L203 0 L203 449 C203 458 200 480 198 489 L199 489 C202 476 207 460 214 449 L513 0 Z " />
<glyph glyph-name="O" unicode="O" horiz-adv-x="710" d="M357 -14 C565 -14 650 147 650 335 C650 518 561 699 355 699 C153 699 60 525 60 343 C60 163 158 -14 357 -14 L357 -14 Z M345 611 C489 611 522 444 522 330 C522 225 503 75 366 75 C222 75 189 237 189 351 C189 453 212 611 345 611 L345 611 Z " />
<glyph glyph-name="P" unicode="P" horiz-adv-x="574" d="M214 273 L284 273 C434 273 515 332 515 489 C515 638 419 685 284 685 L100 685 L100 0 L214 0 L214 273 Z M284 592 C353 592 394 546 394 486 C394 412 364 362 284 362 L214 362 L214 592 L284 592 Z " />
<glyph glyph-name="Q" unicode="Q" horiz-adv-x="706" d="M357 -14 C387 -14 417 -10 446 -2 L536 -163 L639 -94 L529 37 C621 105 650 226 650 335 C650 518 561 699 355 699 C153 699 60 525 60 343 C60 164 158 -14 357 -14 L357 -14 Z M345 611 C489 611 522 443 522 330 C522 225 503 73 366 73 C223 73 189 238 189 351 C189 453 212 611 345 611 L345 611 Z " />
<glyph glyph-name="R" unicode="R" horiz-adv-x="621" d="M261 604 C336 604 380 570 380 492 C380 416 347 370 267 370 L214 370 L214 604 L261 604 Z M463 0 L601 0 L401 313 C477 352 502 409 502 492 C502 622 399 683 280 683 L100 683 L100 0 L214 0 L214 292 L289 292 L463 0 Z " />
<glyph glyph-name="S" unicode="S" horiz-adv-x="558" d="M248 -14 C380 -14 498 29 498 182 C498 407 180 376 180 515 C180 597 257 606 321 606 C374 606 426 596 476 581 L476 675 C418 694 357 699 296 699 C175 699 60 642 60 506 C60 293 380 305 380 180 C380 94 294 76 225 76 C170 76 116 87 65 106 L65 14 C123 -12 185 -14 248 -14 L248 -14 Z " />
<glyph glyph-name="T" unicode="T" horiz-adv-x="600" d="M356 598 L560 598 L560 685 L40 685 L40 598 L240 598 L240 0 L356 0 L356 598 Z " />
<glyph glyph-name="U" unicode="U" horiz-adv-x="700" d="M356 -13 C507 -13 610 70 610 223 L610 685 L499 685 L499 223 C499 137 450 78 357 78 C263 78 207 134 207 223 L207 685 L90 685 L90 223 C90 65 202 -13 356 -13 L356 -13 Z " />
<glyph glyph-name="V" unicode="V" horiz-adv-x="602" d="M462 685 L317 221 C314 213 313 165 313 165 L310 165 C310 165 309 209 305 221 L151 685 L30 685 L267 0 L346 0 L572 685 L462 685 Z " />
<glyph glyph-name="W" unicode="W" horiz-adv-x="822" d="M579 194 C579 209 578 225 574 239 L458 685 L378 685 L270 250 C266 232 264 195 264 195 L263 195 C263 195 262 232 257 250 L145 685 L30 685 L216 0 L299 0 L414 435 C418 452 419 470 419 487 L420 487 C420 470 421 452 425 435 L539 0 L621 0 L792 685 L686 685 L585 239 C582 225 581 209 580 194 L579 194 Z " />
<glyph glyph-name="X" unicode="X" horiz-adv-x="587" d="M414 0 L547 0 L347 354 L529 685 L420 685 L297 443 L177 685 L40 685 L231 347 L40 0 L149 0 L287 256 L414 0 Z " />
<glyph glyph-name="Y" unicode="Y" horiz-adv-x="604" d="M316 371 C315 384 313 408 307 419 L165 685 L40 685 L254 299 L254 0 L368 0 L368 299 L564 685 L455 685 L324 419 C318 407 317 384 317 371 L316 371 Z " />
<glyph glyph-name="Z" unicode="Z" horiz-adv-x="584" d="M51 0 L534 0 L534 76 L197 76 C187 76 173 69 164 68 L164 69 C176 72 194 80 201 91 L525 627 L525 685 L50 685 L50 609 L377 609 C390 609 401 616 413 619 L413 618 C405 616 380 605 376 598 L51 57 L51 0 Z " />
<glyph glyph-name="bracketleft" unicode="&#x5b;" horiz-adv-x="364" d="M90 -229 L314 -229 L314 -153 L197 -153 L197 705 L314 705 L314 781 L90 781 L90 -229 Z " />
<glyph glyph-name="backslash" unicode="&#x5c;" horiz-adv-x="428" d="M322 -139 L428 -139 L140 699 L30 699 L322 -139 Z " />
<glyph glyph-name="bracketright" unicode="&#x5d;" horiz-adv-x="364" d="M274 800 L50 800 L50 724 L167 724 L167 -153 L50 -153 L50 -229 L274 -229 L274 800 Z " />
<glyph glyph-name="asciicircum" unicode="&#x5e;" horiz-adv-x="651" d="M486 0 L591 0 L361 495 C362 495 282 495 282 495 L60 0 L170 0 L324 360 L486 0 Z " />
<glyph glyph-name="underscore" unicode="&#x5f;" horiz-adv-x="569" d="M60 -98 L509 -98 L509 -14 L60 -14 L60 -98 Z " />
<glyph glyph-name="grave" unicode="&#x60;" horiz-adv-x="314" d="M254 507 L152 698 L60 651 L197 478 L254 507 Z " />
<glyph glyph-name="a" unicode="a" horiz-adv-x="529" d="M474 -8 L509 46 C480 54 450 77 450 109 L450 329 C450 447 383 510 269 510 C210 510 150 504 96 478 L86 375 C130 403 187 418 239 418 C293 418 334 388 334 329 L334 298 C222 284 52 275 52 122 C52 30 128 -14 212 -14 C273 -14 315 -1 342 60 C353 15 399 -14 444 -14 C454 -14 465 -12 474 -8 L474 -8 Z M334 229 L334 129 C311 88 288 66 240 66 C198 66 167 94 167 137 C167 177 199 202 235 209 L334 229 Z " />
<glyph glyph-name="b" unicode="b" horiz-adv-x="586" d="M302 -14 C492 -14 530 115 530 278 C530 396 473 510 341 510 C280 510 226 482 195 428 L195 778 L80 721 L80 -14 L192 31 C222 -2 262 -14 302 -14 L302 -14 Z M294 410 C373 410 410 344 410 274 C410 173 395 85 271 85 C243 85 221 92 195 103 L195 356 C217 389 253 410 294 410 L294 410 Z " />
<glyph glyph-name="c" unicode="c" horiz-adv-x="500" d="M436 11 L450 112 C410 93 361 90 317 90 C220 90 183 153 183 242 C183 331 221 413 321 413 C363 413 408 407 445 385 L432 486 C388 508 338 510 290 510 C130 510 60 376 60 232 C60 61 155 -14 320 -14 C360 -14 402 -12 436 11 L436 11 Z " />
<glyph glyph-name="d" unicode="d" horiz-adv-x="586" d="M506 0 L506 778 L389 736 L389 486 C361 504 328 510 295 510 C131 510 56 370 56 222 C56 97 122 -14 258 -14 C317 -14 374 3 393 66 L415 0 L506 0 Z M389 402 L389 148 C370 114 338 90 298 90 C206 90 177 152 177 235 C177 326 217 418 322 418 C345 418 369 414 389 402 L389 402 Z " />
<glyph glyph-name="e" unicode="e" horiz-adv-x="526" d="M463 229 C471 262 474 297 474 331 C474 444 395 510 285 510 C123 510 50 361 50 218 C50 74 138 -14 282 -14 C338 -14 395 -14 447 11 L460 118 C401 96 358 87 295 87 C214 87 164 136 164 218 L164 229 L463 229 Z M177 306 C185 363 220 414 282 414 C328 414 364 386 364 338 C364 327 364 317 362 306 L177 306 Z " />
<glyph glyph-name="f" unicode="f" horiz-adv-x="422" d="M404 666 L404 768 C383 775 355 778 333 778 C213 778 139 693 139 577 L139 495 L40 477 L40 413 L139 413 L139 0 L256 0 L256 412 L354 412 L386 495 L256 495 L256 577 C256 638 285 676 346 676 C361 676 390 674 404 666 L404 666 Z " />
<glyph glyph-name="g" unicode="g" horiz-adv-x="581" d="M513 325 C513 353 508 381 497 406 L581 400 L581 493 L442 471 L442 470 C397 500 343 510 290 510 C172 510 69 447 69 319 C69 267 95 214 135 181 C99 161 59 126 59 81 C59 39 82 -6 120 -26 C79 -37 44 -72 44 -117 C44 -238 195 -261 288 -261 C394 -261 554 -235 554 -99 C554 33 398 38 301 44 C277 45 252 45 228 51 C198 58 173 74 173 108 C173 123 178 138 185 151 C218 134 256 128 293 128 C422 128 513 188 513 325 L513 325 Z M292 435 C357 435 401 384 401 321 C401 251 361 209 290 209 C225 209 184 255 184 319 C184 382 226 435 292 435 L292 435 Z M185 -48 C249 -53 313 -54 376 -62 C405 -66 441 -73 441 -110 C441 -177 339 -179 292 -179 C239 -179 152 -162 152 -94 C152 -72 168 -58 185 -48 L185 -48 Z " />
<glyph glyph-name="h" unicode="h" horiz-adv-x="573" d="M379 0 L497 0 L497 329 C497 434 444 510 334 510 C278 510 225 466 195 423 L195 779 L80 737 L80 0 L195 0 L195 345 C218 378 258 415 300 415 C353 415 379 380 379 329 L379 0 Z " />
<glyph glyph-name="i" unicode="i" horiz-adv-x="270" d="M75 0 L194 0 L194 510 L75 480 L75 0 Z M64 675 C64 636 96 604 135 604 C175 604 206 636 206 675 C206 714 175 746 135 746 C96 746 64 714 64 675 L64 675 Z " />
<glyph glyph-name="j" unicode="j" horiz-adv-x="282" d="M53 -261 C143 -216 199 -148 199 -47 L199 510 L81 479 L81 -45 C81 -110 55 -155 6 -191 L53 -261 Z M71 675 C71 636 103 604 143 604 C182 604 214 636 214 675 C214 714 182 746 143 746 C103 746 71 714 71 675 L71 675 Z " />
<glyph glyph-name="k" unicode="k" horiz-adv-x="561" d="M386 0 L530 0 L317 260 L531 495 L376 495 L194 256 L386 0 Z M80 0 L194 0 L194 768 L80 728 L80 0 Z " />
<glyph glyph-name="l" unicode="l" horiz-adv-x="278" d="M237 -8 L273 47 C228 53 196 70 196 120 L196 778 L80 736 L80 90 C80 30 127 -14 188 -14 C205 -14 222 -14 237 -8 L237 -8 Z " />
<glyph glyph-name="m" unicode="m" horiz-adv-x="838" d="M648 0 L762 0 L762 347 C762 447 715 510 611 510 C557 510 504 465 472 424 C451 486 396 510 334 510 C273 510 228 469 191 424 L175 495 L80 495 L80 0 L194 0 L194 351 C221 379 250 414 292 414 C328 414 364 386 364 348 L364 0 L478 0 L478 351 C500 382 537 414 577 414 C612 414 648 384 648 347 L648 0 Z " />
<glyph glyph-name="n" unicode="n" horiz-adv-x="568" d="M375 0 L492 0 L492 323 C492 423 445 510 333 510 C275 510 224 469 192 423 L178 495 L80 495 L80 0 L196 0 L196 350 C226 385 251 414 301 414 C352 414 375 368 375 323 L375 0 Z " />
<glyph glyph-name="o" unicode="o" horiz-adv-x="561" d="M282 -14 C444 -14 511 97 511 247 C511 388 434 510 282 510 C130 510 50 388 50 247 C50 104 129 -14 282 -14 L282 -14 Z M282 407 C373 407 383 317 383 247 C383 173 378 87 282 87 C194 87 176 177 176 247 C176 318 193 407 282 407 L282 407 Z " />
<glyph glyph-name="p" unicode="p" horiz-adv-x="586" d="M308 -14 C485 -14 530 113 530 270 C530 393 477 510 338 510 C278 510 223 475 191 424 L177 495 L80 495 L80 -260 L197 -219 L197 14 C225 -4 275 -14 308 -14 L308 -14 Z M298 408 C377 408 410 343 410 273 C410 168 399 79 270 79 C248 79 215 90 197 102 L197 362 C221 395 257 408 298 408 L298 408 Z " />
<glyph glyph-name="q" unicode="q" horiz-adv-x="585" d="M386 -260 L507 -219 L507 510 L389 476 C358 497 320 510 282 510 C123 510 56 369 56 229 C56 105 128 -14 263 -14 C318 -14 371 4 386 64 L386 -260 Z M388 384 L388 142 C371 102 338 83 296 83 C214 83 175 166 175 238 C175 326 212 416 313 416 C338 416 370 401 388 384 L388 384 Z " />
<glyph glyph-name="r" unicode="r" horiz-adv-x="424" d="M196 0 L196 338 C228 377 271 382 296 382 C322 382 343 369 352 354 L400 470 C389 495 368 510 344 510 C263 510 219 434 193 380 L193 404 L176 495 L80 495 L80 0 L196 0 Z " />
<glyph glyph-name="s" unicode="s" horiz-adv-x="463" d="M220 -14 C325 -14 409 21 409 140 C409 325 184 285 184 364 C184 403 214 415 248 415 C298 415 347 405 395 392 L395 487 C346 504 293 510 241 510 C144 510 64 462 64 356 C64 175 292 223 292 136 C292 91 241 81 206 81 C158 81 110 93 64 107 L64 10 C114 -5 167 -14 220 -14 L220 -14 Z " />
<glyph glyph-name="t" unicode="t" horiz-adv-x="415" d="M368 30 L368 108 C340 91 329 83 297 83 C261 83 236 111 236 144 L236 411 L357 411 L395 495 L236 495 L236 645 L122 606 L122 495 L30 479 L30 411 L122 411 L122 137 C122 40 175 -14 274 -14 C311 -14 346 -2 368 30 L368 30 Z " />
<glyph glyph-name="u" unicode="u" horiz-adv-x="565" d="M194 495 L76 495 L76 162 C76 58 139 -14 246 -14 C307 -14 344 15 372 68 L392 0 L485 0 L485 495 L370 495 L370 154 C347 120 316 88 272 88 C224 88 194 113 194 163 L194 495 Z " />
<glyph glyph-name="v" unicode="v" horiz-adv-x="519" d="M489 495 L382 495 L278 195 C272 179 272 162 272 145 L270 145 C270 161 266 180 261 195 L150 495 L30 495 L223 0 L303 0 L489 495 Z " />
<glyph glyph-name="w" unicode="w" horiz-adv-x="778" d="M575 0 L748 495 L643 495 L550 221 C546 210 543 186 543 169 L542 169 C542 184 536 209 532 221 L446 495 L344 495 L257 226 C252 211 249 193 249 177 L247 177 C247 190 245 210 239 226 L147 495 L30 495 L201 0 L281 0 L389 317 C393 330 393 361 393 361 L394 361 C394 361 397 329 400 317 L495 0 L575 0 Z " />
<glyph glyph-name="x" unicode="x" horiz-adv-x="518" d="M348 0 L488 0 L322 257 L472 495 L361 495 L272 338 L187 495 L43 495 L193 256 L30 0 L139 0 L246 182 L348 0 Z " />
<glyph glyph-name="y" unicode="y" horiz-adv-x="510" d="M269 139 C269 157 267 179 261 195 L150 495 L30 495 L211 27 C203 -21 166 -142 106 -142 C81 -142 56 -139 32 -130 L32 -245 C61 -256 94 -261 125 -261 C244 -261 273 -116 304 -30 L491 495 L380 495 L278 195 C272 179 271 156 271 139 L269 139 Z " />
<glyph glyph-name="z" unicode="z" horiz-adv-x="493" d="M50 0 L443 0 L443 84 L202 84 C189 84 184 78 173 75 L173 77 C187 82 203 94 210 105 L424 433 L424 495 L59 495 L59 412 L273 412 C286 412 300 416 313 419 L313 417 C300 416 278 404 271 393 L50 60 L50 0 Z " />
<glyph glyph-name="braceleft" unicode="&#x7b;" horiz-adv-x="419" d="M152 -69 C152 -187 255 -231 359 -231 L359 -151 C300 -152 261 -135 261 -69 L261 170 C261 224 208 269 157 281 C210 290 261 336 261 390 L261 634 C261 692 306 719 359 719 L359 799 C260 799 152 743 152 634 L152 390 C152 347 88 311 50 311 L50 250 C89 250 152 214 152 170 L152 -69 Z " />
<glyph glyph-name="bar" unicode="&#x7c;" horiz-adv-x="279" d="M90 -200 L189 -200 L189 780 L90 780 L90 -200 Z " />
<glyph glyph-name="braceright" unicode="&#x7d;" horiz-adv-x="419" d="M267 637 C267 755 164 799 60 799 L60 719 C119 720 158 703 158 637 L158 398 C158 344 211 299 262 287 C209 278 158 232 158 178 L158 -66 C158 -124 113 -151 60 -151 L60 -231 C159 -231 267 -175 267 -66 L267 178 C267 221 331 257 369 257 L369 318 C330 318 267 354 267 398 L267 637 Z " />
<glyph glyph-name="asciitilde" unicode="&#x7e;" horiz-adv-x="629" d="M422 188 C489 188 538 224 573 279 L514 321 C489 296 461 281 426 281 C356 281 295 327 225 327 C161 327 111 295 73 245 L129 202 C148 223 193 232 220 232 C290 232 352 188 422 188 L422 188 Z " />
<glyph glyph-name="nbspace" unicode="&#xa0;" horiz-adv-x="260" d="" />
<glyph glyph-name="exclamdown" unicode="&#xa1;" horiz-adv-x="260" d="M173 278 L192 -184 L64 -184 L83 268 L173 278 Z M126 514 C86 514 53 482 53 441 C53 400 86 367 126 367 C167 367 201 400 201 441 C201 482 167 514 126 514 L126 514 Z " />
<glyph glyph-name="cent" unicode="&#xa2;" horiz-adv-x="518" d="M303 481 L303 76 C211 91 167 192 167 276 C167 364 202 469 303 481 L303 481 Z M303 -15 L303 -131 L356 -131 L356 -14 C394 -12 433 -6 468 7 L468 101 C434 85 394 78 356 75 L356 481 C393 480 431 477 468 468 L468 555 C431 562 393 565 356 567 L356 678 L303 678 L303 568 C152 565 60 412 60 274 C60 124 153 -16 303 -15 L303 -15 Z " />
<glyph glyph-name="sterling" unicode="&#xa3;" horiz-adv-x="594" d="M504 0 L524 82 L217 82 C239 97 255 118 256 146 L261 285 L417 285 L446 365 L264 365 L268 468 C270 528 289 568 356 568 C403 568 449 560 494 547 L462 635 C424 645 384 653 345 653 C232 653 165 578 161 468 L157 361 L71 343 L71 285 L155 285 C153 239 152 192 150 146 C148 105 107 81 70 77 L70 0 L504 0 Z " />
<glyph glyph-name="currency" unicode="&#xa4;" horiz-adv-x="681" d="M485 578 C519 578 562 572 594 563 L622 643 C579 655 525 662 481 662 C343 662 229 593 198 453 L99 453 L78 383 L186 383 C184 357 183 332 183 306 C183 296 183 285 184 275 L54 275 L30 203 L191 203 C218 55 328 -14 472 -14 C518 -14 563 -8 607 5 L607 92 C563 77 518 71 472 71 C390 71 316 117 306 203 L474 203 L497 275 L295 275 C294 288 294 301 294 314 C294 337 297 360 299 383 L525 383 L551 453 L312 453 C328 537 402 578 485 578 L485 578 Z " />
<glyph glyph-name="yen" unicode="&#xa5;" horiz-adv-x="561" d="M298 362 C298 373 295 393 290 402 L148 646 L30 646 L212 340 L94 340 L94 281 L234 281 L234 211 L94 211 L94 156 L234 156 L234 0 L348 0 L348 156 L482 156 L482 211 L348 211 L348 281 L482 281 L482 340 L368 340 L531 646 L432 646 L308 402 C303 393 301 373 300 362 L298 362 Z " />
<glyph glyph-name="brokenbar" unicode="&#xa6;" horiz-adv-x="255" d="M81 400 L176 400 L176 684 L81 684 L81 400 Z M80 0 L175 0 L175 284 L80 284 L80 0 Z " />
<glyph glyph-name="section" unicode="&#xa7;" horiz-adv-x="538" d="M478 -28 C478 201 264 353 264 510 C264 576 302 621 370 621 C397 621 424 616 450 607 L450 683 C415 692 380 699 344 699 C230 699 70 653 70 513 C70 288 277 122 277 -33 C277 -124 228 -153 143 -153 C120 -153 97 -147 76 -139 L76 -216 C111 -225 147 -231 183 -231 C307 -231 478 -179 478 -28 L478 -28 Z M255 636 C215 610 194 562 194 516 C194 317 406 183 406 -30 C406 -89 352 -134 303 -156 C336 -124 351 -80 351 -35 C351 161 140 303 140 514 C140 575 200 622 255 636 L255 636 Z " />
<glyph glyph-name="dieresis" unicode="&#xa8;" horiz-adv-x="413" d="M60 643 C60 612 85 587 116 587 C147 587 172 612 172 643 C172 674 147 700 116 700 C85 700 60 674 60 643 L60 643 Z M240 643 C240 612 266 587 297 587 C328 587 353 612 353 643 C353 674 328 700 297 700 C266 700 240 674 240 643 L240 643 Z " />
<glyph glyph-name="copyright" unicode="&#xa9;" horiz-adv-x="863" d="M442 -15 C647 -15 815 153 815 358 C815 563 646 730 442 730 C237 730 70 563 70 358 C70 153 237 -15 442 -15 L442 -15 Z M442 656 C605 656 739 521 739 358 C739 195 605 61 442 61 C279 61 146 195 146 358 C146 521 279 656 442 656 L442 656 Z M485 488 C515 488 546 484 573 470 L573 559 C534 573 493 576 452 576 C323 576 245 476 245 352 C245 226 326 137 454 137 C496 137 539 141 578 157 L578 248 C545 233 509 224 473 224 C395 224 350 271 350 348 C350 441 390 488 485 488 L485 488 Z " />
<glyph glyph-name="ordfeminine" unicode="&#xaa;" horiz-adv-x="421" d="M360 345 L386 391 C362 395 343 413 343 430 L343 574 C343 656 286 699 205 699 C163 699 134 695 95 676 L88 599 C120 620 149 626 186 626 C216 626 251 605 251 574 L251 551 C183 546 60 534 60 433 C60 365 122 338 181 338 C215 338 248 350 265 381 C274 353 300 338 328 338 C338 338 350 342 360 345 L360 345 Z M77 198 L340 198 L340 275 L77 275 L77 198 Z M251 504 L251 425 C240 407 220 397 199 397 C173 397 153 409 153 437 C153 481 201 499 251 504 L251 504 Z " />
<glyph glyph-name="guillemotleft" unicode="&#xab;" horiz-adv-x="681" d="M311 2 L373 63 L220 245 L373 429 L309 491 L80 245 L311 2 Z M548 2 L611 63 L457 245 L611 429 L547 491 L317 245 L548 2 Z " />
<glyph glyph-name="logicalnot" unicode="&#xac;" horiz-adv-x="610" d="M448 167 L540 167 L540 447 L80 447 L80 352 L448 352 L448 167 Z " />
<glyph glyph-name="registered" unicode="&#xae;" horiz-adv-x="691" d="M354 141 C507 141 634 266 634 420 C634 574 507 700 354 700 C200 700 75 574 75 420 C75 267 200 141 354 141 L354 141 Z M354 637 C476 637 569 541 569 420 C569 302 471 204 354 204 C236 204 139 302 139 420 C139 538 236 637 354 637 L354 637 Z M343 527 C373 527 391 510 391 480 C391 452 371 435 343 435 L315 435 L315 527 L343 527 Z M414 277 L480 277 C480 277 406 396 401 403 C434 415 448 442 448 480 C448 543 400 569 343 569 L260 569 L260 277 L315 277 L315 393 L352 393 L414 277 Z " />
<glyph glyph-name="macron" unicode="&#xaf;" horiz-adv-x="394" d="M334 685 L60 685 L60 608 L334 608 L334 685 Z " />
<glyph glyph-name="degree" unicode="&#xb0;" horiz-adv-x="420" d="M210 476 C282 476 340 534 340 606 C340 678 282 736 210 736 C138 736 80 678 80 606 C80 534 138 476 210 476 L210 476 Z M210 671 C245 671 275 642 275 606 C275 570 245 541 210 541 C174 541 145 570 145 606 C145 642 174 671 210 671 L210 671 Z " />
<glyph glyph-name="plusminus" unicode="&#xb1;" horiz-adv-x="573" d="M104 0 L467 0 L467 98 L104 98 L104 0 Z M336 343 L504 343 L504 430 L336 430 L336 600 L237 600 L237 430 L70 430 L70 343 L237 343 L237 172 L336 172 L336 343 Z " />
<glyph glyph-name="twosuperior" unicode="&#xb2;" horiz-adv-x="391" d="M337 215 L351 281 L174 281 C254 333 317 418 317 520 C317 622 240 660 154 660 C121 660 89 647 62 628 L53 564 C82 579 114 593 147 593 C192 593 233 563 233 515 C233 403 133 322 50 264 L50 215 L337 215 Z " />
<glyph glyph-name="threesuperior" unicode="&#xb3;" horiz-adv-x="353" d="M154 201 C245 201 303 230 303 329 C303 374 289 412 248 433 C281 454 288 500 288 537 C288 616 228 660 153 660 C124 660 88 648 64 631 L54 564 C81 580 112 593 144 593 C178 593 211 573 211 536 C211 475 171 465 147 464 L110 464 L102 396 L169 396 C202 396 228 368 228 335 C228 276 182 265 133 265 C107 265 83 273 59 281 C55 261 53 241 50 221 C81 208 121 201 154 201 L154 201 Z " />
<glyph glyph-name="acute" unicode="&#xb4;" horiz-adv-x="314" d="M60 507 L162 698 L254 651 L117 478 L60 507 Z " />
<glyph glyph-name="mu" unicode="&#xb5;" horiz-adv-x="563" d="M201 509 L90 481 L90 -195 L201 -164 L201 -1 C215 -9 241 -14 259 -14 C316 -14 356 22 375 67 C379 15 423 -14 460 -14 C473 -14 487 -11 499 -6 L533 51 C504 59 480 79 480 111 L480 509 L371 481 L371 128 C345 101 303 81 265 81 C219 81 201 123 201 163 L201 509 Z " />
<glyph glyph-name="paragraph" unicode="&#xb6;" horiz-adv-x="671" d="M568 601 L661 601 L661 685 L238 685 C141 685 52 605 52 506 C52 407 140 327 237 326 L237 -54 C237 -119 216 -176 143 -176 C108 -176 74 -167 40 -159 L40 -246 C79 -254 118 -262 157 -262 C292 -262 352 -179 352 -54 L352 602 L454 602 L454 -248 L567 -248 L568 601 Z " />
<glyph glyph-name="periodcentered" unicode="&#xb7;" horiz-adv-x="327" d="M90 260 C90 219 123 187 164 187 C204 187 237 219 237 260 C237 301 204 334 164 334 C123 334 90 301 90 260 L90 260 Z " />
<glyph glyph-name="cedilla" unicode="&#xb8;" horiz-adv-x="286" d="M226 0 L135 0 L88 -97 C109 -97 170 -108 170 -136 C170 -152 157 -159 142 -159 C118 -159 91 -148 69 -137 L37 -207 C69 -227 106 -241 144 -241 C211 -241 255 -201 255 -133 C255 -98 237 -64 203 -50 L226 0 Z " />
<glyph glyph-name="onesuperior" unicode="&#xb9;" horiz-adv-x="373" d="M164 220 L248 220 L248 660 L239 660 C190 633 114 612 60 598 L60 554 C89 554 138 556 164 568 L164 220 Z " />
<glyph glyph-name="ordmasculine" unicode="&#xba;" horiz-adv-x="419" d="M211 341 C317 341 359 425 359 520 C359 612 314 700 211 700 C111 700 60 610 60 520 C60 429 112 341 211 341 L211 341 Z M211 628 C260 628 263 552 263 517 C263 484 257 413 211 413 C169 413 157 488 157 520 C157 552 168 628 211 628 L211 628 Z M84 198 L347 198 L347 275 L84 275 L84 198 Z " />
<glyph glyph-name="guillemotright" unicode="&#xbb;" horiz-adv-x="654" d="M365 479 L306 421 L452 248 L306 73 L366 14 L584 248 L365 479 Z M140 479 L80 421 L226 248 L80 73 L141 14 L359 248 L140 479 Z " />
<glyph glyph-name="onequarter" unicode="&#xbc;" horiz-adv-x="973" d="M358 -14 L611 660 L539 660 L284 -14 L358 -14 Z M730 324 L730 169 L621 169 L730 324 Z M811 107 L895 107 L914 169 L811 169 L811 416 L728 416 L548 164 L548 107 L730 107 L730 0 L811 0 L811 107 Z M164 220 L248 220 L248 660 L239 660 C190 633 114 612 60 598 L60 554 C89 554 138 556 164 568 L164 220 Z " />
<glyph glyph-name="onehalf" unicode="&#xbd;" horiz-adv-x="975" d="M358 -14 L611 660 L539 660 L284 -14 L358 -14 Z M901 1 L915 67 L728 67 C809 120 881 196 881 298 C881 400 805 436 719 436 C686 436 653 425 626 406 L617 342 C646 357 679 369 712 369 C757 369 797 341 797 293 C797 181 687 108 604 50 L604 1 L901 1 Z M164 220 L248 220 L248 660 L239 660 C190 633 114 612 60 598 L60 554 C89 554 138 556 164 568 L164 220 Z " />
<glyph glyph-name="threequarters" unicode="&#xbe;" horiz-adv-x="943" d="M358 -14 L626 699 L553 699 L284 -14 L358 -14 Z M720 324 L720 169 L611 169 L720 324 Z M801 107 L885 107 L904 169 L801 169 L801 416 L718 416 L538 164 L538 107 L720 107 L720 0 L801 0 L801 107 Z M164 255 C255 255 317 290 317 389 C317 434 299 466 258 487 C291 509 303 539 303 576 C303 655 238 699 164 699 C134 699 98 687 74 670 L64 603 C91 619 122 632 154 632 C188 632 221 612 221 575 C221 506 171 519 120 519 L112 450 L179 450 C212 450 238 422 238 389 C238 330 192 319 143 319 C117 319 93 327 69 335 C65 315 63 295 60 275 C91 262 131 255 164 255 L164 255 Z " />
<glyph glyph-name="questiondown" unicode="&#xbf;" horiz-adv-x="479" d="M50 -20 C50 -147 157 -201 270 -201 C313 -201 354 -187 396 -178 L429 -70 C384 -82 336 -92 289 -92 C243 -92 180 -75 180 -18 C180 78 322 101 322 255 C322 260 321 266 321 271 L225 261 C225 143 50 134 50 -20 L50 -20 Z M270 512 C230 512 197 479 197 439 C197 399 230 365 270 365 C310 365 345 398 345 439 C345 480 310 512 270 512 L270 512 Z " />
<glyph glyph-name="Agrave" unicode="&#xc0;" horiz-adv-x="601" d="M451 0 L571 0 L343 685 L260 685 L30 0 L143 0 L192 154 L404 154 L451 0 Z M299 528 L300 528 C300 528 302 486 304 478 L380 242 L218 242 L296 478 C299 486 299 528 299 528 L299 528 Z M286 748 L69 857 L145 944 L329 789 L286 748 Z " />
<glyph glyph-name="Aacute" unicode="&#xc1;" horiz-adv-x="601" d="M451 0 L571 0 L343 685 L260 685 L30 0 L143 0 L192 154 L404 154 L451 0 Z M299 528 L300 528 C300 528 302 486 304 478 L380 242 L218 242 L296 478 C299 486 299 528 299 528 L299 528 Z M322 748 L539 857 L463 944 L279 789 L322 748 Z " />
<glyph glyph-name="Acircumflex" unicode="&#xc2;" horiz-adv-x="601" d="M451 0 L571 0 L343 685 L260 685 L30 0 L143 0 L192 154 L404 154 L451 0 Z M299 528 L300 528 C300 528 302 486 304 478 L380 242 L218 242 L296 478 C299 486 299 528 299 528 L299 528 Z M347 953 L249 953 L152 777 L204 749 L298 862 L393 749 L446 775 L347 953 Z " />
<glyph glyph-name="Atilde" unicode="&#xc3;" horiz-adv-x="601" d="M451 0 L571 0 L343 685 L260 685 L30 0 L143 0 L192 154 L404 154 L451 0 Z M299 528 L300 528 C300 528 302 486 304 478 L380 242 L218 242 L296 478 C299 486 299 528 299 528 L299 528 Z M457 817 L457 885 C438 869 398 842 373 842 C325 842 282 875 234 875 C205 875 164 837 146 815 L146 750 C166 766 203 792 228 792 C275 792 322 758 370 758 C400 758 440 794 457 817 L457 817 Z " />
<glyph glyph-name="Adieresis" unicode="&#xc4;" horiz-adv-x="601" d="M451 0 L571 0 L343 685 L260 685 L30 0 L143 0 L192 154 L404 154 L451 0 Z M299 528 L300 528 C300 528 302 486 304 478 L380 242 L218 242 L296 478 C299 486 299 528 299 528 L299 528 Z M144 801 C144 769 170 742 203 742 C236 742 262 769 262 801 C262 834 236 860 203 860 C170 860 144 834 144 801 L144 801 Z M334 801 C334 769 360 742 393 742 C426 742 452 769 452 801 C452 834 426 860 393 860 C360 860 334 834 334 801 L334 801 Z " />
<glyph glyph-name="Aring" unicode="&#xc5;" horiz-adv-x="601" d="M302 861 C335 861 363 834 363 801 C363 768 335 739 302 739 C269 739 241 768 241 801 C241 834 269 861 302 861 L302 861 Z M451 0 L571 0 L343 684 C391 701 426 749 426 801 C426 869 370 924 302 924 C234 924 179 869 179 801 C179 750 212 702 260 684 L30 0 L143 0 L192 154 L404 154 L451 0 Z M299 528 L300 528 C300 517 301 488 304 478 L380 242 L218 242 L296 478 C299 487 299 517 299 528 L299 528 Z " />
<glyph glyph-name="AE" unicode="&#xc6;" horiz-adv-x="893" d="M418 510 L419 510 C417 496 415 483 415 469 L415 265 L295 265 L406 470 C413 483 415 496 418 510 L418 510 Z M823 685 L400 685 L30 0 L158 0 L255 183 L415 183 L415 0 L822 0 L822 91 L529 91 L529 294 L745 294 L745 390 L529 390 L529 589 L823 589 L823 685 Z " />
<glyph glyph-name="Ccedilla" unicode="&#xc7;" horiz-adv-x="599" d="M396 600 C443 600 492 593 537 581 L537 681 C488 693 437 699 387 699 C185 699 60 536 60 343 C60 159 168 3 360 -13 L318 -102 C343 -102 400 -106 400 -141 C400 -158 382 -169 367 -169 C343 -169 320 -166 297 -158 L269 -218 C300 -239 337 -246 374 -246 C438 -246 487 -204 487 -138 C487 -95 456 -62 414 -55 L435 -12 C470 -9 505 -4 539 6 L539 108 C498 95 448 87 405 87 C253 87 189 210 189 347 C189 477 251 600 396 600 L396 600 Z " />
<glyph glyph-name="Egrave" unicode="&#xc8;" horiz-adv-x="581" d="M104 0 L511 0 L511 91 L218 91 L218 294 L434 294 L434 390 L218 390 L218 589 L512 589 L512 684 L104 684 L104 0 Z M306 748 L89 857 L165 944 L349 789 L306 748 Z " />
<glyph glyph-name="Eacute" unicode="&#xc9;" horiz-adv-x="594" d="M100 0 L507 0 L507 91 L214 91 L214 294 L430 294 L430 390 L214 390 L214 589 L508 589 L508 684 L100 684 L100 0 Z M332 748 L549 857 L473 944 L289 789 L332 748 Z " />
<glyph glyph-name="Ecircumflex" unicode="&#xca;" horiz-adv-x="576" d="M100 0 L507 0 L507 91 L214 91 L214 294 L430 294 L430 390 L214 390 L214 589 L508 589 L508 684 L100 684 L100 0 Z M347 953 L249 953 L152 777 L204 749 L298 862 L393 749 L446 775 L347 953 Z " />
<glyph glyph-name="Edieresis" unicode="&#xcb;" horiz-adv-x="576" d="M100 0 L507 0 L507 91 L214 91 L214 294 L430 294 L430 390 L214 390 L214 589 L508 589 L508 684 L100 684 L100 0 Z M149 801 C149 769 175 742 208 742 C241 742 267 769 267 801 C267 834 241 860 208 860 C175 860 149 834 149 801 L149 801 Z M339 801 C339 769 365 742 398 742 C431 742 457 769 457 801 C457 834 431 860 398 860 C365 860 339 834 339 801 L339 801 Z " />
<glyph glyph-name="Igrave" unicode="&#xcc;" horiz-adv-x="321" d="M103 0 L217 0 L217 685 L103 685 L103 0 Z M156 748 L-61 857 L15 944 L199 789 L156 748 Z " />
<glyph glyph-name="Iacute" unicode="&#xcd;" horiz-adv-x="310" d="M100 0 L214 0 L214 685 L100 685 L100 0 Z M162 748 L379 857 L303 944 L119 789 L162 748 Z " />
<glyph glyph-name="Icircumflex" unicode="&#xce;" horiz-adv-x="310" d="M100 0 L214 0 L214 685 L100 685 L100 0 Z M204 951 L107 951 L10 775 L62 747 L156 860 L251 747 L304 773 L204 951 Z " />
<glyph glyph-name="Idieresis" unicode="&#xcf;" horiz-adv-x="308" d="M100 0 L214 0 L214 685 L100 685 L100 0 Z M-1 801 C-1 769 25 742 58 742 C91 742 117 769 117 801 C117 834 91 860 58 860 C25 860 -1 834 -1 801 L-1 801 Z M189 801 C189 769 215 742 248 742 C281 742 307 769 307 801 C307 834 281 860 248 860 C215 860 189 834 189 801 L189 801 Z " />
<glyph glyph-name="Eth" unicode="&#xd0;" horiz-adv-x="709" d="M260 390 L260 616 L336 616 C495 616 535 476 535 344 C535 210 498 71 337 71 L260 71 L260 302 L361 302 L361 390 L260 390 Z M60 390 L60 302 L146 302 L146 0 L373 0 C581 0 649 165 649 347 C649 524 572 685 373 685 L146 685 L146 390 L60 390 Z " />
<glyph glyph-name="Ntilde" unicode="&#xd1;" horiz-adv-x="700" d="M513 0 L600 0 L600 685 L498 685 L498 231 C498 220 499 199 501 189 L500 189 C496 201 495 219 488 230 L184 685 L100 685 L100 0 L203 0 L203 449 C203 458 200 480 198 489 L199 489 C202 476 207 460 214 449 L513 0 Z M505 817 L505 885 C485 869 446 842 420 842 C373 842 329 875 281 875 C252 875 211 837 194 815 L194 750 C213 766 250 792 276 792 C322 792 370 758 418 758 C447 758 487 794 505 817 L505 817 Z " />
<glyph glyph-name="Ograve" unicode="&#xd2;" horiz-adv-x="710" d="M357 -14 C565 -14 650 147 650 335 C650 518 561 699 355 699 C153 699 60 525 60 343 C60 163 158 -14 357 -14 L357 -14 Z M345 611 C489 611 522 444 522 330 C522 225 503 75 366 75 C222 75 189 237 189 351 C189 453 212 611 345 611 L345 611 Z M326 758 L109 867 L185 954 L369 799 L326 758 Z " />
<glyph glyph-name="Oacute" unicode="&#xd3;" horiz-adv-x="710" d="M357 -14 C565 -14 650 147 650 335 C650 518 561 699 355 699 C153 699 60 525 60 343 C60 163 158 -14 357 -14 L357 -14 Z M345 611 C489 611 522 444 522 330 C522 225 503 75 366 75 C222 75 189 237 189 351 C189 453 212 611 345 611 L345 611 Z M362 748 L579 857 L503 944 L319 789 L362 748 Z " />
<glyph glyph-name="Ocircumflex" unicode="&#xd4;" horiz-adv-x="710" d="M357 -14 C565 -14 650 147 650 335 C650 518 561 699 355 699 C153 699 60 525 60 343 C60 163 158 -14 357 -14 L357 -14 Z M345 611 C489 611 522 444 522 330 C522 225 503 75 366 75 C222 75 189 237 189 351 C189 453 212 611 345 611 L345 611 Z M394 951 L297 951 L200 775 L252 747 L346 860 L441 747 L494 773 L394 951 Z " />
<glyph glyph-name="Otilde" unicode="&#xd5;" horiz-adv-x="710" d="M357 -14 C565 -14 650 147 650 335 C650 518 561 699 355 699 C153 699 60 525 60 343 C60 163 158 -14 357 -14 L357 -14 Z M345 611 C489 611 522 444 522 330 C522 225 503 75 366 75 C222 75 189 237 189 351 C189 453 212 611 345 611 L345 611 Z M503 816 L503 885 C484 869 444 842 419 842 C371 842 328 875 280 875 C251 875 210 837 192 815 L192 750 C212 773 249 792 274 792 C321 792 368 758 416 758 C446 758 486 794 503 816 L503 816 Z " />
<glyph glyph-name="Odieresis" unicode="&#xd6;" horiz-adv-x="710" d="M357 -14 C565 -14 650 147 650 335 C650 518 561 699 355 699 C153 699 60 525 60 343 C60 163 158 -14 357 -14 L357 -14 Z M345 611 C489 611 522 444 522 330 C522 225 503 75 366 75 C222 75 189 237 189 351 C189 453 212 611 345 611 L345 611 Z M179 801 C179 769 205 742 238 742 C271 742 297 769 297 801 C297 834 271 860 238 860 C205 860 179 834 179 801 L179 801 Z M369 801 C369 769 395 742 428 742 C461 742 487 769 487 801 C487 834 461 860 428 860 C395 860 369 834 369 801 L369 801 Z " />
<glyph glyph-name="multiply" unicode="&#xd7;" horiz-adv-x="521" d="M394 133 L462 200 L326 335 L462 471 L396 537 L261 400 L127 535 L60 467 L194 333 L61 198 L126 133 L259 268 L394 133 Z " />
<glyph glyph-name="Oslash" unicode="&#xd8;" horiz-adv-x="700" d="M351 -14 C557 -14 650 146 650 335 C650 430 625 532 562 605 L630 700 L590 728 L527 639 C476 680 414 700 349 700 C147 700 50 526 50 343 C50 253 75 159 133 88 L57 -19 L95 -47 L167 53 C219 8 283 -14 351 -14 L351 -14 Z M231 142 L491 506 C514 453 526 388 526 330 C526 224 498 69 363 69 C307 69 263 96 231 142 L231 142 Z M173 351 C173 460 209 619 346 619 C397 619 436 594 465 553 L205 189 C183 239 173 297 173 351 L173 351 Z " />
<glyph glyph-name="Ugrave" unicode="&#xd9;" horiz-adv-x="690" d="M356 -13 C507 -13 610 70 610 223 L610 685 L499 685 L499 223 C499 137 450 78 357 78 C263 78 207 134 207 223 L207 685 L90 685 L90 223 C90 65 202 -13 356 -13 L356 -13 Z M336 748 L119 857 L195 944 L379 789 L336 748 Z " />
<glyph glyph-name="Uacute" unicode="&#xda;" horiz-adv-x="690" d="M356 -13 C507 -13 610 70 610 223 L610 685 L499 685 L499 223 C499 137 450 78 357 78 C263 78 207 134 207 223 L207 685 L90 685 L90 223 C90 65 202 -13 356 -13 L356 -13 Z M372 748 L589 857 L513 944 L329 789 L372 748 Z " />
<glyph glyph-name="Ucircumflex" unicode="&#xdb;" horiz-adv-x="690" d="M356 -13 C507 -13 610 70 610 223 L610 685 L499 685 L499 223 C499 137 450 78 357 78 C263 78 207 134 207 223 L207 685 L90 685 L90 223 C90 65 202 -13 356 -13 L356 -13 Z M395 963 L297 963 L200 787 L252 759 L346 872 L441 759 L494 785 L395 963 Z " />
<glyph glyph-name="Udieresis" unicode="&#xdc;" horiz-adv-x="690" d="M356 -13 C507 -13 610 70 610 223 L610 685 L499 685 L499 223 C499 137 450 78 357 78 C263 78 207 134 207 223 L207 685 L90 685 L90 223 C90 65 202 -13 356 -13 L356 -13 Z M194 801 C194 769 220 742 253 742 C286 742 312 769 312 801 C312 834 286 860 253 860 C220 860 194 834 194 801 L194 801 Z M384 801 C384 769 410 742 443 742 C476 742 502 769 502 801 C502 834 476 860 443 860 C410 860 384 834 384 801 L384 801 Z " />
<glyph glyph-name="Yacute" unicode="&#xdd;" horiz-adv-x="597" d="M316 371 C315 384 313 408 307 419 L165 685 L40 685 L254 299 L254 0 L368 0 L368 299 L564 685 L455 685 L324 419 C318 407 317 384 317 371 L316 371 Z M332 748 L549 857 L473 944 L289 789 L332 748 Z " />
<glyph glyph-name="Thorn" unicode="&#xde;" horiz-adv-x="602" d="M227 132 L335 132 C463 132 545 221 545 348 C545 477 463 560 334 560 L224 560 L224 685 L111 685 L111 0 L227 0 L227 132 Z M319 475 C392 475 422 411 422 346 C422 292 390 217 327 217 L227 217 L227 475 L319 475 Z " />
<glyph glyph-name="germandbls" unicode="&#xdf;" horiz-adv-x="659" d="M119 420 L119 0 L231 0 L231 585 C231 635 274 675 324 675 C378 675 411 638 411 585 C411 519 319 468 319 381 C319 231 517 200 517 132 C517 81 475 73 433 73 C385 73 348 84 303 99 L313 10 C358 -4 394 -14 441 -14 C547 -14 635 12 635 136 C635 286 442 310 442 385 C442 441 531 495 531 585 C531 700 435 778 324 778 C208 778 119 705 119 585 L119 495 L20 477 L20 420 L119 420 Z " />
<glyph glyph-name="agrave" unicode="&#xe0;" horiz-adv-x="540" d="M485 -8 L520 46 C491 54 461 77 461 109 L461 329 C461 447 383 510 269 510 C210 510 150 504 96 478 L86 375 C130 403 187 418 239 418 C293 418 345 388 345 329 L345 298 C233 284 52 275 52 122 C52 30 128 -14 212 -14 C273 -14 326 -1 353 60 C364 15 410 -14 455 -14 C465 -14 476 -12 485 -8 L485 -8 Z M345 229 L345 129 C322 88 288 66 240 66 C198 66 167 94 167 137 C167 177 198 202 235 209 L345 229 Z M281 597 L179 788 L87 741 L224 568 L281 597 Z " />
<glyph glyph-name="aacute" unicode="&#xe1;" horiz-adv-x="540" d="M485 -8 L520 46 C491 54 461 77 461 109 L461 329 C461 447 383 510 269 510 C210 510 150 504 96 478 L86 375 C130 403 187 418 239 418 C293 418 345 388 345 329 L345 298 C233 284 52 275 52 122 C52 30 128 -14 212 -14 C273 -14 326 -1 353 60 C364 15 410 -14 455 -14 C465 -14 476 -12 485 -8 L485 -8 Z M345 229 L345 129 C322 88 288 66 240 66 C198 66 167 94 167 137 C167 177 198 202 235 209 L345 229 Z M239 597 L341 788 L433 741 L296 568 L239 597 Z " />
<glyph glyph-name="acircumflex" unicode="&#xe2;" horiz-adv-x="540" d="M485 -8 L520 46 C491 54 461 77 461 109 L461 329 C461 447 383 510 269 510 C210 510 150 504 96 478 L86 375 C130 403 187 418 239 418 C293 418 345 388 345 329 L345 298 C233 284 52 275 52 122 C52 30 128 -14 212 -14 C273 -14 326 -1 353 60 C364 15 410 -14 455 -14 C465 -14 476 -12 485 -8 L485 -8 Z M345 229 L345 129 C322 88 288 66 240 66 C198 66 167 94 167 137 C167 177 198 202 235 209 L345 229 Z M313 782 L215 782 L128 606 L180 578 L264 701 L349 578 L402 604 L313 782 Z " />
<glyph glyph-name="atilde" unicode="&#xe3;" horiz-adv-x="540" d="M485 -8 L520 46 C491 54 461 77 461 109 L461 329 C461 447 383 510 269 510 C210 510 150 504 96 478 L86 375 C130 403 187 418 239 418 C293 418 345 388 345 329 L345 298 C233 284 52 275 52 122 C52 30 128 -14 212 -14 C273 -14 326 -1 353 60 C364 15 410 -14 455 -14 C465 -14 476 -12 485 -8 L485 -8 Z M345 229 L345 129 C322 88 288 66 240 66 C198 66 167 94 167 137 C167 177 198 202 235 209 L345 229 Z M421 638 L421 706 C402 690 362 664 337 664 C289 664 246 697 198 697 C169 697 128 658 110 637 L110 572 C130 587 167 613 192 613 C239 613 286 579 334 579 C364 579 404 615 421 638 L421 638 Z " />
<glyph glyph-name="adieresis" unicode="&#xe4;" horiz-adv-x="540" d="M485 -8 L520 46 C491 54 461 77 461 109 L461 329 C461 447 383 510 269 510 C210 510 150 504 96 478 L86 375 C130 403 187 418 239 418 C293 418 345 388 345 329 L345 298 C233 284 52 275 52 122 C52 30 128 -14 212 -14 C273 -14 326 -1 353 60 C364 15 410 -14 455 -14 C465 -14 476 -12 485 -8 L485 -8 Z M345 229 L345 129 C322 88 288 66 240 66 C198 66 167 94 167 137 C167 177 198 202 235 209 L345 229 Z M112 650 C112 617 138 591 171 591 C203 591 230 617 230 650 C230 683 203 709 171 709 C138 709 112 683 112 650 L112 650 Z M302 650 C302 617 328 591 361 591 C393 591 420 617 420 650 C420 683 393 709 361 709 C328 709 302 683 302 650 L302 650 Z " />
<glyph glyph-name="aring" unicode="&#xe5;" horiz-adv-x="540" d="M485 -8 L520 46 C491 54 461 77 461 109 L461 329 C461 447 383 510 269 510 C210 510 150 504 96 478 L86 375 C130 403 187 418 239 418 C293 418 345 388 345 329 L345 298 C233 284 52 275 52 122 C52 30 128 -14 212 -14 C273 -14 326 -1 353 60 C364 15 410 -14 455 -14 C465 -14 476 -12 485 -8 L485 -8 Z M345 229 L345 129 C322 88 288 66 240 66 C198 66 167 94 167 137 C167 177 198 202 235 209 L345 229 Z M270 562 C342 562 400 620 400 692 C400 764 342 822 270 822 C198 822 140 764 140 692 C140 620 198 562 270 562 L270 562 Z M270 755 C305 755 334 727 334 692 C334 657 305 628 270 628 C235 628 206 657 206 692 C206 728 235 755 270 755 L270 755 Z " />
<glyph glyph-name="ae" unicode="&#xe6;" horiz-adv-x="826" d="M348 228 L348 128 C325 87 291 66 244 66 C202 66 167 93 167 137 C167 177 201 203 237 210 C274 217 311 222 348 228 L348 228 Z M763 229 C771 262 774 297 774 331 C774 444 695 510 585 510 C523 510 467 487 425 441 C397 494 324 510 269 510 C210 510 149 503 96 478 L86 375 C130 403 187 418 239 418 C295 418 348 387 348 326 L348 298 C235 286 50 281 50 126 C50 35 128 -14 212 -14 C296 -14 345 -5 391 72 C435 9 508 -14 582 -14 C638 -14 695 -14 747 11 L761 123 C702 101 660 92 596 92 C521 92 467 141 467 218 L467 229 L763 229 Z M477 306 C485 363 520 414 582 414 C628 414 664 386 664 338 C664 327 664 317 662 306 L477 306 Z " />
<glyph glyph-name="ccedilla" unicode="&#xe7;" horiz-adv-x="491" d="M436 11 L450 112 C409 93 362 90 317 90 C221 90 183 153 183 242 C183 331 221 413 321 413 C364 413 408 407 445 385 L432 486 C388 508 338 510 290 510 C130 510 60 376 60 232 C60 100 117 12 252 -9 L207 -105 C232 -105 288 -109 288 -144 C288 -161 270 -172 255 -172 C232 -172 208 -168 186 -161 L157 -221 C188 -242 226 -249 263 -249 C327 -249 376 -206 376 -141 C376 -98 345 -65 303 -58 L325 -14 C363 -14 403 -11 436 11 L436 11 Z " />
<glyph glyph-name="egrave" unicode="&#xe8;" horiz-adv-x="522" d="M463 229 C471 262 474 297 474 331 C474 444 395 510 285 510 C123 510 50 361 50 218 C50 74 138 -14 282 -14 C338 -14 395 -14 447 11 L460 118 C401 96 358 87 295 87 C214 87 164 136 164 218 L164 229 L463 229 Z M177 306 C185 363 220 414 282 414 C328 414 364 386 364 338 C364 327 364 317 362 306 L177 306 Z M315 597 L213 788 L121 741 L258 568 L315 597 Z " />
<glyph glyph-name="eacute" unicode="&#xe9;" horiz-adv-x="522" d="M463 229 C471 262 474 297 474 331 C474 444 395 510 285 510 C123 510 50 361 50 218 C50 74 138 -14 282 -14 C338 -14 395 -14 447 11 L460 118 C401 96 358 87 295 87 C214 87 164 136 164 218 L164 229 L463 229 Z M177 306 C185 363 220 414 282 414 C328 414 364 386 364 338 C364 327 364 317 362 306 L177 306 Z M255 597 L357 788 L449 741 L312 568 L255 597 Z " />
<glyph glyph-name="ecircumflex" unicode="&#xea;" horiz-adv-x="522" d="M463 229 C471 262 474 297 474 331 C474 444 395 510 285 510 C123 510 50 361 50 218 C50 74 138 -14 282 -14 C338 -14 395 -14 447 11 L460 118 C401 96 358 87 295 87 C214 87 164 136 164 218 L164 229 L463 229 Z M177 306 C185 363 220 414 282 414 C328 414 364 386 364 338 C364 327 364 317 362 306 L177 306 Z M338 772 L240 772 L154 596 L205 568 L289 691 L374 568 L428 594 L338 772 Z " />
<glyph glyph-name="edieresis" unicode="&#xeb;" horiz-adv-x="522" d="M463 229 C471 262 474 297 474 331 C474 444 395 510 285 510 C123 510 50 361 50 218 C50 74 138 -14 282 -14 C338 -14 395 -14 447 11 L460 118 C401 96 358 87 295 87 C214 87 164 136 164 218 L164 229 L463 229 Z M177 306 C185 363 220 414 282 414 C328 414 364 386 364 338 C364 327 364 317 362 306 L177 306 Z M117 650 C117 617 144 591 176 591 C209 591 235 617 235 650 C235 683 209 709 176 709 C144 709 117 683 117 650 L117 650 Z M307 650 C307 617 334 591 366 591 C399 591 425 617 425 650 C425 683 399 709 366 709 C334 709 307 683 307 650 L307 650 Z " />
<glyph glyph-name="igrave" unicode="&#xec;" horiz-adv-x="282" d="M195 597 L93 788 L1 741 L138 568 L195 597 Z M83 0 L202 0 L202 509 L83 480 L83 0 Z " />
<glyph glyph-name="iacute" unicode="&#xed;" horiz-adv-x="281" d="M101 597 L203 788 L295 741 L158 568 L101 597 Z M83 0 L202 0 L202 509 L83 480 L83 0 Z " />
<glyph glyph-name="icircumflex" unicode="&#xee;" horiz-adv-x="278" d="M187 772 L89 772 L2 596 L54 568 L138 691 L223 568 L276 594 L187 772 Z M83 0 L202 0 L202 509 L83 480 L83 0 Z " />
<glyph glyph-name="idieresis" unicode="&#xef;" horiz-adv-x="280" d="M-20 650 C-20 617 7 591 39 591 C72 591 98 617 98 650 C98 683 72 709 39 709 C7 709 -20 683 -20 650 L-20 650 Z M170 650 C170 617 197 591 229 591 C262 591 288 617 288 650 C288 683 262 709 229 709 C197 709 170 683 170 650 L170 650 Z M77 0 L196 0 L196 509 L77 480 L77 0 Z " />
<glyph glyph-name="eth" unicode="&#xf0;" horiz-adv-x="578" d="M278 -14 C483 -14 518 171 518 338 C518 459 473 576 378 654 L435 721 L373 767 L315 697 C282 714 232 748 198 764 L148 688 C180 670 223 639 251 620 L189 546 L250 500 L313 576 C349 543 378 505 402 436 C381 454 344 468 311 468 C152 468 60 352 60 198 C60 66 146 -14 278 -14 L278 -14 Z M412 355 C414 345 415 334 415 324 C415 235 405 63 281 63 C202 63 172 140 172 207 C172 291 214 379 309 379 C345 379 381 373 412 355 L412 355 Z " />
<glyph glyph-name="ntilde" unicode="&#xf1;" horiz-adv-x="561" d="M375 0 L492 0 L492 323 C492 423 445 510 333 510 C275 510 224 469 192 423 L178 495 L80 495 L80 0 L196 0 L196 350 C226 385 251 414 301 414 C352 414 375 368 375 323 L375 0 Z M443 638 L443 706 C424 690 384 664 359 664 C311 664 268 697 220 697 C191 697 150 658 132 637 L132 572 C152 587 189 613 214 613 C261 613 308 579 356 579 C386 579 426 615 443 638 L443 638 Z " />
<glyph glyph-name="ograve" unicode="&#xf2;" horiz-adv-x="561" d="M282 -14 C444 -14 511 97 511 247 C511 388 434 510 282 510 C130 510 50 388 50 247 C50 104 129 -14 282 -14 L282 -14 Z M282 407 C373 407 383 317 383 247 C383 173 378 87 282 87 C194 87 176 177 176 247 C176 318 193 407 282 407 L282 407 Z M316 597 L214 788 L122 741 L259 568 L316 597 Z " />
<glyph glyph-name="oacute" unicode="&#xf3;" horiz-adv-x="561" d="M282 -14 C444 -14 511 97 511 247 C511 388 434 510 282 510 C130 510 50 388 50 247 C50 104 129 -14 282 -14 L282 -14 Z M282 407 C373 407 383 317 383 247 C383 173 378 87 282 87 C194 87 176 177 176 247 C176 318 193 407 282 407 L282 407 Z M261 597 L363 788 L455 741 L318 568 L261 597 Z " />
<glyph glyph-name="ocircumflex" unicode="&#xf4;" horiz-adv-x="561" d="M282 -14 C444 -14 511 97 511 247 C511 388 434 510 282 510 C130 510 50 388 50 247 C50 104 129 -14 282 -14 L282 -14 Z M282 407 C373 407 383 317 383 247 C383 173 378 87 282 87 C194 87 176 177 176 247 C176 318 193 407 282 407 L282 407 Z M328 772 L230 772 L143 596 L195 568 L279 691 L364 568 L417 594 L328 772 Z " />
<glyph glyph-name="otilde" unicode="&#xf5;" horiz-adv-x="561" d="M282 -14 C444 -14 511 97 511 247 C511 388 434 510 282 510 C130 510 50 388 50 247 C50 104 129 -14 282 -14 L282 -14 Z M282 407 C373 407 383 317 383 247 C383 173 378 87 282 87 C194 87 176 177 176 247 C176 318 193 407 282 407 L282 407 Z M428 638 L428 706 C409 690 369 664 344 664 C296 664 253 697 205 697 C176 697 135 658 117 637 L117 572 C137 587 174 613 199 613 C246 613 293 579 341 579 C371 579 411 615 428 638 L428 638 Z " />
<glyph glyph-name="odieresis" unicode="&#xf6;" horiz-adv-x="561" d="M282 -14 C444 -14 511 97 511 247 C511 388 434 510 282 510 C130 510 50 388 50 247 C50 104 129 -14 282 -14 L282 -14 Z M282 407 C373 407 383 317 383 247 C383 173 378 87 282 87 C194 87 176 177 176 247 C176 318 193 407 282 407 L282 407 Z M121 650 C121 617 147 591 180 591 C213 591 239 617 239 650 C239 683 213 709 180 709 C147 709 121 683 121 650 L121 650 Z M311 650 C311 617 337 591 370 591 C403 591 429 617 429 650 C429 683 403 709 370 709 C337 709 311 683 311 650 L311 650 Z " />
<glyph glyph-name="divide" unicode="&#xf7;" horiz-adv-x="527" d="M202 518 C202 481 232 452 268 452 C304 452 334 481 334 518 C334 554 304 584 268 584 C232 584 202 554 202 518 L202 518 Z M202 119 C202 82 232 53 268 53 C304 53 334 82 334 119 C334 155 304 185 268 185 C232 185 202 155 202 119 L202 119 Z M60 277 L468 277 L468 362 L60 362 L60 277 Z " />
<glyph glyph-name="oslash" unicode="&#xf8;" horiz-adv-x="560" d="M282 -14 C444 -14 511 97 511 247 C511 315 493 387 447 439 L514 533 L474 561 L410 472 C372 498 328 510 282 510 C130 510 50 388 50 247 C50 179 68 109 114 57 L38 -49 L76 -77 L149 25 C188 -2 235 -14 282 -14 L282 -14 Z M212 112 L374 337 C382 308 383 277 383 247 C383 174 378 80 282 80 C254 80 230 90 212 112 L212 112 Z M282 416 C308 416 332 408 349 387 L187 160 C178 188 176 218 176 247 C176 317 193 416 282 416 L282 416 Z " />
<glyph glyph-name="ugrave" unicode="&#xf9;" horiz-adv-x="563" d="M311 597 L209 788 L117 741 L254 568 L311 597 Z M194 495 L76 495 L76 162 C76 58 139 -14 246 -14 C307 -14 344 15 372 68 L392 0 L485 0 L485 495 L370 495 L370 154 C347 120 316 88 272 88 C224 88 194 113 194 163 L194 495 Z " />
<glyph glyph-name="uacute" unicode="&#xfa;" horiz-adv-x="563" d="M263 597 L365 788 L457 741 L320 568 L263 597 Z M194 495 L76 495 L76 162 C76 58 139 -14 246 -14 C307 -14 344 15 372 68 L392 0 L485 0 L485 495 L370 495 L370 154 C347 120 316 88 272 88 C224 88 194 113 194 163 L194 495 Z " />
<glyph glyph-name="ucircumflex" unicode="&#xfb;" horiz-adv-x="563" d="M334 772 L236 772 L149 596 L201 568 L285 691 L370 568 L423 594 L334 772 Z M194 495 L76 495 L76 162 C76 58 139 -14 246 -14 C307 -14 344 15 372 68 L392 0 L485 0 L485 495 L370 495 L370 154 C347 120 316 88 272 88 C224 88 194 113 194 163 L194 495 Z " />
<glyph glyph-name="udieresis" unicode="&#xfc;" horiz-adv-x="563" d="M131 650 C131 617 158 591 190 591 C223 591 249 617 249 650 C249 683 223 709 190 709 C158 709 131 683 131 650 L131 650 Z M321 650 C321 617 348 591 380 591 C413 591 439 617 439 650 C439 683 413 709 380 709 C348 709 321 683 321 650 L321 650 Z M194 495 L76 495 L76 162 C76 58 139 -14 246 -14 C307 -14 344 15 372 68 L392 0 L485 0 L485 495 L370 495 L370 154 C347 120 316 88 272 88 C224 88 194 113 194 163 L194 495 Z " />
<glyph glyph-name="yacute" unicode="&#xfd;" horiz-adv-x="510" d="M269 139 C269 157 267 179 261 195 L150 495 L30 495 L211 27 C203 -21 166 -142 106 -142 C81 -142 56 -139 32 -130 L32 -245 C61 -256 94 -261 125 -261 C244 -261 273 -116 304 -30 L491 495 L380 495 L278 195 C272 179 271 156 271 139 L269 139 Z M241 597 L343 788 L435 741 L298 568 L241 597 Z " />
<glyph glyph-name="thorn" unicode="&#xfe;" horiz-adv-x="612" d="M322 -14 C500 -14 543 128 543 279 C543 395 497 510 363 510 C305 510 236 479 205 428 L205 778 L90 721 L90 -260 L205 -220 L205 -6 C244 -11 283 -14 322 -14 L322 -14 Z M320 417 C392 417 423 348 423 285 C423 194 410 65 291 65 C265 65 229 69 205 77 L205 361 C228 395 280 417 320 417 L320 417 Z " />
<glyph glyph-name="ydieresis" unicode="&#xff;" horiz-adv-x="510" d="M269 139 C269 157 267 179 261 195 L150 495 L30 495 L211 27 C203 -21 166 -142 106 -142 C81 -142 56 -139 32 -130 L32 -245 C61 -256 94 -261 125 -261 C244 -261 273 -116 304 -30 L491 495 L380 495 L278 195 C272 179 271 156 271 139 L269 139 Z M106 650 C106 617 132 591 165 591 C198 591 224 617 224 650 C224 683 198 709 165 709 C132 709 106 683 106 650 L106 650 Z M296 650 C296 617 322 591 355 591 C388 591 414 617 414 650 C414 683 388 709 355 709 C322 709 296 683 296 650 L296 650 Z " />
<glyph glyph-name="dotlessi" unicode="&#x131;" horiz-adv-x="286" d="M87 0 L198 0 L198 510 L87 482 L87 0 Z " />
<glyph glyph-name="Lslash" unicode="&#x141;" horiz-adv-x="571" d="M-17 283 L24 212 L98 254 L98 0 L514 0 L514 78 L212 78 L212 320 L333 390 L292 461 L212 415 L212 685 L98 685 L98 350 L-17 283 Z " />
<glyph glyph-name="lslash" unicode="&#x142;" horiz-adv-x="331" d="M-2 354 L39 282 L115 326 L115 91 C115 31 152 -14 214 -14 C230 -14 247 -13 263 -8 L298 47 C254 53 221 71 221 120 L221 387 L347 460 L307 532 L221 483 L221 779 L115 737 L115 421 L-2 354 Z " />
<glyph glyph-name="OE" unicode="&#x152;" horiz-adv-x="931" d="M502 169 C479 108 437 78 371 78 C232 78 183 236 183 351 C183 456 222 613 353 613 C417 613 461 583 489 526 C491 521 502 495 502 492 L502 169 Z M502 -1 L861 -1 L861 78 L616 78 L616 303 L803 303 L803 385 L616 385 L616 605 L861 605 L861 685 L502 685 L502 661 C459 687 409 699 359 699 C157 699 60 526 60 343 C60 163 159 -14 358 -14 C408 -14 458 -5 502 20 L502 -1 Z " />
<glyph glyph-name="oe" unicode="&#x153;" horiz-adv-x="871" d="M282 416 C373 416 383 316 383 247 C383 174 378 80 282 80 C194 80 176 178 176 247 C176 317 193 416 282 416 L282 416 Z M808 229 C816 262 821 295 821 329 C821 442 740 510 630 510 C560 510 500 481 459 424 C417 482 353 510 282 510 C130 510 50 388 50 247 C50 104 129 -14 282 -14 C347 -14 411 5 454 56 C498 7 562 -14 627 -14 C684 -14 744 -11 797 14 L807 115 C748 93 705 84 642 84 C562 84 512 136 512 218 L512 229 L808 229 Z M520 304 C529 367 565 421 634 421 C683 421 711 382 711 336 C711 325 711 315 709 304 L520 304 Z " />
<glyph glyph-name="Scaron" unicode="&#x160;" horiz-adv-x="566" d="M248 -14 C380 -14 498 29 498 182 C498 407 180 376 180 515 C180 597 257 606 321 606 C374 606 426 596 476 581 L476 675 C418 694 357 699 296 699 C175 699 60 642 60 506 C60 293 380 305 380 180 C380 94 294 76 225 76 C170 76 116 87 65 106 L65 14 C123 -12 185 -14 248 -14 L248 -14 Z M343 779 L245 779 L148 955 L200 983 L294 860 L389 983 L442 957 L343 779 Z " />
<glyph glyph-name="scaron" unicode="&#x161;" horiz-adv-x="478" d="M220 -14 C325 -14 409 21 409 140 C409 325 184 285 184 364 C184 403 214 415 248 415 C298 415 347 405 395 392 L395 487 C346 504 293 510 241 510 C144 510 64 462 64 356 C64 175 292 223 292 136 C292 91 241 81 206 81 C158 81 110 93 64 107 L64 10 C114 -5 167 -14 220 -14 L220 -14 Z M294 578 L196 578 L109 755 L161 782 L245 659 L330 782 L383 757 L294 578 Z " />
<glyph glyph-name="Ydieresis" unicode="&#x178;" horiz-adv-x="594" d="M316 371 C315 384 313 408 307 419 L165 685 L40 685 L254 299 L254 0 L368 0 L368 299 L564 685 L455 685 L324 419 C318 407 317 384 317 371 L316 371 Z M149 801 C149 769 175 742 208 742 C241 742 267 769 267 801 C267 834 241 860 208 860 C175 860 149 834 149 801 L149 801 Z M339 801 C339 769 365 742 398 742 C431 742 457 769 457 801 C457 834 431 860 398 860 C365 860 339 834 339 801 L339 801 Z " />
<glyph glyph-name="Zcaron" unicode="&#x17d;" horiz-adv-x="554" d="M51 0 L534 0 L534 76 L197 76 C187 76 173 69 164 68 L164 69 C176 72 194 80 201 91 L525 627 L525 685 L50 685 L50 609 L377 609 C390 609 401 616 413 619 L413 618 C405 616 380 605 376 598 L51 57 L51 0 Z M323 769 L225 769 L128 945 L180 973 L274 850 L369 973 L422 947 L323 769 Z " />
<glyph glyph-name="zcaron" unicode="&#x17e;" horiz-adv-x="483" d="M50 0 L443 0 L443 84 L202 84 C189 84 184 78 173 75 L173 77 C187 82 203 94 210 105 L424 433 L424 495 L59 495 L59 412 L273 412 C286 412 300 416 313 419 L313 417 C300 416 278 404 271 393 L50 60 L50 0 Z M294 568 L196 568 L109 745 L161 772 L245 649 L330 772 L383 747 L294 568 Z " />
<glyph glyph-name="florin" unicode="&#x192;" horiz-adv-x="451" d="M442 557 L454 634 C421 647 387 655 351 655 C232 655 175 574 164 465 L156 388 L65 365 L56 315 L148 315 L85 -260 L189 -243 L248 315 L371 315 L385 388 L256 388 C264 457 268 572 364 572 C394 572 415 570 442 557 L442 557 Z " />
<glyph glyph-name="circumflex" unicode="&#x2c6;" horiz-adv-x="414" d="M255 684 L157 684 L70 508 L122 480 L206 603 L291 480 L344 506 L255 684 Z " />
<glyph glyph-name="caron" unicode="&#x2c7;" horiz-adv-x="414" d="M255 490 L157 490 L70 666 L122 694 L206 571 L291 694 L344 668 L255 490 Z " />
<glyph glyph-name="breve" unicode="&#x2d8;" horiz-adv-x="326" d="M163 555 C240 555 282 612 282 685 L218 685 C219 653 194 632 163 632 C132 632 107 653 108 685 L43 685 C43 612 86 555 163 555 L163 555 Z " />
<glyph glyph-name="dotaccent" unicode="&#x2d9;" horiz-adv-x="247" d="M50 626 C50 585 83 552 124 552 C164 552 197 585 197 626 C197 667 164 700 124 700 C83 700 50 667 50 626 L50 626 Z " />
<glyph glyph-name="ring" unicode="&#x2da;" horiz-adv-x="367" d="M183 453 C252 453 307 508 307 576 C307 644 252 700 183 700 C115 700 60 645 60 576 C60 507 115 453 183 453 L183 453 Z M183 636 C217 636 244 609 244 576 C244 543 217 515 183 515 C150 515 123 542 123 576 C123 610 150 636 183 636 L183 636 Z " />
<glyph glyph-name="ogonek" unicode="&#x2db;" horiz-adv-x="307" d="M179 -213 C211 -213 243 -203 269 -185 L242 -128 C224 -136 205 -145 184 -145 C167 -145 153 -130 153 -113 C153 -77 191 -51 217 -32 L181 4 C133 -19 70 -52 70 -113 C70 -179 116 -213 179 -213 L179 -213 Z " />
<glyph glyph-name="tilde" unicode="&#x2dc;" horiz-adv-x="464" d="M394 636 L394 703 C375 688 324 650 301 650 C247 650 220 700 163 700 C138 700 89 656 71 637 L71 574 C89 588 135 620 157 620 C208 620 237 574 296 574 C336 574 368 611 394 636 L394 636 Z " />
<glyph glyph-name="hungarumlaut" unicode="&#x2dd;" horiz-adv-x="518" d="M106 476 L268 640 L192 701 L50 523 L106 476 Z M305 476 L468 640 L391 701 L249 523 L305 476 Z " />
<glyph glyph-name="pi" unicode="&#x3c0;" horiz-adv-x="726" d="M605 57 C570 57 542 81 542 117 L542 412 L652 412 L652 495 L70 495 L70 412 L186 412 L186 0 L279 0 L279 412 L449 412 L449 117 C449 29 508 -14 592 -14 C617 -14 642 -6 666 -1 L666 71 C646 66 626 57 605 57 L605 57 Z " />
<glyph glyph-name="endash" unicode="&#x2013;" horiz-adv-x="485" d="M40 217 L445 217 L445 301 L40 301 L40 217 Z " />
<glyph glyph-name="emdash" unicode="&#x2014;" horiz-adv-x="995" d="M-6 217 L1001 217 L1001 301 L-6 301 L-6 217 Z " />
<glyph glyph-name="quoteleft" unicode="&#x2018;" horiz-adv-x="302" d="M176 697 C122 645 70 533 70 458 C70 415 105 380 148 380 C191 380 226 415 226 458 C226 526 169 512 169 566 C169 602 201 648 220 678 L176 697 Z " />
<glyph glyph-name="quoteright" unicode="&#x2019;" horiz-adv-x="302" d="M120 380 C174 432 226 544 226 619 C226 662 191 697 148 697 C105 697 70 662 70 619 C70 551 127 565 127 511 C127 475 95 429 76 399 L120 380 Z " />
<glyph glyph-name="quotesinglbase" unicode="&#x201a;" horiz-adv-x="270" d="M115 -216 C175 -138 216 -41 216 59 C216 99 183 133 142 133 C101 133 68 99 68 59 C68 -5 122 7 122 -44 C122 -98 104 -154 74 -198 L115 -216 Z " />
<glyph glyph-name="quotedblleft" unicode="&#x201c;" horiz-adv-x="536" d="M186 697 C132 645 80 533 80 458 C80 415 115 380 158 380 C201 380 236 415 236 458 C236 526 179 512 179 566 C179 602 211 648 230 678 L186 697 Z M406 697 C352 645 300 533 300 458 C300 415 335 380 378 380 C421 380 456 415 456 458 C456 526 399 512 399 566 C399 602 431 648 450 678 L406 697 Z " />
<glyph glyph-name="quotedblright" unicode="&#x201d;" horiz-adv-x="536" d="M350 380 C404 432 456 544 456 619 C456 662 421 697 378 697 C335 697 300 662 300 619 C300 551 357 565 357 511 C357 475 325 429 306 399 L350 380 Z M130 380 C184 432 236 544 236 619 C236 662 201 697 158 697 C115 697 80 662 80 619 C80 551 137 565 137 511 C137 475 105 429 86 399 L130 380 Z " />
<glyph glyph-name="quotedblbase" unicode="&#x201e;" horiz-adv-x="490" d="M115 -216 C175 -138 216 -41 216 59 C216 99 183 133 142 133 C101 133 68 99 68 59 C68 -5 122 7 122 -44 C122 -98 104 -154 74 -198 L115 -216 Z M335 -216 C395 -138 436 -41 436 59 C436 99 403 133 362 133 C321 133 288 99 288 59 C288 -5 342 7 342 -44 C342 -98 324 -154 294 -198 L335 -216 Z " />
<glyph glyph-name="dagger" unicode="&#x2020;" horiz-adv-x="570" d="M349 -200 L339 434 L520 424 L520 521 L339 511 L349 721 L226 721 L236 511 L50 521 L50 424 L236 434 L226 -200 L349 -200 Z " />
<glyph glyph-name="daggerdbl" unicode="&#x2021;" horiz-adv-x="566" d="M336 10 L508 0 L508 92 L336 83 L336 412 L508 403 L508 495 L336 486 L346 685 L229 685 L238 486 L62 495 L62 403 L238 412 L238 83 L67 92 L67 0 L238 10 L229 -190 L346 -190 L336 10 Z " />
<glyph glyph-name="bullet" unicode="&#x2022;" horiz-adv-x="371" d="M80 352 C80 294 128 246 186 246 C244 246 291 294 291 352 C291 410 244 457 186 457 C128 457 80 410 80 352 L80 352 Z " />
<glyph glyph-name="ellipsis" unicode="&#x2026;" horiz-adv-x="764" d="M68 64 C68 23 101 -10 142 -10 C183 -10 216 23 216 64 C216 105 183 138 142 138 C101 138 68 105 68 64 L68 64 Z M315 64 C315 23 348 -10 389 -10 C430 -10 463 23 463 64 C463 105 430 138 389 138 C348 138 315 105 315 64 L315 64 Z M562 64 C562 23 595 -10 636 -10 C677 -10 710 23 710 64 C710 105 677 138 636 138 C595 138 562 105 562 64 L562 64 Z " />
<glyph glyph-name="perthousand" unicode="&#x2030;" horiz-adv-x="1208" d="M646 662 L542 662 L211 0 L314 0 L646 662 Z M340 489 C340 582 298 662 195 662 C96 662 50 579 50 489 C50 403 101 317 195 317 C298 317 340 396 340 489 L340 489 Z M237 489 C237 459 237 404 195 404 C153 404 153 459 153 489 C153 519 153 576 195 576 C236 576 237 518 237 489 L237 489 Z M798 159 C798 252 756 332 653 332 C554 332 508 249 508 159 C508 73 559 -13 653 -13 C757 -13 798 66 798 159 L798 159 Z M695 159 C695 129 696 74 653 74 C611 74 611 129 611 159 C611 189 611 246 653 246 C694 246 695 188 695 159 L695 159 Z M1158 159 C1158 252 1116 332 1013 332 C914 332 868 249 868 159 C868 73 919 -13 1013 -13 C1117 -13 1158 66 1158 159 L1158 159 Z M1055 159 C1055 129 1056 74 1013 74 C971 74 971 129 971 159 C971 189 971 246 1013 246 C1054 246 1055 188 1055 159 L1055 159 Z " />
<glyph glyph-name="guilsinglleft" unicode="&#x2039;" horiz-adv-x="423" d="M301 6 L363 68 L210 250 L363 434 L299 496 L70 250 L301 6 Z " />
<glyph glyph-name="guilsinglright" unicode="&#x203a;" horiz-adv-x="423" d="M123 6 L60 68 L214 250 L60 434 L124 496 L353 250 L123 6 Z " />
<glyph glyph-name="fraction" unicode="&#x2044;" horiz-adv-x="454" d="M163 0 L407 685 L305 685 L60 0 L163 0 Z " />
<glyph glyph-name="trademark" unicode="&#x2122;" horiz-adv-x="924" d="M654 459 C654 470 654 477 649 486 L548 685 L483 685 L436 334 L511 334 L536 507 C537 511 537 515 537 519 C537 522 536 510 536 528 C537 522 539 512 541 507 L625 333 L682 333 L755 503 C759 511 761 516 762 525 C762 520 761 515 761 509 C761 507 761 504 761 502 L785 333 L874 333 L820 685 L758 685 L659 487 C655 480 654 468 654 459 L654 459 Z M280 621 L397 621 L397 685 L71 685 L71 621 L188 621 L188 334 L280 334 L280 621 Z " />
<glyph glyph-name="Omega" unicode="&#x2126;" horiz-adv-x="868" d="M498 0 L808 0 L808 74 L666 74 C752 150 804 252 804 368 C804 575 641 735 435 735 C229 735 66 575 66 368 C66 252 115 150 202 74 L60 74 L60 0 L370 0 L370 68 C234 121 162 228 162 374 C162 530 279 649 436 649 C593 649 708 530 708 374 C708 228 634 121 498 68 L498 0 Z " />
<glyph glyph-name="partialdiff" unicode="&#x2202;" horiz-adv-x="581" d="M268 -15 C485 -15 526 229 526 385 C526 551 472 696 281 696 C220 696 163 665 120 623 L184 549 C215 580 257 600 301 600 C383 600 425 520 426 447 C255 457 66 366 66 171 C66 42 165 -15 268 -15 L268 -15 Z M170 171 C170 293 289 373 402 373 L430 373 C430 273 410 71 274 71 C214 71 170 109 170 171 L170 171 Z " />
<glyph glyph-name="Delta" unicode="&#x2206;" horiz-adv-x="791" d="M40 0 L751 0 L395 697 L40 0 Z M385 504 L608 68 L157 68 L385 504 Z " />
<glyph glyph-name="product" unicode="&#x220f;" horiz-adv-x="805" d="M615 -241 L715 -241 L715 685 L90 685 L90 -241 L188 -241 L188 600 L615 600 L615 -241 Z " />
<glyph glyph-name="summation" unicode="&#x2211;" horiz-adv-x="671" d="M70 -250 L601 -250 L601 -172 L179 -172 L426 210 L182 610 L601 610 L601 685 L70 685 L70 632 L330 211 L70 -189 L70 -250 Z " />
<glyph glyph-name="minus" unicode="&#x2212;" horiz-adv-x="509" d="M429 367 L80 367 L80 278 L429 278 L429 367 Z " />
<glyph glyph-name="radical" unicode="&#x221a;" horiz-adv-x="663" d="M623 781 L547 781 L376 195 C372 181 368 165 368 150 L367 150 C367 164 363 181 359 195 L262 510 L60 469 L82 401 L199 425 L328 0 L391 0 L623 781 Z " />
<glyph glyph-name="infinity" unicode="&#x221e;" horiz-adv-x="723" d="M503 105 C596 105 663 154 663 247 C663 337 598 394 503 394 C440 394 400 371 365 333 C326 375 285 394 217 394 C120 394 60 336 60 248 C60 164 125 105 217 105 C286 105 319 125 359 171 C397 128 445 105 503 105 L503 105 Z M503 304 C544 304 571 282 571 247 C571 214 542 195 503 195 C472 195 441 223 420 254 C440 284 466 304 503 304 L503 304 Z M217 304 C252 304 280 281 300 248 C278 217 251 195 217 195 C177 195 152 216 152 248 C152 283 175 304 217 304 L217 304 Z " />
<glyph glyph-name="integral" unicode="&#x222b;" horiz-adv-x="364" d="M-28 -162 L-28 -246 C0 -255 26 -261 55 -261 C207 -261 240 -196 240 -55 L240 579 C240 644 245 717 329 717 C353 717 377 711 398 701 L398 785 C370 795 347 800 316 800 C173 800 131 704 131 579 L131 -55 C131 -124 124 -178 41 -178 C16 -178 -6 -171 -28 -162 L-28 -162 Z " />
<glyph glyph-name="approxequal" unicode="&#x2248;" horiz-adv-x="600" d="M409 275 C466 275 515 317 540 366 L504 407 C480 383 449 363 414 363 C337 363 270 417 193 417 C134 417 87 373 61 323 L98 283 C122 306 153 325 187 325 C264 325 332 275 409 275 L409 275 Z M408 114 C466 114 514 157 539 206 L503 246 C479 223 448 203 413 203 C336 203 270 256 193 256 C134 256 86 213 60 163 L97 121 C121 144 151 164 186 164 C263 164 331 114 408 114 L408 114 Z " />
<glyph glyph-name="notequal" unicode="&#x2260;" horiz-adv-x="601" d="M70 405 L302 405 L247 290 L70 290 L70 195 L202 195 L147 80 L206 80 L261 195 L531 195 L531 290 L307 290 L362 405 L531 405 L531 500 L407 500 L465 620 L405 620 L348 500 L70 500 L70 405 Z " />
<glyph glyph-name="lessequal" unicode="&#x2264;" horiz-adv-x="584" d="M60 395 L476 167 L476 273 L196 436 L476 591 L476 697 L60 477 L60 395 Z M90 1 L459 1 L459 96 L90 96 L90 1 Z " />
<glyph glyph-name="greaterequal" unicode="&#x2265;" horiz-adv-x="584" d="M94 166 L510 394 L510 476 L94 696 L94 590 L374 435 L94 272 L94 166 Z M111 0 L480 0 L480 95 L111 95 L111 0 Z " />
<glyph glyph-name="lozenge" unicode="&#x25ca;" horiz-adv-x="493" d="M273 0 L443 325 L273 650 L210 650 L50 325 L210 0 L273 0 Z M244 539 L354 325 L244 111 L138 325 L244 539 Z " />
<glyph glyph-name="fi" unicode="&#xfb01;" horiz-adv-x="640" d="M434 0 L549 0 L549 509 L434 482 L434 0 Z M425 645 C434 629 453 604 489 604 C532 604 561 637 561 676 C561 758 431 778 336 778 C216 778 139 696 139 580 L139 495 L40 477 L40 412 L139 412 L139 0 L256 0 L256 412 L356 412 L386 495 L256 495 L256 578 C256 637 282 676 347 676 C394 676 417 662 425 645 L425 645 Z " />
<glyph glyph-name="fl" unicode="&#xfb02;" horiz-adv-x="663" d="M620 -8 L655 47 C623 51 579 69 579 108 L579 779 L502 751 C446 773 387 778 327 778 C207 778 139 696 139 580 L139 495 L40 477 L40 420 L139 420 L139 0 L250 0 L250 420 L368 420 L400 495 L250 495 L250 578 C250 639 277 700 347 700 C386 700 427 694 463 676 L463 90 C463 29 511 -14 571 -14 C587 -14 604 -13 620 -8 L620 -8 Z " />
</font>
</svg>
