<?xml version="1.0" encoding="UTF-8"?>
<svg xmlns="http://www.w3.org/2000/svg" xmlns:xlink="http://www.w3.org/1999/xlink" version="1.2" >
<font id="LisboaSansLF-Regular">
<font-face  font-family="Lisboa Sans LF" units-per-em="1000" ascent="750" descent="-250" font-style="normal" font-weight="400" font-stretch="normal" cap-height="750" x-height="500" underline-position="-123" underline-thickness="20" />
<missing-glyph  horiz-adv-x="210" d="" />
<glyph glyph-name="NULL" horiz-adv-x="500" d="" />
<glyph glyph-name="CR" unicode="&#xd;" horiz-adv-x="500" d="" />
<glyph glyph-name="space" unicode="&#x20;" horiz-adv-x="210" d="" />
<glyph glyph-name="exclam" unicode="&#x21;" horiz-adv-x="307" d="M186 200 L195 685 L101 685 L111 190 L186 200 Z M143 -15 C179 -15 208 14 208 50 C208 86 179 115 143 115 C107 115 79 86 79 50 C79 14 107 -15 143 -15 L143 -15 Z " />
<glyph glyph-name="quotedbl" unicode="&#x22;" horiz-adv-x="386" d="M94 468 L153 468 L166 685 L80 685 L94 468 Z M234 468 L293 468 L306 685 L220 685 L234 468 Z " />
<glyph glyph-name="numbersign" unicode="&#x23;" horiz-adv-x="693" d="M473 388 L609 388 L609 444 L486 444 L530 664 L463 664 L418 444 L295 444 L339 664 L272 664 L227 444 L92 444 L92 388 L214 388 L191 272 L65 272 L65 214 L180 214 L139 0 L207 0 L248 214 L371 214 L330 0 L398 0 L439 214 L573 214 L573 272 L450 272 L473 388 Z M282 388 L405 388 L382 272 L259 272 L282 388 Z " />
<glyph glyph-name="dollar" unicode="&#x24;" horiz-adv-x="587" d="M324 -11 C433 0 517 44 517 165 C517 285 421 329 324 366 L324 604 C376 603 427 595 477 584 L477 656 C426 666 375 674 324 677 L324 766 L270 766 L270 678 C164 673 73 604 73 492 C73 374 176 334 270 298 L270 61 C206 57 146 74 85 91 L85 16 C145 1 207 -13 270 -14 L270 -117 L324 -117 L324 -11 Z M270 601 L270 388 C223 407 166 436 166 495 C166 558 213 591 270 601 L270 601 Z M324 276 C373 254 421 223 421 163 C421 103 378 79 324 68 L324 276 Z " />
<glyph glyph-name="percent" unicode="&#x25;" horiz-adv-x="800" d="M593 -14 C683 -14 730 63 730 146 C730 234 692 316 593 316 C498 316 455 237 455 151 C455 69 503 -14 593 -14 L593 -14 Z M264 -1 L608 684 L537 684 L193 -1 L264 -1 Z M208 369 C298 369 345 446 345 529 C345 617 307 699 208 699 C113 699 70 620 70 534 C70 452 118 369 208 369 L208 369 Z M593 259 C644 259 645 187 645 151 C645 116 642 44 593 44 C544 44 539 115 539 151 C539 187 542 259 593 259 L593 259 Z M208 642 C259 642 261 570 261 534 C261 499 257 427 208 427 C159 427 155 498 155 534 C155 570 157 642 208 642 L208 642 Z " />
<glyph glyph-name="ampersand" unicode="&#x26;" horiz-adv-x="645" d="M519 0 L628 0 C590 48 552 96 512 143 C556 225 575 263 575 359 L575 364 L515 364 C511 289 492 260 459 196 L318 371 C384 409 438 464 438 545 C438 636 374 699 283 699 C190 699 120 638 120 543 C120 482 158 429 196 384 C119 337 60 267 60 173 C60 53 153 -14 267 -14 C349 -14 404 9 459 70 L519 0 Z M283 629 C328 629 353 592 353 550 C353 491 320 455 273 425 C243 460 207 500 207 549 C207 594 236 629 283 629 L283 629 Z M237 333 L408 123 C373 78 332 58 275 58 C206 58 154 109 154 178 C154 246 183 294 237 333 L237 333 Z " />
<glyph glyph-name="quotesingle" unicode="&#x27;" horiz-adv-x="246" d="M94 468 L153 468 L166 685 L80 685 L94 468 Z " />
<glyph glyph-name="parenleft" unicode="&#x28;" horiz-adv-x="384" d="M316 -233 L342 -187 C185 -72 169 109 169 280 C169 456 184 644 344 751 L316 794 C127 697 70 472 70 280 C70 86 124 -135 316 -233 L316 -233 Z " />
<glyph glyph-name="parenright" unicode="&#x29;" horiz-adv-x="384" d="M68 794 L42 748 C199 633 215 452 215 281 C215 105 200 -83 40 -190 L68 -233 C257 -136 314 89 314 281 C314 475 260 696 68 794 L68 794 Z " />
<glyph glyph-name="asterisk" unicode="&#x2a;" horiz-adv-x="435" d="M274 509 L392 555 L360 614 L255 565 L258 685 L190 685 L193 565 L87 614 L56 555 L176 506 L93 412 L142 371 L227 473 L306 371 L356 413 L274 509 Z " />
<glyph glyph-name="plus" unicode="&#x2b;" horiz-adv-x="566" d="M330 289 L509 289 L509 362 L330 362 L330 554 L252 554 L252 362 L72 362 L72 289 L252 289 L252 95 L330 95 L330 289 Z " />
<glyph glyph-name="comma" unicode="&#x2c;" horiz-adv-x="243" d="M105 -195 C153 -147 190 -23 190 44 C190 78 163 108 128 108 C93 108 66 78 66 44 C66 -7 110 1 110 -56 C110 -92 85 -147 64 -176 L105 -195 Z " />
<glyph glyph-name="hyphen" unicode="&#x2d;" horiz-adv-x="405" d="M70 205 L335 205 L335 283 L70 283 L70 205 Z " />
<glyph glyph-name="period" unicode="&#x2e;" horiz-adv-x="247" d="M129 -14 C165 -14 194 15 194 51 C194 87 165 116 129 116 C93 116 64 87 64 51 C64 15 93 -14 129 -14 L129 -14 Z " />
<glyph glyph-name="slash" unicode="&#x2f;" horiz-adv-x="378" d="M355 699 L279 699 L-11 -139 L69 -139 L355 699 Z " />
<glyph glyph-name="zero" unicode="0" horiz-adv-x="600" d="M300 -14 C488 -14 540 171 540 326 C540 480 485 666 300 666 C115 666 60 480 60 326 C60 171 112 -14 300 -14 L300 -14 Z M298 600 C418 600 447 417 447 326 C447 230 427 59 299 59 C171 59 153 231 153 326 C153 416 177 600 298 600 L298 600 Z " />
<glyph glyph-name="one" unicode="1" horiz-adv-x="342" d="M262 665 L250 665 C177 639 127 619 50 611 L50 558 C100 560 122 562 171 574 L171 1 L262 1 L262 665 Z " />
<glyph glyph-name="two" unicode="2" horiz-adv-x="535" d="M474 0 L495 75 L178 75 C312 176 432 301 432 483 C432 599 342 665 231 665 C179 665 129 652 86 622 L77 537 C121 567 172 587 226 587 C286 587 338 548 338 486 C338 300 193 171 60 68 L60 0 L474 0 Z " />
<glyph glyph-name="three" unicode="3" horiz-adv-x="495" d="M187 -14 C321 -14 433 31 433 185 C433 246 408 305 354 338 C391 374 413 425 413 477 C413 586 335 665 223 665 C169 665 122 652 78 621 L67 534 C113 566 155 588 212 588 C275 588 321 538 321 478 C321 431 297 374 242 374 L149 374 L142 291 L242 291 C303 291 341 251 341 191 C341 87 262 61 173 61 C140 61 107 66 75 75 L60 14 C100 -3 143 -14 187 -14 L187 -14 Z " />
<glyph glyph-name="four" unicode="4" horiz-adv-x="643" d="M574 176 L597 247 L452 247 L452 650 L369 650 L70 235 L70 176 L366 176 L366 0 L452 0 L452 176 L574 176 Z M366 530 L366 247 L159 247 L366 530 Z " />
<glyph glyph-name="five" unicode="5" horiz-adv-x="520" d="M196 -14 C337 -14 456 40 456 200 C456 348 347 413 211 413 C202 413 171 414 162 414 L175 573 L430 573 L443 649 L97 649 L73 333 C111 335 170 333 208 333 C288 333 363 300 363 209 C363 100 285 60 187 60 C149 60 101 66 65 77 L60 15 C99 -3 152 -14 196 -14 L196 -14 Z " />
<glyph glyph-name="six" unicode="6" horiz-adv-x="570" d="M288 -14 C420 -14 510 65 510 198 C510 324 426 394 300 394 C249 394 198 368 158 337 C168 470 218 588 372 588 C407 588 442 579 474 564 L453 646 C434 654 396 661 366 661 C117 661 60 442 60 236 C60 99 142 -14 288 -14 L288 -14 Z M284 312 C374 312 416 273 416 189 C416 112 372 60 290 60 C194 60 153 157 153 238 C153 247 154 255 154 264 C189 295 237 312 284 312 L284 312 Z " />
<glyph glyph-name="seven" unicode="7" horiz-adv-x="491" d="M197 -14 L451 595 L451 649 L43 649 L30 573 L361 573 L114 22 L197 -14 Z " />
<glyph glyph-name="eight" unicode="8" horiz-adv-x="552" d="M269 -14 C375 -14 486 36 486 157 C486 236 413 294 353 333 C409 372 468 433 468 506 C468 603 366 665 278 665 C182 665 80 607 80 501 C80 425 148 372 206 336 C141 296 70 228 70 146 C70 37 172 -14 269 -14 L269 -14 Z M279 596 C332 596 384 559 384 503 C384 448 330 401 285 378 C237 408 174 446 174 510 C174 564 231 596 279 596 L279 596 Z M273 292 C319 266 394 212 394 153 C394 81 334 54 270 54 C213 54 155 90 155 152 C155 216 222 266 273 292 L273 292 Z " />
<glyph glyph-name="nine" unicode="9" horiz-adv-x="561" d="M206 -14 C438 -14 501 204 501 396 C501 555 437 665 276 665 C153 665 60 584 60 458 C60 329 145 260 269 260 C319 260 368 281 404 315 C388 192 348 60 198 60 C164 60 130 65 97 76 L83 12 C121 -6 165 -14 206 -14 L206 -14 Z M276 592 C385 592 409 496 409 408 C409 402 409 387 408 381 C375 350 329 332 283 332 C204 332 152 379 152 460 C152 533 199 592 276 592 L276 592 Z " />
<glyph glyph-name="colon" unicode="&#x3a;" horiz-adv-x="252" d="M134 -14 C170 -14 199 15 199 51 C199 87 170 116 134 116 C98 116 69 87 69 51 C69 15 98 -14 134 -14 L134 -14 Z M129 326 C165 326 194 355 194 391 C194 427 165 456 129 456 C93 456 64 427 64 391 C64 355 93 326 129 326 L129 326 Z " />
<glyph glyph-name="semicolon" unicode="&#x3b;" horiz-adv-x="243" d="M126 324 C161 324 188 354 188 389 C188 424 161 454 126 454 C91 454 64 424 64 389 C64 354 91 324 126 324 L126 324 Z M105 -195 C153 -147 190 -23 190 44 C190 78 163 108 128 108 C93 108 66 78 66 44 C66 -7 110 1 110 -56 C110 -92 85 -147 64 -176 L105 -195 Z " />
<glyph glyph-name="less" unicode="&#x3c;" horiz-adv-x="552" d="M81 215 L485 -5 L485 69 L175 248 L485 418 L485 493 L81 279 L81 215 Z " />
<glyph glyph-name="equal" unicode="&#x3d;" horiz-adv-x="576" d="M70 363 L506 363 L506 442 L70 442 L70 363 Z M70 201 L506 201 L506 280 L70 280 L70 201 Z " />
<glyph glyph-name="greater" unicode="&#x3e;" horiz-adv-x="566" d="M81 -5 L485 215 L485 279 L81 493 L81 418 L391 248 L81 69 L81 -5 Z " />
<glyph glyph-name="question" unicode="&#x3f;" horiz-adv-x="476" d="M238 206 C238 354 420 353 420 529 C420 651 332 699 220 699 C169 699 118 691 69 679 L59 612 C101 623 145 629 188 629 C258 629 332 611 332 525 C332 395 154 368 154 196 L238 206 Z M199 -14 C235 -14 264 15 264 51 C264 87 235 116 199 116 C163 116 135 87 135 51 C135 15 163 -14 199 -14 L199 -14 Z " />
<glyph glyph-name="at" unicode="&#x40;" horiz-adv-x="1023" d="M557 369 C575 369 598 367 615 361 L577 155 C568 106 541 58 485 58 C430 58 408 108 408 156 C408 241 456 369 557 369 L557 369 Z M711 397 C662 422 616 440 560 440 C411 440 314 282 314 146 C314 62 364 -14 454 -14 C508 -14 550 17 568 68 L597 0 L703 0 C893 0 963 149 963 318 C963 521 772 663 580 663 C294 663 60 435 60 148 C60 -67 220 -214 432 -214 C485 -214 539 -209 587 -186 L607 -106 C558 -126 502 -137 449 -137 C261 -137 154 -16 154 168 C154 402 344 586 577 586 C739 586 875 484 875 314 C875 217 836 56 713 56 L650 56 L711 397 Z " />
<glyph glyph-name="A" unicode="A" horiz-adv-x="597" d="M469 0 L567 0 L343 685 L256 685 L30 0 L118 0 L179 184 L408 184 L469 0 Z M298 561 C298 561 299 533 304 519 L390 255 L200 255 L292 519 C296 530 297 561 297 561 L298 561 Z " />
<glyph glyph-name="B" unicode="B" horiz-adv-x="584" d="M301 0 C436 0 524 40 524 189 C524 259 475 330 408 353 C465 380 497 434 497 497 C497 620 398 685 283 685 L100 685 L100 0 L301 0 Z M284 617 C353 617 395 567 395 500 C395 431 359 380 286 380 L193 380 L193 617 L284 617 Z M303 312 C381 312 420 262 420 187 C420 112 380 69 304 69 L193 69 L193 312 L303 312 Z " />
<glyph glyph-name="C" unicode="C" horiz-adv-x="573" d="M377 624 C427 624 475 613 523 601 L523 679 C465 693 406 699 347 699 C145 699 50 528 50 345 C50 160 150 -14 353 -14 C406 -14 458 -7 510 4 L510 86 C471 73 431 61 390 61 C222 61 153 195 153 346 C153 497 205 624 377 624 L377 624 Z " />
<glyph glyph-name="D" unicode="D" horiz-adv-x="675" d="M315 0 C520 0 619 161 619 350 C619 534 509 685 315 685 L100 685 L100 0 L315 0 Z M315 611 C468 611 511 480 511 350 C511 221 471 73 315 73 L193 73 L193 611 L315 611 Z " />
<glyph glyph-name="E" unicode="E" horiz-adv-x="563" d="M100 0 L493 0 L493 71 L194 70 L194 312 L412 312 L412 385 L194 384 L194 614 L490 614 L490 685 L100 685 L100 0 Z " />
<glyph glyph-name="F" unicode="F" horiz-adv-x="550" d="M100 0 L194 0 L194 312 L442 312 L442 385 L194 384 L194 614 L480 614 L480 685 L100 685 L100 0 Z " />
<glyph glyph-name="G" unicode="G" horiz-adv-x="662" d="M367 -14 C440 -14 515 -2 582 28 L582 380 L338 380 L338 303 L489 303 L489 76 C460 67 430 61 399 61 C235 61 163 196 163 344 C163 493 215 624 385 624 C435 624 484 613 532 601 L532 679 C476 691 420 699 363 699 C152 699 60 530 60 339 C60 152 165 -14 367 -14 L367 -14 Z " />
<glyph glyph-name="H" unicode="H" horiz-adv-x="713" d="M518 0 L613 0 L613 685 L518 685 L518 381 L198 381 L198 685 L100 685 L100 0 L198 0 L198 313 L518 313 L518 0 Z " />
<glyph glyph-name="I" unicode="I" horiz-adv-x="291" d="M100 0 L193 0 L193 685 L100 685 L100 0 Z " />
<glyph glyph-name="J" unicode="J" horiz-adv-x="305" d="M55 -200 C143 -159 206 -91 206 10 L206 685 L110 685 L110 10 C110 -57 77 -103 20 -140 L55 -200 Z " />
<glyph glyph-name="K" unicode="K" horiz-adv-x="646" d="M296 348 L596 685 L481 685 L196 348 L473 0 L593 0 L296 348 Z M100 0 L196 0 L196 685 L100 685 L100 0 Z " />
<glyph glyph-name="L" unicode="L" horiz-adv-x="558" d="M100 0 L498 0 L498 71 L194 71 L194 685 L100 685 L100 0 Z " />
<glyph glyph-name="M" unicode="M" horiz-adv-x="818" d="M413 126 C412 139 411 160 407 172 L219 685 L150 685 L50 0 L134 0 L203 466 C205 480 207 494 207 508 L208 508 C208 496 208 477 212 466 L385 0 L439 0 L595 464 C600 478 601 492 602 506 L603 506 C603 497 602 488 602 479 C602 474 602 469 603 464 L683 0 L768 0 L653 685 L585 685 L419 172 C416 162 415 138 414 126 L413 126 Z " />
<glyph glyph-name="N" unicode="N" horiz-adv-x="687" d="M517 0 L587 0 L587 685 L498 685 L498 194 C498 184 500 173 502 163 L500 163 C499 170 495 190 491 196 L169 685 L100 685 L100 0 L189 0 L189 495 C189 501 183 521 181 528 L183 528 C185 521 188 505 192 499 L517 0 Z " />
<glyph glyph-name="O" unicode="O" horiz-adv-x="704" d="M354 -14 C569 -14 644 145 644 337 C644 518 552 699 349 699 C148 699 60 511 60 334 C60 152 153 -14 354 -14 L354 -14 Z M347 628 C505 628 541 456 541 330 C541 215 506 57 362 57 C215 57 164 222 164 343 C164 457 203 628 347 628 L347 628 Z " />
<glyph glyph-name="P" unicode="P" horiz-adv-x="571" d="M276 269 C402 269 501 343 501 477 C501 613 404 685 276 685 L100 685 L100 0 L193 0 L193 269 L276 269 Z M276 616 C361 616 397 558 397 477 C397 400 357 340 276 340 L193 340 L193 616 L276 616 Z " />
<glyph glyph-name="Q" unicode="Q" horiz-adv-x="698" d="M354 -14 C387 -14 421 -10 453 -1 L538 -150 L620 -94 L511 25 C616 90 644 222 644 337 C644 518 551 699 349 699 C148 699 60 511 60 334 C60 152 154 -14 354 -14 L354 -14 Z M347 628 C505 628 541 456 541 330 C541 215 506 57 362 57 C215 57 164 222 164 343 C164 457 203 628 347 628 L347 628 Z " />
<glyph glyph-name="R" unicode="R" horiz-adv-x="617" d="M461 0 L577 0 L374 309 C452 328 494 418 494 492 C494 623 399 685 281 685 L100 685 L100 0 L193 0 L193 299 L279 299 L461 0 Z M271 617 C354 617 392 575 392 493 C392 412 353 367 271 367 L193 367 L193 617 L271 617 Z " />
<glyph glyph-name="S" unicode="S" horiz-adv-x="545" d="M245 -14 C376 -14 485 28 485 178 C485 411 155 356 155 512 C155 593 223 621 294 621 C350 621 404 610 458 594 L458 671 C396 689 333 699 269 699 C159 699 60 625 60 509 C60 279 389 332 389 176 C389 78 294 65 215 65 C167 65 110 79 65 95 L65 14 C121 -5 186 -14 245 -14 L245 -14 Z " />
<glyph glyph-name="T" unicode="T" horiz-adv-x="605" d="M350 620 L566 620 L566 685 L40 685 L40 620 L253 620 L253 0 L350 0 L350 620 Z " />
<glyph glyph-name="U" unicode="U" horiz-adv-x="695" d="M348 -14 C503 -14 605 64 605 226 L605 685 L513 685 L513 226 C513 124 452 62 350 62 C249 62 183 124 183 226 L183 685 L90 685 L90 226 C90 71 199 -14 348 -14 L348 -14 Z " />
<glyph glyph-name="V" unicode="V" horiz-adv-x="621" d="M367 0 L581 685 L490 685 L332 146 C328 131 327 116 327 101 L325 101 C325 117 325 131 320 146 L134 685 L40 685 L279 0 L367 0 Z " />
<glyph glyph-name="W" unicode="W" horiz-adv-x="821" d="M266 155 L264 155 C263 168 263 182 260 194 L130 685 L40 685 L224 0 L291 0 L411 461 C414 471 413 484 413 495 L415 495 C415 484 416 472 419 461 L547 0 L613 0 L781 685 L698 685 L586 216 C583 203 582 190 582 177 L580 177 C580 190 579 204 576 216 L448 685 L394 685 L270 194 C267 182 266 168 266 155 L266 155 Z " />
<glyph glyph-name="X" unicode="X" horiz-adv-x="560" d="M424 0 L533 0 L324 369 L504 685 L410 685 L278 447 L154 685 L47 685 L229 363 L27 0 L118 0 L277 291 L424 0 Z " />
<glyph glyph-name="Y" unicode="Y" horiz-adv-x="592" d="M346 299 L562 685 L467 685 L311 394 C305 384 305 351 305 351 L303 351 C303 351 302 384 297 394 L130 685 L30 685 L253 299 L253 0 L346 0 L346 299 Z " />
<glyph glyph-name="Z" unicode="Z" horiz-adv-x="554" d="M41 0 L514 0 L514 69 L129 69 C142 69 157 78 160 83 L505 631 L505 685 L51 685 L51 618 L415 618 C402 618 388 610 385 605 L40 47 L41 0 Z " />
<glyph glyph-name="bracketleft" unicode="&#x5b;" horiz-adv-x="318" d="M90 -229 L278 -229 L278 -168 L180 -168 L180 739 L278 739 L278 800 L90 800 L90 -229 Z " />
<glyph glyph-name="backslash" unicode="&#x5c;" horiz-adv-x="420" d="M328 -139 L404 -139 L126 699 L46 699 L328 -139 Z " />
<glyph glyph-name="bracketright" unicode="&#x5d;" horiz-adv-x="318" d="M228 800 L40 800 L40 739 L139 739 L139 -168 L40 -168 L40 -229 L228 -229 L228 800 Z " />
<glyph glyph-name="asciicircum" unicode="&#x5e;" horiz-adv-x="610" d="M474 0 L552 0 L331 485 L268 485 L58 0 L138 0 L301 387 L474 0 Z " />
<glyph glyph-name="underscore" unicode="&#x5f;" horiz-adv-x="525" d="M51 -147 L488 -147 L488 -87 L51 -87 L51 -147 Z " />
<glyph glyph-name="grave" unicode="&#x60;" horiz-adv-x="330" d="M250 520 L155 699 L80 662 L210 498 L250 520 Z " />
<glyph glyph-name="a" unicode="a" horiz-adv-x="515" d="M454 -8 L481 36 C457 41 430 61 430 88 L430 327 C430 429 369 499 265 499 C207 499 145 495 94 463 L89 383 C134 412 187 423 240 423 C300 423 337 385 337 325 L337 287 L213 275 C121 266 50 221 50 121 C50 30 126 -14 209 -14 C266 -14 323 7 344 64 C348 20 379 -14 425 -14 C435 -14 445 -12 454 -8 L454 -8 Z M337 233 L337 136 C337 132 328 116 326 112 C304 76 264 62 224 62 C186 62 149 86 149 127 C149 174 179 200 223 209 L337 233 Z " />
<glyph glyph-name="b" unicode="b" horiz-adv-x="556" d="M290 -14 C460 -14 502 135 502 278 C502 387 436 499 316 499 C255 499 210 469 172 423 L172 761 L80 722 L80 -14 L172 37 C196 2 242 -14 290 -14 L290 -14 Z M300 416 C369 416 405 339 405 279 C405 170 392 63 258 63 C232 63 200 69 172 91 L172 343 C201 383 249 416 300 416 L300 416 Z " />
<glyph glyph-name="c" unicode="c" horiz-adv-x="464" d="M299 421 C336 421 379 411 413 396 L403 478 C367 497 333 499 294 499 L274 499 C123 499 50 352 50 218 C50 80 135 -14 275 -14 C323 -14 357 -5 404 12 L413 101 C372 82 327 71 282 71 C177 71 146 148 146 227 C146 323 190 421 299 421 L299 421 Z " />
<glyph glyph-name="d" unicode="d" horiz-adv-x="562" d="M404 0 L482 0 L482 763 L390 729 L390 480 C357 497 313 499 276 499 C130 499 54 348 54 219 C54 91 127 -14 263 -14 C313 -14 367 2 394 62 C397 41 404 0 404 0 L404 0 Z M390 408 L390 136 C367 92 322 68 273 68 C188 68 156 150 156 222 C156 319 188 425 305 425 C334 425 362 415 390 408 L390 408 Z " />
<glyph glyph-name="e" unicode="e" horiz-adv-x="501" d="M438 234 C444 263 447 292 447 321 C447 428 371 499 265 499 C107 499 50 351 50 216 C50 86 123 -14 260 -14 C318 -14 377 -9 429 17 L436 112 C390 87 334 71 282 71 C192 71 144 125 144 213 L144 234 L438 234 Z M265 418 C329 418 357 387 357 324 C357 316 357 309 355 301 L150 301 C159 366 196 418 265 418 L265 418 Z " />
<glyph glyph-name="f" unicode="f" horiz-adv-x="402" d="M325 678 C344 678 364 674 382 668 L382 743 C360 753 335 757 311 757 C200 757 135 678 135 570 L135 485 L40 460 L40 411 L135 411 L135 0 L229 0 L229 412 L340 412 L360 485 L229 485 L229 570 C229 638 249 678 325 678 L325 678 Z " />
<glyph glyph-name="g" unicode="g" horiz-adv-x="543" d="M268 429 C338 429 380 381 380 313 C380 241 346 188 269 188 C194 188 155 242 155 313 C155 377 203 429 268 429 L268 429 Z M147 -41 L374 -57 C399 -59 431 -65 431 -97 C431 -167 333 -177 281 -177 C224 -177 124 -167 124 -90 C124 -68 131 -55 147 -41 L147 -41 Z M382 472 C349 489 305 499 268 499 C162 499 64 424 64 313 C64 263 81 209 117 173 C82 153 57 112 57 72 C57 38 69 7 95 -15 C59 -32 39 -68 39 -107 C39 -221 184 -247 272 -247 C367 -247 518 -216 518 -95 C518 -10 456 21 380 27 L202 40 C173 42 144 61 144 93 C144 113 147 127 163 141 C190 126 237 119 268 119 C389 119 471 190 471 314 C471 354 455 392 433 425 L536 411 L536 496 L382 472 Z " />
<glyph glyph-name="h" unicode="h" horiz-adv-x="545" d="M376 0 L468 0 L468 314 C468 422 430 499 311 499 C255 499 208 463 173 424 L173 759 L80 726 L80 0 L173 0 L173 347 C206 382 248 419 297 419 C359 419 376 372 376 315 L376 0 Z " />
<glyph glyph-name="i" unicode="i" horiz-adv-x="251" d="M79 0 L174 0 L174 499 L79 466 L79 0 Z M62 635 C62 600 91 571 126 571 C161 571 190 600 190 635 C190 670 161 699 126 699 C91 699 62 670 62 635 L62 635 Z " />
<glyph glyph-name="j" unicode="j" horiz-adv-x="261" d="M28 -249 C117 -209 180 -140 180 -39 L180 499 L86 468 L86 -39 C86 -105 45 -157 -12 -194 L28 -249 Z M74 635 C74 600 102 571 138 571 C173 571 201 600 201 635 C201 670 173 699 138 699 C102 699 74 670 74 635 L74 635 Z " />
<glyph glyph-name="k" unicode="k" horiz-adv-x="534" d="M276 254 L508 485 L380 485 L171 253 L378 0 L497 0 L276 254 Z M80 0 L171 0 L171 762 L80 729 L80 0 Z " />
<glyph glyph-name="l" unicode="l" horiz-adv-x="254" d="M210 -10 L236 38 C205 45 172 58 172 96 L172 763 L80 729 L80 91 C80 30 120 -14 183 -14 C192 -14 201 -13 210 -10 L210 -10 Z " />
<glyph glyph-name="m" unicode="m" horiz-adv-x="832" d="M654 0 L754 0 L754 327 C754 421 695 499 590 499 C528 499 481 451 446 408 C421 469 364 499 299 499 C245 499 201 459 168 421 L158 486 L80 486 L80 0 L172 0 L172 346 C202 383 245 422 295 422 C345 422 369 377 369 333 L369 0 L461 0 L461 345 C489 381 534 422 585 422 C639 422 654 371 654 329 L654 0 Z " />
<glyph glyph-name="n" unicode="n" horiz-adv-x="545" d="M371 0 L468 0 L468 313 C468 416 420 499 306 499 C250 499 204 463 169 422 L159 486 L80 486 L80 0 L173 0 L173 346 C201 380 246 419 293 419 C357 419 371 366 371 313 L371 0 Z " />
<glyph glyph-name="o" unicode="o" horiz-adv-x="519" d="M257 -14 C410 -14 469 90 469 232 C469 362 419 499 268 499 C118 499 50 364 50 229 C50 95 112 -14 257 -14 L257 -14 Z M261 425 C354 425 369 313 369 241 C369 160 359 56 258 56 C161 56 149 160 149 236 C149 310 166 425 261 425 L261 425 Z " />
<glyph glyph-name="p" unicode="p" horiz-adv-x="552" d="M288 -14 C464 -14 502 132 502 279 C502 391 435 499 313 499 C257 499 203 464 171 420 L161 486 L80 486 L80 -247 L174 -215 L174 22 C206 -7 247 -14 288 -14 L288 -14 Z M294 416 C376 416 405 346 405 275 C405 178 391 62 267 62 C233 62 200 71 174 90 L174 345 C203 386 242 416 294 416 L294 416 Z " />
<glyph glyph-name="q" unicode="q" horiz-adv-x="563" d="M389 -247 L483 -218 L483 499 L390 465 C356 488 308 499 267 499 C117 499 54 351 54 221 C54 93 126 -14 263 -14 C314 -14 368 3 389 45 L389 -247 Z M389 397 L389 129 C364 86 321 69 273 69 C188 69 154 147 154 221 C154 322 185 422 304 422 C329 422 368 411 389 397 L389 397 Z " />
<glyph glyph-name="r" unicode="r" horiz-adv-x="382" d="M323 380 L362 459 C350 486 328 499 299 499 C239 499 197 440 170 392 L160 486 L80 486 L80 0 L172 0 L172 322 C199 365 226 404 282 404 C300 404 312 393 323 380 L323 380 Z " />
<glyph glyph-name="s" unicode="s" horiz-adv-x="425" d="M195 -14 C291 -14 375 14 375 126 C375 287 141 267 141 354 C141 407 187 423 232 423 C276 423 322 417 365 407 L365 485 C319 494 270 499 223 499 C126 499 50 457 50 351 C50 175 283 235 283 123 C283 67 215 66 174 66 C133 66 92 74 54 89 L54 6 C100 -8 147 -14 195 -14 L195 -14 Z " />
<glyph glyph-name="t" unicode="t" horiz-adv-x="379" d="M324 412 L359 485 L210 485 L210 633 L116 600 L116 485 L30 463 L30 412 L116 412 L116 141 C116 46 167 -14 268 -14 C301 -14 330 1 350 27 L350 84 C330 71 308 65 284 65 C243 65 210 92 210 140 L210 412 L324 412 Z " />
<glyph glyph-name="u" unicode="u" horiz-adv-x="542" d="M386 0 L462 0 L462 486 L369 486 L369 142 C353 98 317 65 268 65 C213 65 174 106 174 160 L174 486 L76 486 L76 157 C76 51 148 -14 252 -14 C307 -14 353 12 376 63 L386 0 Z " />
<glyph glyph-name="v" unicode="v" horiz-adv-x="479" d="M251 118 C251 131 250 152 246 164 L126 485 L30 485 L211 0 L282 0 L449 485 L355 485 L256 164 C253 154 252 130 252 118 L251 118 Z " />
<glyph glyph-name="w" unicode="w" horiz-adv-x="740" d="M523 139 C523 151 521 162 518 173 L422 485 L324 485 L233 172 C230 160 229 147 229 135 L228 135 C228 147 228 160 224 172 L122 485 L30 485 L189 0 L261 0 L363 345 C367 358 367 373 367 386 L369 386 C369 373 371 358 375 345 L485 0 L555 0 L710 485 L621 485 L528 173 C525 162 524 150 524 139 L523 139 Z " />
<glyph glyph-name="x" unicode="x" horiz-adv-x="492" d="M354 0 L462 0 L291 260 L441 484 L350 484 L246 322 L148 484 L43 484 L194 245 L30 0 L121 0 L243 184 L354 0 Z " />
<glyph glyph-name="y" unicode="y" horiz-adv-x="490" d="M256 122 C256 136 255 146 251 157 L127 485 L30 485 L209 11 C196 -52 177 -153 103 -153 C80 -153 57 -148 35 -141 L35 -232 C60 -241 87 -247 114 -247 C201 -247 247 -155 271 -84 L460 485 L368 485 L261 157 C256 143 258 137 257 122 L256 122 Z " />
<glyph glyph-name="z" unicode="z" horiz-adv-x="460" d="M40 0 L420 0 L420 66 L160 66 C154 66 142 64 133 62 L133 64 C142 64 160 71 166 80 L401 432 L401 485 L46 485 L46 417 L282 417 C289 417 303 420 311 422 L312 420 C304 420 288 415 282 405 L40 47 L40 0 Z " />
<glyph glyph-name="braceleft" unicode="&#x7b;" horiz-adv-x="387" d="M342 -231 L347 -231 L347 -161 C288 -162 239 -136 239 -69 L239 170 C239 223 197 269 145 281 C199 290 239 337 239 390 L239 634 C239 692 294 729 347 729 L347 799 C248 799 150 742 150 634 L150 390 C150 352 92 311 48 311 L48 250 C93 250 150 209 150 170 L150 -69 C150 -183 238 -231 342 -231 L342 -231 Z " />
<glyph glyph-name="bar" unicode="&#x7c;" horiz-adv-x="250" d="M90 -226 L160 -226 L160 780 L90 780 L90 -226 Z " />
<glyph glyph-name="braceright" unicode="&#x7d;" horiz-adv-x="379" d="M45 799 L40 799 L40 729 C99 730 148 704 148 637 L148 398 C148 345 190 299 242 287 C188 278 148 231 148 178 L148 -66 C148 -124 93 -161 40 -161 L40 -231 C139 -231 237 -174 237 -66 L237 178 C237 216 295 257 339 257 L339 318 C294 318 237 359 237 398 L237 637 C237 751 149 799 45 799 L45 799 Z " />
<glyph glyph-name="asciitilde" unicode="&#x7e;" horiz-adv-x="571" d="M399 197 C443 197 498 250 525 282 L494 315 C474 298 430 266 403 266 C326 266 265 328 188 328 C143 328 88 274 61 241 L92 208 C113 225 156 256 183 256 C259 256 322 197 399 197 L399 197 Z " />
<glyph glyph-name="exclamdown" unicode="&#xa1;" horiz-adv-x="307" d="M154 401 C190 401 217 432 217 467 C217 502 190 535 154 535 C118 535 90 502 90 467 C90 431 118 401 154 401 L154 401 Z M99 -200 L198 -200 L189 320 L111 310 L99 -200 Z " />
<glyph glyph-name="cent" unicode="&#xa2;" horiz-adv-x="522" d="M336 -15 C376 -12 417 -4 452 16 L452 97 C417 75 377 61 336 57 L336 457 C374 455 410 448 446 437 L446 508 C410 516 373 523 336 526 L336 638 L283 638 L283 526 C140 513 67 379 67 247 C67 118 142 -9 283 -16 L283 -140 L336 -140 L336 -15 Z M283 454 L283 58 C192 73 155 165 155 248 C155 336 184 435 283 454 L283 454 Z " />
<glyph glyph-name="sterling" unicode="&#xa3;" horiz-adv-x="629" d="M514 0 L534 72 L203 72 C230 89 246 117 247 149 L253 301 L436 301 L458 365 L255 365 L259 478 C261 548 287 596 363 596 C411 596 460 589 507 581 L487 648 C436 657 402 665 350 665 C236 665 175 587 170 478 L165 364 L74 344 L74 301 L163 301 C161 251 159 201 157 151 C155 111 113 72 73 71 L73 0 L514 0 Z " />
<glyph glyph-name="yen" unicode="&#xa5;" horiz-adv-x="570" d="M336 308 L477 308 L477 362 L367 362 L540 645 L452 645 L305 380 C300 371 299 358 299 348 L297 348 C297 358 295 373 291 380 L130 645 L30 645 L209 362 L98 362 L98 308 L243 308 L243 228 L98 228 L98 179 L243 179 L243 0 L336 0 L336 179 L477 179 L477 228 L336 228 L336 308 Z " />
<glyph glyph-name="brokenbar" unicode="&#xa6;" horiz-adv-x="254" d="M93 391 L169 391 L169 684 L93 684 L93 391 Z M92 0 L168 0 L168 293 L92 293 L92 0 Z " />
<glyph glyph-name="section" unicode="&#xa7;" horiz-adv-x="543" d="M196 -247 C321 -247 483 -198 483 -46 C483 194 241 356 241 518 C241 586 273 639 346 639 C378 639 409 632 439 623 L439 683 C399 693 357 699 316 699 C212 699 60 636 60 514 C60 281 297 123 297 -44 C297 -131 258 -186 166 -186 C136 -186 106 -180 77 -171 L77 -232 C116 -242 156 -247 196 -247 L196 -247 Z M179 518 C179 316 421 179 421 -45 C421 -104 381 -149 326 -167 C349 -132 358 -90 358 -49 C358 159 122 299 122 517 C122 561 164 607 205 620 C183 589 179 555 179 518 L179 518 Z " />
<glyph glyph-name="dieresis" unicode="&#xa8;" horiz-adv-x="439" d="M70 644 C70 614 94 589 124 589 C154 589 179 614 179 644 C179 674 154 698 124 698 C94 698 70 674 70 644 L70 644 Z M260 644 C260 614 285 589 315 589 C345 589 369 614 369 644 C369 674 345 698 315 698 C285 698 260 674 260 644 L260 644 Z " />
<glyph glyph-name="copyright" unicode="&#xa9;" horiz-adv-x="905" d="M845 378 C845 594 668 770 452 770 C236 770 60 594 60 378 C60 162 236 -14 452 -14 C668 -14 845 162 845 378 L845 378 Z M774 378 C774 201 629 56 452 56 C275 56 130 201 130 378 C130 555 275 702 452 702 C629 702 774 555 774 378 L774 378 Z M580 168 L580 236 C545 223 508 214 471 214 C363 214 321 281 321 379 C321 471 377 543 476 543 C510 543 544 539 577 531 L577 600 C538 607 498 612 458 612 C321 612 232 499 232 370 C232 251 322 146 446 146 C492 146 537 152 580 168 L580 168 Z " />
<glyph glyph-name="ordfeminine" unicode="&#xaa;" horiz-adv-x="396" d="M332 355 L356 392 C330 393 320 410 320 425 L320 566 C320 640 286 699 202 699 C163 699 114 690 77 679 L73 615 C107 631 150 642 187 642 C233 642 249 603 249 566 L249 557 C176 546 53 547 53 447 C53 382 110 349 169 349 C200 349 238 358 256 390 C260 361 289 349 310 349 C318 349 325 351 332 355 L332 355 Z M72 216 L337 216 L337 285 L72 285 L72 216 Z M249 515 L249 439 C236 410 204 401 181 401 C154 401 129 422 129 450 C129 476 147 499 173 503 L249 515 Z " />
<glyph glyph-name="guillemotleft" unicode="&#xab;" horiz-adv-x="601" d="M487 11 L532 56 L368 249 L530 441 L484 486 L265 249 L487 11 Z M291 11 L336 56 L172 249 L334 441 L288 486 L69 249 L291 11 Z " />
<glyph glyph-name="logicalnot" unicode="&#xac;" horiz-adv-x="624" d="M484 186 L554 186 L554 471 L70 471 L70 402 L484 402 L484 186 Z " />
<glyph glyph-name="registered" unicode="&#xae;" horiz-adv-x="709" d="M354 110 C516 110 649 242 649 404 C649 566 516 698 354 698 C192 698 60 566 60 404 C60 242 192 110 354 110 L354 110 Z M354 645 C486 645 594 536 594 404 C594 272 486 164 354 164 C222 164 114 272 114 404 C114 536 222 645 354 645 L354 645 Z M415 258 L482 258 L405 391 C439 409 453 436 453 474 C453 535 403 564 347 564 L264 564 L264 258 L318 258 L318 382 L353 382 L415 258 Z M344 521 C373 521 395 503 395 473 C395 441 375 423 344 423 L318 423 L318 521 L344 521 Z " />
<glyph glyph-name="macron" unicode="&#xaf;" horiz-adv-x="326" d="M50 623 L276 623 L276 685 L50 685 L50 623 Z " />
<glyph glyph-name="degree" unicode="&#xb0;" horiz-adv-x="400" d="M200 439 C272 439 330 497 330 569 C330 640 272 699 200 699 C128 699 70 640 70 568 C70 497 128 438 200 438 L200 439 Z M200 644 C240 644 275 609 275 568 C275 528 241 493 200 493 C159 493 125 527 125 569 C125 610 159 644 200 644 L200 644 Z " />
<glyph glyph-name="plusminus" unicode="&#xb1;" horiz-adv-x="554" d="M313 364 L494 364 L494 434 L313 434 L313 628 L240 628 L240 434 L60 434 L60 364 L240 364 L240 169 L313 169 L313 364 Z M89 0 L452 0 L452 70 L89 70 L89 0 Z " />
<glyph glyph-name="twosuperior" unicode="&#xb2;" horiz-adv-x="361" d="M312 239 L321 299 L141 299 C218 359 301 433 301 543 C301 620 230 665 158 665 C125 665 82 655 51 633 L40 563 C81 592 125 604 155 604 C190 604 229 579 229 545 C229 433 130 359 42 291 L42 239 L312 239 Z " />
<glyph glyph-name="threesuperior" unicode="&#xb3;" horiz-adv-x="348" d="M137 225 C220 225 298 251 298 354 C298 391 283 433 252 456 C273 479 285 509 285 541 C285 612 227 665 153 665 C119 665 85 662 53 640 L44 569 C82 600 114 604 146 604 C181 604 215 577 215 542 C215 512 200 483 172 483 L108 483 L102 419 L172 419 C206 419 227 391 227 357 C227 299 184 284 128 284 C109 284 80 287 52 294 L40 245 C72 231 109 225 137 225 L137 225 Z " />
<glyph glyph-name="acute" unicode="&#xb4;" horiz-adv-x="330" d="M80 520 L175 699 L250 662 L120 498 L80 520 Z " />
<glyph glyph-name="mu" unicode="&#xb5;" horiz-adv-x="552" d="M485 -15 L512 29 C487 37 461 56 461 85 L461 497 L372 475 L372 127 C349 94 322 58 278 58 C221 58 183 108 183 163 L183 499 L90 477 L90 -215 L183 -182 L183 3 C209 -10 239 -16 267 -16 C320 -16 353 14 379 58 C384 6 416 -16 466 -16 C472 -16 479 -16 485 -15 L485 -15 Z " />
<glyph glyph-name="paragraph" unicode="&#xb6;" horiz-adv-x="611" d="M581 685 L254 685 C156 685 67 604 67 504 C67 405 153 325 250 322 L250 -71 C250 -143 240 -184 158 -184 C125 -184 92 -177 60 -169 L60 -233 C97 -240 135 -247 173 -247 C298 -247 329 -186 329 -71 L329 622 L421 622 L421 -233 L498 -233 L498 622 L581 622 L581 685 Z " />
<glyph glyph-name="periodcentered" unicode="&#xb7;" horiz-adv-x="292" d="M152 186 C188 186 217 215 217 251 C217 287 188 316 152 316 C116 316 87 287 87 251 C87 215 116 186 152 186 L152 186 Z " />
<glyph glyph-name="cedilla" unicode="&#xb8;" horiz-adv-x="330" d="M209 -14 L155 -14 L116 -89 C143 -88 195 -88 195 -127 C195 -146 180 -159 161 -159 C138 -159 115 -155 93 -146 L70 -199 C97 -214 129 -223 160 -223 C222 -223 260 -192 260 -128 C260 -88 234 -53 192 -50 L209 -14 Z " />
<glyph glyph-name="onesuperior" unicode="&#xb9;" horiz-adv-x="304" d="M153 233 L224 233 L224 665 L208 665 C181 651 87 633 50 633 L50 587 L64 587 C88 587 124 590 153 596 L153 233 Z " />
<glyph glyph-name="ordmasculine" unicode="&#xba;" horiz-adv-x="406" d="M203 349 C309 349 346 431 346 525 C346 617 304 698 202 698 C102 698 60 612 60 523 C60 432 102 349 203 349 L203 349 Z M77 216 L341 216 L341 285 L77 285 L77 216 Z M201 647 C263 647 267 547 267 503 C267 464 259 405 208 405 C152 405 138 495 138 537 C138 581 142 647 201 647 L201 647 Z " />
<glyph glyph-name="guillemotright" unicode="&#xbb;" horiz-adv-x="597" d="M308 8 L528 244 L311 479 L266 436 L429 244 L265 51 L308 8 Z M111 8 L332 244 L115 479 L70 436 L233 244 L69 51 L111 8 Z " />
<glyph glyph-name="onequarter" unicode="&#xbc;" horiz-adv-x="906" d="M338 -14 L592 665 L523 665 L268 -14 L338 -14 Z M173 232 L244 232 L244 664 L228 664 C201 650 107 632 70 632 L70 586 L84 586 C108 586 144 589 173 595 L173 232 Z M828 101 L846 158 L766 158 L766 412 L704 412 L515 146 L515 101 L699 101 L699 0 L766 0 L766 101 L828 101 Z M699 312 L699 158 L589 158 L699 312 Z " />
<glyph glyph-name="onehalf" unicode="&#xbd;" horiz-adv-x="942" d="M348 -14 L602 665 L533 665 L278 -14 L348 -14 Z M173 232 L244 232 L244 664 L228 664 C201 650 107 632 70 632 L70 586 L84 586 C108 586 144 589 173 595 L173 232 Z M873 0 L882 60 L682 60 C760 120 850 188 850 298 C850 375 780 420 708 420 C675 420 631 410 601 388 L590 318 C631 347 675 359 705 359 C740 359 779 334 779 300 C779 188 672 120 583 52 L583 0 L873 0 Z " />
<glyph glyph-name="threequarters" unicode="&#xbe;" horiz-adv-x="915" d="M363 -14 L616 665 L547 665 L293 -14 L363 -14 Z M157 231 C240 231 318 257 318 360 C318 397 303 433 272 456 C293 479 305 509 305 541 C305 612 247 665 173 665 C139 665 105 662 73 640 L64 569 C102 600 134 604 166 604 C201 604 235 577 235 542 C235 512 220 483 192 483 L128 483 L122 419 L192 419 C226 419 247 397 247 363 C247 305 204 290 148 290 C129 290 100 293 72 300 L60 251 C92 237 129 231 157 231 L157 231 Z M837 101 L855 158 L775 158 L775 412 L713 412 L523 146 L523 101 L708 101 L708 0 L775 0 L775 101 L837 101 Z M708 312 L708 158 L598 158 L708 312 Z " />
<glyph glyph-name="questiondown" unicode="&#xbf;" horiz-adv-x="476" d="M238 278 C238 131 56 130 56 -43 C56 -166 145 -214 257 -214 C308 -214 358 -207 407 -195 L417 -128 C375 -139 332 -144 289 -144 C219 -144 144 -127 144 -41 C144 89 322 117 322 288 L238 278 Z M277 498 C241 498 212 469 212 433 C212 397 241 368 277 368 C313 368 341 398 341 433 C341 468 313 498 277 498 L277 498 Z " />
<glyph glyph-name="Agrave" unicode="&#xc0;" horiz-adv-x="576" d="M319 766 L164 902 L100 843 L287 732 L319 766 Z M469 0 L567 0 L343 685 L256 685 L30 0 L118 0 L179 184 L408 184 L469 0 Z M298 561 C298 561 299 533 304 519 L390 255 L200 255 L292 519 C296 530 297 561 297 561 L298 561 Z " />
<glyph glyph-name="Aacute" unicode="&#xc1;" horiz-adv-x="597" d="M290 766 L445 902 L509 843 L322 732 L290 766 Z M469 0 L567 0 L343 685 L256 685 L30 0 L118 0 L179 184 L408 184 L469 0 Z M298 561 C298 561 299 533 304 519 L390 255 L200 255 L292 519 C296 530 297 561 297 561 L298 561 Z " />
<glyph glyph-name="Acircumflex" unicode="&#xc2;" horiz-adv-x="597" d="M422 754 L343 912 L252 912 L175 754 L215 732 L299 851 L382 732 L422 754 Z M469 0 L567 0 L343 685 L256 685 L30 0 L118 0 L179 184 L408 184 L469 0 Z M298 561 C298 561 299 533 304 519 L390 255 L200 255 L292 519 C296 530 297 561 297 561 L298 561 Z " />
<glyph glyph-name="Atilde" unicode="&#xc3;" horiz-adv-x="597" d="M455 801 L455 849 C435 834 396 807 370 807 C323 807 289 840 241 840 C212 840 171 802 154 780 L154 735 C173 750 210 777 236 777 C282 777 320 742 368 742 C398 742 438 779 455 801 L455 801 Z M469 0 L567 0 L343 685 L256 685 L30 0 L118 0 L179 184 L408 184 L469 0 Z M298 561 C298 561 299 533 304 519 L390 255 L200 255 L292 519 C296 530 297 561 297 561 L298 561 Z " />
<glyph glyph-name="Adieresis" unicode="&#xc4;" horiz-adv-x="597" d="M469 0 L567 0 L343 685 L256 685 L30 0 L118 0 L179 184 L408 184 L469 0 Z M298 561 C298 561 299 533 304 519 L390 255 L200 255 L292 519 C296 530 297 561 297 561 L298 561 Z M149 794 C149 764 173 740 203 740 C233 740 257 764 257 794 C257 824 233 849 203 849 C173 849 149 824 149 794 L149 794 Z M339 794 C339 764 363 740 393 740 C423 740 448 764 448 794 C448 824 423 849 393 849 C363 849 339 824 339 794 L339 794 Z " />
<glyph glyph-name="Aring" unicode="&#xc5;" horiz-adv-x="597" d="M297 827 C325 827 350 803 350 775 C350 747 325 723 297 723 C269 723 245 747 245 775 C245 803 269 827 297 827 L297 827 Z M469 0 L567 0 L344 682 C378 700 401 737 401 775 C401 832 354 879 297 879 C240 879 193 832 193 775 C193 737 216 693 254 680 L30 0 L118 0 L179 184 L408 184 L469 0 Z M298 567 C299 553 300 539 304 525 L390 255 L200 255 L292 525 C296 536 297 555 297 567 L298 567 Z " />
<glyph glyph-name="AE" unicode="&#xc6;" horiz-adv-x="839" d="M405 0 L769 0 L769 70 L499 70 L499 312 L712 312 L712 379 L499 379 L499 618 L769 618 L769 685 L367 685 L30 0 L122 0 L226 221 L405 221 L405 0 Z M408 616 L409 616 C407 608 405 595 405 587 L405 288 L258 288 L399 587 C401 591 407 611 408 616 L408 616 Z " />
<glyph glyph-name="Ccedilla" unicode="&#xc7;" horiz-adv-x="573" d="M377 624 C427 624 475 613 523 601 L523 679 C465 693 406 699 347 699 C145 699 50 528 50 345 C50 167 143 -6 339 -14 L306 -90 C334 -89 386 -90 386 -129 C386 -148 370 -160 352 -160 C328 -160 305 -156 283 -147 L260 -201 C288 -216 319 -225 351 -225 C413 -225 451 -194 451 -130 C451 -90 423 -54 382 -51 L399 -12 C436 -9 473 -4 510 4 L510 86 C471 73 431 61 390 61 C223 61 153 195 153 346 C153 497 205 624 377 624 L377 624 Z " />
<glyph glyph-name="Egrave" unicode="&#xc8;" horiz-adv-x="563" d="M329 766 L174 902 L110 843 L297 732 L329 766 Z M100 0 L493 0 L493 71 L194 70 L194 312 L412 312 L412 385 L194 384 L194 614 L490 614 L490 685 L100 685 L100 0 Z " />
<glyph glyph-name="Eacute" unicode="&#xc9;" horiz-adv-x="566" d="M100 0 L493 0 L493 71 L194 70 L194 312 L412 312 L412 385 L194 384 L194 614 L490 614 L490 685 L100 685 L100 0 Z M280 766 L435 902 L499 843 L312 732 L280 766 Z " />
<glyph glyph-name="Ecircumflex" unicode="&#xca;" horiz-adv-x="563" d="M422 754 L333 912 L242 912 L155 754 L195 732 L289 851 L382 732 L422 754 Z M100 0 L493 0 L493 71 L194 70 L194 312 L412 312 L412 385 L194 384 L194 614 L490 614 L490 685 L100 685 L100 0 Z " />
<glyph glyph-name="Edieresis" unicode="&#xcb;" horiz-adv-x="563" d="M139 794 C139 764 163 740 193 740 C223 740 247 764 247 794 C247 824 223 849 193 849 C163 849 139 824 139 794 L139 794 Z M329 794 C329 764 353 740 383 740 C413 740 438 764 438 794 C438 824 413 849 383 849 C353 849 329 824 329 794 L329 794 Z M100 0 L493 0 L493 71 L194 70 L194 312 L412 312 L412 385 L194 384 L194 614 L490 614 L490 685 L100 685 L100 0 Z " />
<glyph glyph-name="Igrave" unicode="&#xcc;" horiz-adv-x="284" d="M100 0 L186 0 L186 685 L100 685 L100 0 Z M169 766 L14 902 L-50 843 L137 732 L169 766 Z " />
<glyph glyph-name="Iacute" unicode="&#xcd;" horiz-adv-x="280" d="M100 0 L186 0 L186 685 L100 685 L100 0 Z M110 766 L265 902 L329 843 L142 732 L110 766 Z " />
<glyph glyph-name="Icircumflex" unicode="&#xce;" horiz-adv-x="278" d="M100 0 L186 0 L186 685 L100 685 L100 0 Z M272 754 L183 912 L92 912 L5 754 L45 732 L139 851 L232 732 L272 754 Z " />
<glyph glyph-name="Idieresis" unicode="&#xcf;" horiz-adv-x="274" d="M100 0 L186 0 L186 685 L100 685 L100 0 Z M-11 794 C-11 764 13 740 43 740 C73 740 97 764 97 794 C97 824 73 849 43 849 C13 849 -11 824 -11 794 L-11 794 Z M179 794 C179 764 203 740 233 740 C263 740 288 764 288 794 C288 824 263 849 233 849 C203 849 179 824 179 794 L179 794 Z " />
<glyph glyph-name="Eth" unicode="&#xd0;" horiz-adv-x="707" d="M357 0 C569 0 657 153 657 344 C657 533 565 685 357 685 L157 685 L157 370 L62 370 L62 307 L157 307 L157 0 L357 0 Z M357 614 C513 614 563 477 563 344 C563 210 515 71 357 71 L247 71 L247 307 L353 307 L353 370 L247 370 L247 614 L357 614 Z " />
<glyph glyph-name="Ntilde" unicode="&#xd1;" horiz-adv-x="678" d="M485 801 L485 849 C465 834 426 807 400 807 C353 807 319 840 271 840 C242 840 201 802 184 780 L184 735 C203 750 240 777 266 777 C312 777 350 742 398 742 C428 742 468 779 485 801 L485 801 Z M517 0 L587 0 L587 685 L498 685 L498 194 C498 184 500 173 502 163 L500 163 C499 170 495 190 491 196 L169 685 L100 685 L100 0 L189 0 L189 495 C189 501 183 521 181 528 L183 528 C185 521 188 505 192 499 L517 0 Z " />
<glyph glyph-name="Ograve" unicode="&#xd2;" horiz-adv-x="704" d="M369 766 L214 902 L150 843 L337 732 L369 766 Z M354 -14 C569 -14 644 145 644 337 C644 518 552 699 349 699 C148 699 60 511 60 334 C60 152 153 -14 354 -14 L354 -14 Z M347 628 C505 628 541 456 541 330 C541 215 506 57 362 57 C215 57 164 222 164 343 C164 457 203 628 347 628 L347 628 Z " />
<glyph glyph-name="Oacute" unicode="&#xd3;" horiz-adv-x="704" d="M354 -14 C569 -14 644 145 644 337 C644 518 552 699 349 699 C148 699 60 511 60 334 C60 152 153 -14 354 -14 L354 -14 Z M347 628 C505 628 541 456 541 330 C541 215 506 57 362 57 C215 57 164 222 164 343 C164 457 203 628 347 628 L347 628 Z M330 766 L485 902 L549 843 L362 732 L330 766 Z " />
<glyph glyph-name="Ocircumflex" unicode="&#xd4;" horiz-adv-x="704" d="M482 754 L393 912 L302 912 L215 754 L255 732 L349 851 L442 732 L482 754 Z M354 -14 C569 -14 644 145 644 337 C644 518 552 699 349 699 C148 699 60 511 60 334 C60 152 153 -14 354 -14 L354 -14 Z M347 628 C505 628 541 456 541 330 C541 215 506 57 362 57 C215 57 164 222 164 343 C164 457 203 628 347 628 L347 628 Z " />
<glyph glyph-name="Otilde" unicode="&#xd5;" horiz-adv-x="704" d="M500 801 L500 849 C481 834 441 807 416 807 C368 807 335 840 287 840 C258 840 217 802 199 780 L199 735 C219 750 256 777 281 777 C328 777 365 742 413 742 C443 742 483 779 500 801 L500 801 Z M354 -14 C569 -14 644 145 644 337 C644 518 552 699 349 699 C148 699 60 511 60 334 C60 152 153 -14 354 -14 L354 -14 Z M347 628 C505 628 541 456 541 330 C541 215 506 57 362 57 C215 57 164 222 164 343 C164 457 203 628 347 628 L347 628 Z " />
<glyph glyph-name="Odieresis" unicode="&#xd6;" horiz-adv-x="704" d="M199 794 C199 764 223 740 253 740 C283 740 307 764 307 794 C307 824 283 849 253 849 C223 849 199 824 199 794 L199 794 Z M389 794 C389 764 413 740 443 740 C473 740 498 764 498 794 C498 824 473 849 443 849 C413 849 389 824 389 794 L389 794 Z M354 -14 C569 -14 644 145 644 337 C644 518 552 699 349 699 C148 699 60 511 60 334 C60 152 153 -14 354 -14 L354 -14 Z M347 628 C505 628 541 456 541 330 C541 215 506 57 362 57 C215 57 164 222 164 343 C164 457 203 628 347 628 L347 628 Z " />
<glyph glyph-name="multiply" unicode="&#xd7;" horiz-adv-x="467" d="M368 130 L417 179 L281 315 L417 453 L370 499 L234 362 L99 497 L50 448 L185 313 L51 177 L98 130 L232 267 L368 130 Z " />
<glyph glyph-name="Oslash" unicode="&#xd8;" horiz-adv-x="691" d="M346 -14 C558 -14 631 150 631 338 C631 432 609 530 549 604 L620 712 L572 744 L507 645 C459 682 401 699 341 699 C139 699 60 518 60 341 C60 251 80 156 136 83 L64 -26 L110 -57 L176 42 C224 3 284 -14 346 -14 L346 -14 Z M336 639 C387 639 431 616 462 576 L194 171 C169 225 156 284 156 343 C156 456 191 639 336 639 L336 639 Z M494 522 C521 463 533 395 533 330 C533 218 509 46 364 46 C308 46 259 73 225 117 L494 522 Z " />
<glyph glyph-name="Ugrave" unicode="&#xd9;" horiz-adv-x="695" d="M348 -14 C503 -14 605 64 605 226 L605 685 L513 685 L513 226 C513 124 452 62 350 62 C249 62 183 124 183 226 L183 685 L90 685 L90 226 C90 71 199 -14 348 -14 L348 -14 Z M379 766 L224 902 L160 843 L347 732 L379 766 Z " />
<glyph glyph-name="Uacute" unicode="&#xda;" horiz-adv-x="695" d="M348 -14 C503 -14 605 64 605 226 L605 685 L513 685 L513 226 C513 124 452 62 350 62 C249 62 183 124 183 226 L183 685 L90 685 L90 226 C90 71 199 -14 348 -14 L348 -14 Z M340 766 L495 902 L559 843 L372 732 L340 766 Z " />
<glyph glyph-name="Ucircumflex" unicode="&#xdb;" horiz-adv-x="695" d="M348 -14 C503 -14 605 64 605 226 L605 685 L513 685 L513 226 C513 124 452 62 350 62 C249 62 183 124 183 226 L183 685 L90 685 L90 226 C90 71 199 -14 348 -14 L348 -14 Z M482 754 L393 912 L302 912 L215 754 L255 732 L349 851 L442 732 L482 754 Z " />
<glyph glyph-name="Udieresis" unicode="&#xdc;" horiz-adv-x="695" d="M348 -14 C503 -14 605 64 605 226 L605 685 L513 685 L513 226 C513 124 452 62 350 62 C249 62 183 124 183 226 L183 685 L90 685 L90 226 C90 71 199 -14 348 -14 L348 -14 Z M199 794 C199 764 223 740 253 740 C283 740 307 764 307 794 C307 824 283 849 253 849 C223 849 199 824 199 794 L199 794 Z M389 794 C389 764 413 740 443 740 C473 740 498 764 498 794 C498 824 473 849 443 849 C413 849 389 824 389 794 L389 794 Z " />
<glyph glyph-name="Yacute" unicode="&#xdd;" horiz-adv-x="590" d="M297 766 L452 902 L516 843 L329 732 L297 766 Z M346 299 L562 685 L467 685 L311 394 C305 384 305 351 305 351 L303 351 C303 351 302 384 297 394 L130 685 L30 685 L253 299 L253 0 L346 0 L346 299 Z " />
<glyph glyph-name="Thorn" unicode="&#xde;" horiz-adv-x="576" d="M192 139 L304 139 C430 139 516 219 516 346 C516 475 430 553 303 553 L188 553 L188 685 L100 685 L100 0 L192 0 L192 139 Z M287 488 C373 488 416 427 416 346 C416 277 372 204 296 204 L192 204 L192 488 L287 488 Z " />
<glyph glyph-name="germandbls" unicode="&#xdf;" horiz-adv-x="641" d="M100 419 L100 0 L194 0 L194 572 C194 633 232 684 296 684 C358 684 400 650 400 586 C400 500 303 469 303 377 C303 228 497 226 497 123 C497 69 432 66 392 66 C349 66 308 73 268 89 L268 7 C311 -7 369 -14 414 -14 C517 -14 591 17 591 133 C591 272 400 310 400 382 C400 450 492 460 492 586 C492 700 402 757 296 757 C185 757 100 687 100 572 L100 485 L6 462 L6 419 L100 419 Z " />
<glyph glyph-name="agrave" unicode="&#xe0;" horiz-adv-x="509" d="M255 570 L160 749 L85 712 L215 548 L255 570 Z M454 -8 L481 36 C457 41 430 61 430 88 L430 327 C430 429 369 499 265 499 C207 499 145 495 94 463 L89 383 C134 412 187 423 240 423 C300 423 337 385 337 325 L337 287 L213 275 C121 266 50 221 50 121 C50 30 126 -14 209 -14 C266 -14 323 7 344 64 C348 20 379 -14 425 -14 C435 -14 445 -12 454 -8 L454 -8 Z M337 233 L337 136 C337 132 328 116 326 112 C304 76 264 62 224 62 C186 62 149 86 149 127 C149 174 179 200 223 209 L337 233 Z " />
<glyph glyph-name="aacute" unicode="&#xe1;" horiz-adv-x="509" d="M454 -8 L481 36 C457 41 430 61 430 88 L430 327 C430 429 369 499 265 499 C207 499 145 495 94 463 L89 383 C134 412 187 423 240 423 C300 423 337 385 337 325 L337 287 L213 275 C121 266 50 221 50 121 C50 30 126 -14 209 -14 C266 -14 323 7 344 64 C348 20 379 -14 425 -14 C435 -14 445 -12 454 -8 L454 -8 Z M337 233 L337 136 C337 132 328 116 326 112 C304 76 264 62 224 62 C186 62 149 86 149 127 C149 174 179 200 223 209 L337 233 Z M232 570 L327 749 L402 712 L272 548 L232 570 Z " />
<glyph glyph-name="acircumflex" unicode="&#xe2;" horiz-adv-x="509" d="M375 570 L296 728 L204 728 L127 570 L167 548 L251 668 L335 548 L375 570 Z M454 -8 L481 36 C457 41 430 61 430 88 L430 327 C430 429 369 499 265 499 C207 499 145 495 94 463 L89 383 C134 412 187 423 240 423 C300 423 337 385 337 325 L337 287 L213 275 C121 266 50 221 50 121 C50 30 126 -14 209 -14 C266 -14 323 7 344 64 C348 20 379 -14 425 -14 C435 -14 445 -12 454 -8 L454 -8 Z M337 233 L337 136 C337 132 328 116 326 112 C304 76 264 62 224 62 C186 62 149 86 149 127 C149 174 179 200 223 209 L337 233 Z " />
<glyph glyph-name="atilde" unicode="&#xe3;" horiz-adv-x="509" d="M403 638 L403 686 C384 670 344 644 319 644 C271 644 238 677 190 677 C161 677 120 638 102 617 L102 572 C122 587 159 613 184 613 C231 613 268 579 316 579 C346 579 386 615 403 638 L403 638 Z M454 -8 L481 36 C457 41 430 61 430 88 L430 327 C430 429 369 499 265 499 C207 499 145 495 94 463 L89 383 C134 412 187 423 240 423 C300 423 337 385 337 325 L337 287 L213 275 C121 266 50 221 50 121 C50 30 126 -14 209 -14 C266 -14 323 7 344 64 C348 20 379 -14 425 -14 C435 -14 445 -12 454 -8 L454 -8 Z M337 233 L337 136 C337 132 328 116 326 112 C304 76 264 62 224 62 C186 62 149 86 149 127 C149 174 179 200 223 209 L337 233 Z " />
<glyph glyph-name="adieresis" unicode="&#xe4;" horiz-adv-x="509" d="M105 628 C105 598 130 574 160 574 C190 574 214 598 214 628 C214 658 190 683 160 683 C130 683 105 658 105 628 L105 628 Z M286 628 C286 598 310 574 340 574 C370 574 394 598 394 628 C394 658 370 683 340 683 C310 683 286 658 286 628 L286 628 Z M454 -8 L481 36 C457 41 430 61 430 88 L430 327 C430 429 369 499 265 499 C207 499 145 495 94 463 L89 383 C134 412 187 423 240 423 C300 423 337 385 337 325 L337 287 L213 275 C121 266 50 221 50 121 C50 30 126 -14 209 -14 C266 -14 323 7 344 64 C348 20 379 -14 425 -14 C435 -14 445 -12 454 -8 L454 -8 Z M337 233 L337 136 C337 132 328 116 326 112 C304 76 264 62 224 62 C186 62 149 86 149 127 C149 174 179 200 223 209 L337 233 Z " />
<glyph glyph-name="aring" unicode="&#xe5;" horiz-adv-x="509" d="M258 556 C316 556 362 602 362 660 C362 718 316 764 258 764 C200 764 154 718 154 660 C154 602 200 556 258 556 L258 556 Z M258 712 C286 712 311 689 311 660 C311 631 286 608 258 608 C229 608 206 631 206 660 C206 689 229 712 258 712 L258 712 Z M454 -8 L481 36 C457 41 430 61 430 88 L430 327 C430 429 369 499 265 499 C207 499 145 495 94 463 L89 383 C134 412 187 423 240 423 C300 423 337 385 337 325 L337 287 L213 275 C121 266 50 221 50 121 C50 30 126 -14 209 -14 C266 -14 323 7 344 64 C348 20 379 -14 425 -14 C435 -14 445 -12 454 -8 L454 -8 Z M337 233 L337 136 C337 132 328 116 326 112 C304 76 264 62 224 62 C186 62 149 86 149 127 C149 174 179 200 223 209 L337 233 Z " />
<glyph glyph-name="ae" unicode="&#xe6;" horiz-adv-x="771" d="M331 113 C308 81 265 62 226 62 C188 62 151 86 151 127 C151 176 191 196 233 205 L314 222 C314 185 318 148 331 113 L331 113 Z M700 234 C707 263 711 291 711 321 C711 429 635 499 529 499 C477 499 431 482 394 445 C362 483 316 499 267 499 C210 499 146 495 96 463 L84 379 C129 409 184 420 238 420 C287 420 328 400 337 351 C329 328 326 311 322 287 C212 278 50 274 50 122 C50 25 127 -14 214 -14 C275 -14 330 8 363 59 C402 5 456 -14 522 -14 C580 -14 640 -9 693 17 L701 109 C658 84 597 68 547 68 C456 68 408 125 408 213 L408 234 L700 234 Z M525 426 C579 426 621 392 621 336 C621 324 620 308 617 296 L415 296 C419 360 450 426 525 426 L525 426 Z " />
<glyph glyph-name="ccedilla" unicode="&#xe7;" horiz-adv-x="464" d="M299 421 C337 421 378 412 413 396 L403 478 C368 496 333 499 294 499 L274 499 C123 499 50 352 50 218 C50 96 117 2 242 -12 L207 -89 C235 -88 286 -88 286 -127 C286 -146 270 -159 252 -159 C229 -159 206 -155 184 -146 L161 -199 C188 -214 220 -223 251 -223 C312 -223 351 -191 351 -128 C351 -88 324 -53 283 -50 L301 -13 C337 -10 370 0 404 12 L413 101 C372 82 327 71 282 71 C185 71 146 138 146 227 C146 323 190 421 299 421 L299 421 Z " />
<glyph glyph-name="egrave" unicode="&#xe8;" horiz-adv-x="503" d="M289 570 L194 749 L119 712 L249 548 L289 570 Z M438 234 C444 263 447 292 447 321 C447 428 371 499 265 499 C107 499 50 351 50 216 C50 86 123 -14 260 -14 C318 -14 377 -9 429 17 L436 112 C390 87 334 71 282 71 C192 71 144 125 144 213 L144 234 L438 234 Z M265 418 C329 418 357 387 357 324 C357 316 357 309 355 301 L150 301 C159 366 196 418 265 418 L265 418 Z " />
<glyph glyph-name="eacute" unicode="&#xe9;" horiz-adv-x="503" d="M259 570 L354 749 L429 712 L299 548 L259 570 Z M438 234 C444 263 447 292 447 321 C447 428 371 499 265 499 C107 499 50 351 50 216 C50 86 123 -14 260 -14 C318 -14 377 -9 429 17 L436 112 C390 87 334 71 282 71 C192 71 144 125 144 213 L144 234 L438 234 Z M265 418 C329 418 357 387 357 324 C357 316 357 309 355 301 L150 301 C159 366 196 418 265 418 L265 418 Z " />
<glyph glyph-name="ecircumflex" unicode="&#xea;" horiz-adv-x="503" d="M389 570 L310 728 L218 728 L141 570 L181 548 L265 668 L349 548 L389 570 Z M438 234 C444 263 447 292 447 321 C447 428 371 499 265 499 C107 499 50 351 50 216 C50 86 123 -14 260 -14 C318 -14 377 -9 429 17 L436 112 C390 87 334 71 282 71 C192 71 144 125 144 213 L144 234 L438 234 Z M265 418 C329 418 357 387 357 324 C357 316 357 309 355 301 L150 301 C159 366 196 418 265 418 L265 418 Z " />
<glyph glyph-name="edieresis" unicode="&#xeb;" horiz-adv-x="503" d="M119 628 C119 598 144 574 174 574 C204 574 228 598 228 628 C228 658 204 683 174 683 C144 683 119 658 119 628 L119 628 Z M300 628 C300 598 324 574 354 574 C384 574 408 598 408 628 C408 658 384 683 354 683 C324 683 300 658 300 628 L300 628 Z M438 234 C444 263 447 292 447 321 C447 428 371 499 265 499 C107 499 50 351 50 216 C50 86 123 -14 260 -14 C318 -14 377 -9 429 17 L436 112 C390 87 334 71 282 71 C192 71 144 125 144 213 L144 234 L438 234 Z M265 418 C329 418 357 387 357 324 C357 316 357 309 355 301 L150 301 C159 366 196 418 265 418 L265 418 Z " />
<glyph glyph-name="igrave" unicode="&#xec;" horiz-adv-x="252" d="M159 570 L64 749 L-11 712 L119 548 L159 570 Z M79 0 L174 0 L174 499 L79 466 L79 0 Z " />
<glyph glyph-name="iacute" unicode="&#xed;" horiz-adv-x="251" d="M100 570 L195 749 L270 712 L140 548 L100 570 Z M79 0 L174 0 L174 499 L79 466 L79 0 Z " />
<glyph glyph-name="icircumflex" unicode="&#xee;" horiz-adv-x="247" d="M247 570 L168 728 L77 728 L0 570 L40 548 L124 668 L207 548 L247 570 Z M74 0 L169 0 L169 499 L74 466 L74 0 Z " />
<glyph glyph-name="idieresis" unicode="&#xef;" horiz-adv-x="251" d="M-19 628 C-19 598 5 574 35 574 C65 574 89 598 89 628 C89 658 65 683 35 683 C5 683 -19 658 -19 628 L-19 628 Z M161 628 C161 598 185 574 215 574 C245 574 269 598 269 628 C269 658 245 683 215 683 C185 683 161 658 161 628 L161 628 Z M79 0 L174 0 L174 499 L79 466 L79 0 Z " />
<glyph glyph-name="eth" unicode="&#xf0;" horiz-adv-x="556" d="M273 -13 C457 -13 497 172 497 320 C497 433 457 532 369 604 L420 672 L366 712 L316 644 C284 668 249 687 212 703 L175 639 C206 624 235 607 264 589 L207 515 L260 476 L317 547 C351 515 378 476 395 432 C367 445 337 454 306 454 C153 454 70 322 70 181 C70 56 151 -13 273 -13 L273 -13 Z M407 354 C409 342 410 330 410 318 C410 227 395 57 271 57 C193 57 161 117 161 188 C161 270 204 383 301 383 C338 383 375 373 407 354 L407 354 Z " />
<glyph glyph-name="ntilde" unicode="&#xf1;" horiz-adv-x="542" d="M429 638 L429 686 C410 670 370 644 345 644 C297 644 264 677 216 677 C187 677 146 638 128 617 L128 572 C148 587 185 613 210 613 C257 613 294 579 342 579 C372 579 412 615 429 638 L429 638 Z M371 0 L468 0 L468 313 C468 416 420 499 306 499 C250 499 204 463 169 422 L159 486 L80 486 L80 0 L173 0 L173 346 C201 380 246 419 293 419 C357 419 371 366 371 313 L371 0 Z " />
<glyph glyph-name="ograve" unicode="&#xf2;" horiz-adv-x="522" d="M279 570 L184 749 L109 712 L239 548 L279 570 Z M257 -14 C410 -14 469 90 469 232 C469 362 419 499 268 499 C118 499 50 364 50 229 C50 95 112 -14 257 -14 L257 -14 Z M261 425 C354 425 369 313 369 241 C369 160 359 56 258 56 C161 56 149 160 149 236 C149 310 166 425 261 425 L261 425 Z " />
<glyph glyph-name="oacute" unicode="&#xf3;" horiz-adv-x="522" d="M257 -14 C410 -14 469 92 469 232 C469 361 419 499 268 499 C117 499 50 363 50 229 C50 97 112 -14 257 -14 L257 -14 Z M263 418 C357 418 369 313 369 241 C369 162 359 65 257 65 C160 65 149 161 149 236 C149 310 169 418 263 418 L263 418 Z M243 570 L338 749 L413 712 L283 548 L243 570 Z " />
<glyph glyph-name="ocircumflex" unicode="&#xf4;" horiz-adv-x="522" d="M385 570 L306 728 L214 728 L137 570 L177 548 L261 668 L345 548 L385 570 Z M257 -14 C410 -14 469 90 469 232 C469 362 419 499 268 499 C118 499 50 364 50 229 C50 95 112 -14 257 -14 L257 -14 Z M261 425 C354 425 369 313 369 241 C369 160 359 56 258 56 C161 56 149 160 149 236 C149 310 166 425 261 425 L261 425 Z " />
<glyph glyph-name="otilde" unicode="&#xf5;" horiz-adv-x="522" d="M412 638 L412 686 C393 670 353 644 328 644 C280 644 247 677 199 677 C170 677 129 638 111 617 L111 572 C131 587 168 613 193 613 C240 613 277 579 325 579 C355 579 395 615 412 638 L412 638 Z M257 -14 C410 -14 469 90 469 232 C469 362 419 499 268 499 C118 499 50 364 50 229 C50 95 112 -14 257 -14 L257 -14 Z M261 425 C354 425 369 313 369 241 C369 160 359 56 258 56 C161 56 149 160 149 236 C149 310 166 425 261 425 L261 425 Z " />
<glyph glyph-name="odieresis" unicode="&#xf6;" horiz-adv-x="522" d="M111 628 C111 598 135 574 165 574 C195 574 219 598 219 628 C219 658 195 683 165 683 C135 683 111 658 111 628 L111 628 Z M291 628 C291 598 315 574 345 574 C375 574 399 598 399 628 C399 658 375 683 345 683 C315 683 291 658 291 628 L291 628 Z M257 -14 C410 -14 469 90 469 232 C469 362 419 499 268 499 C118 499 50 364 50 229 C50 95 112 -14 257 -14 L257 -14 Z M261 425 C354 425 369 313 369 241 C369 160 359 56 258 56 C161 56 149 160 149 236 C149 310 166 425 261 425 L261 425 Z " />
<glyph glyph-name="divide" unicode="&#xf7;" horiz-adv-x="579" d="M349 500 C349 531 323 557 292 557 C261 557 235 531 235 500 C235 469 261 443 292 443 C323 443 349 469 349 500 L349 500 Z M515 288 L515 355 L56 355 L56 288 L515 288 Z M350 140 C350 171 324 197 293 197 C262 197 236 171 236 140 C236 109 262 83 293 83 C324 83 350 109 350 140 L350 140 Z " />
<glyph glyph-name="oslash" unicode="&#xf8;" horiz-adv-x="516" d="M257 -14 C410 -14 469 92 469 232 C469 299 456 374 415 429 L487 538 L448 564 L382 463 C349 488 309 499 268 499 C117 499 50 363 50 229 C50 165 65 96 108 47 L40 -56 L76 -83 L142 17 C176 -5 217 -14 257 -14 L257 -14 Z M190 89 L357 341 C367 309 369 275 369 241 C369 162 358 65 257 65 C232 65 208 72 190 89 L190 89 Z M263 418 C290 418 314 409 332 388 L163 131 C151 164 149 201 149 236 C149 310 169 418 263 418 L263 418 Z " />
<glyph glyph-name="ugrave" unicode="&#xf9;" horiz-adv-x="537" d="M292 570 L197 749 L122 712 L252 548 L292 570 Z M386 0 L462 0 L462 486 L369 486 L369 142 C353 98 317 65 268 65 C213 65 174 106 174 160 L174 486 L76 486 L76 157 C76 51 148 -14 252 -14 C307 -14 353 12 376 63 L386 0 Z " />
<glyph glyph-name="uacute" unicode="&#xfa;" horiz-adv-x="537" d="M259 570 L354 749 L429 712 L299 548 L259 570 Z M386 0 L462 0 L462 486 L369 486 L369 142 C353 98 317 65 268 65 C213 65 174 106 174 160 L174 486 L76 486 L76 157 C76 51 148 -14 252 -14 C307 -14 353 12 376 63 L386 0 Z " />
<glyph glyph-name="ucircumflex" unicode="&#xfb;" horiz-adv-x="537" d="M394 570 L315 728 L224 728 L147 570 L187 548 L270 668 L354 548 L394 570 Z M386 0 L462 0 L462 486 L369 486 L369 142 C353 98 317 65 268 65 C213 65 174 106 174 160 L174 486 L76 486 L76 157 C76 51 148 -14 252 -14 C307 -14 353 12 376 63 L386 0 Z " />
<glyph glyph-name="udieresis" unicode="&#xfc;" horiz-adv-x="537" d="M117 628 C117 598 141 574 171 574 C201 574 225 598 225 628 C225 658 201 683 171 683 C141 683 117 658 117 628 L117 628 Z M297 628 C297 598 321 574 351 574 C381 574 405 598 405 628 C405 658 381 683 351 683 C321 683 297 658 297 628 L297 628 Z M386 0 L462 0 L462 486 L369 486 L369 142 C353 98 317 65 268 65 C213 65 174 106 174 160 L174 486 L76 486 L76 157 C76 51 148 -14 252 -14 C307 -14 353 12 376 63 L386 0 Z " />
<glyph glyph-name="yacute" unicode="&#xfd;" horiz-adv-x="477" d="M256 122 C256 136 255 146 251 157 L127 485 L30 485 L209 11 C196 -52 177 -153 103 -153 C80 -153 57 -148 35 -141 L35 -232 C60 -241 87 -247 114 -247 C201 -247 247 -155 271 -84 L460 485 L368 485 L261 157 C256 143 258 137 257 122 L256 122 Z M233 570 L328 749 L403 712 L273 548 L233 570 Z " />
<glyph glyph-name="thorn" unicode="&#xfe;" horiz-adv-x="553" d="M183 15 C221 -3 265 -14 308 -14 C481 -14 503 155 503 288 C503 392 446 499 327 499 C271 499 225 463 183 426 L183 761 L90 722 L90 -226 L183 -206 L183 15 Z M183 77 L183 343 C216 375 259 410 305 410 C374 410 406 348 406 289 C406 192 407 55 269 55 C240 55 208 63 183 77 L183 77 Z " />
<glyph glyph-name="ydieresis" unicode="&#xff;" horiz-adv-x="479" d="M87 629 C87 599 111 575 141 575 C171 575 196 599 196 629 C196 659 171 684 141 684 C111 684 87 659 87 629 L87 629 Z M277 629 C277 599 301 575 331 575 C361 575 386 599 386 629 C386 659 361 684 331 684 C301 684 277 659 277 629 L277 629 Z M256 122 C256 136 255 146 251 157 L127 485 L30 485 L209 11 C196 -52 177 -153 103 -153 C80 -153 57 -148 35 -141 L35 -232 C60 -241 87 -247 114 -247 C201 -247 247 -155 271 -84 L460 485 L368 485 L261 157 C256 143 258 137 257 122 L256 122 Z " />
<glyph glyph-name="dotlessi" unicode="&#x131;" horiz-adv-x="255" d="M80 0 L175 0 L175 499 L80 466 L80 0 Z " />
<glyph glyph-name="Lslash" unicode="&#x141;" horiz-adv-x="549" d="M105 0 L486 0 L486 71 L198 71 L198 331 L324 404 L290 465 L198 412 L198 685 L105 685 L105 358 L-21 285 L14 224 L105 277 L105 0 Z " />
<glyph glyph-name="lslash" unicode="&#x142;" horiz-adv-x="262" d="M175 356 L307 433 L272 494 L175 437 L175 762 L89 730 L89 387 L-36 314 L-1 253 L89 306 L89 87 C89 26 126 -15 188 -15 C197 -15 206 -14 215 -11 L239 34 C207 41 175 55 175 93 L175 356 Z " />
<glyph glyph-name="OE" unicode="&#x152;" horiz-adv-x="946" d="M483 135 C453 84 407 57 348 57 C201 57 150 222 150 343 C150 458 189 628 333 628 C402 628 452 589 483 529 L483 135 Z M483 0 L876 0 L876 71 L577 70 L577 307 L795 307 L795 380 L577 379 L577 614 L863 614 L863 685 L483 685 L483 658 C439 686 387 699 335 699 C133 699 50 513 50 336 C50 155 138 -14 340 -14 C389 -14 439 -5 483 19 L483 0 Z " />
<glyph glyph-name="oe" unicode="&#x153;" horiz-adv-x="767" d="M344 97 C324 69 295 56 261 56 C164 56 146 160 146 236 C146 310 169 425 264 425 C304 425 332 404 350 369 C329 321 320 268 320 216 C320 175 327 134 344 97 L344 97 Z M706 233 C713 262 717 291 717 321 C717 429 641 499 535 499 C485 499 439 482 403 447 C368 483 321 499 271 499 C120 499 50 365 50 230 C50 97 115 -14 260 -14 C309 -14 359 -3 397 29 C434 -1 481 -14 528 -14 C586 -14 646 -9 699 17 L707 109 C664 84 603 68 553 68 C462 68 414 125 414 213 L414 226 L706 233 Z M531 426 C585 426 627 392 627 336 C627 324 626 311 623 299 L421 288 C425 352 456 426 531 426 L531 426 Z " />
<glyph glyph-name="Scaron" unicode="&#x160;" horiz-adv-x="545" d="M401 909 L318 751 L227 751 L146 909 L186 931 L273 811 L361 931 L401 909 Z M245 -14 C376 -14 485 29 485 178 C485 411 155 356 155 512 C155 593 223 621 294 621 C350 621 404 610 458 594 L458 671 C396 689 333 699 269 699 C159 699 60 625 60 509 C60 279 389 332 389 176 C389 78 294 65 215 65 C167 65 110 79 65 95 L65 14 C121 -5 186 -14 245 -14 L245 -14 Z " />
<glyph glyph-name="scaron" unicode="&#x161;" horiz-adv-x="425" d="M329 716 L248 558 L157 558 L78 716 L118 738 L204 619 L289 738 L329 716 Z M185 -14 C281 -14 365 14 365 126 C365 287 131 267 131 354 C131 407 177 423 222 423 C266 423 312 417 355 407 L355 485 C309 494 260 499 213 499 C116 499 40 457 40 351 C40 175 273 235 273 123 C273 67 205 66 164 66 C123 66 82 74 44 89 L44 6 C90 -8 137 -14 185 -14 L185 -14 Z " />
<glyph glyph-name="Ydieresis" unicode="&#x178;" horiz-adv-x="590" d="M149 794 C149 764 173 740 203 740 C233 740 257 764 257 794 C257 824 233 849 203 849 C173 849 149 824 149 794 L149 794 Z M339 794 C339 764 363 740 393 740 C423 740 448 764 448 794 C448 824 423 849 393 849 C363 849 339 824 339 794 L339 794 Z M346 299 L562 685 L467 685 L311 394 C305 384 305 351 305 351 L303 351 C303 351 302 384 297 394 L130 685 L30 685 L253 299 L253 0 L346 0 L346 299 Z " />
<glyph glyph-name="Zcaron" unicode="&#x17d;" horiz-adv-x="534" d="M396 909 L313 751 L222 751 L141 909 L181 931 L268 811 L356 931 L396 909 Z M41 0 L514 0 L514 69 L129 69 C142 69 157 78 160 83 L505 631 L505 685 L51 685 L51 618 L415 618 C402 618 388 610 385 605 L40 47 L41 0 Z " />
<glyph glyph-name="zcaron" unicode="&#x17e;" horiz-adv-x="466" d="M353 716 L272 558 L181 558 L102 716 L142 738 L228 619 L313 738 L353 716 Z M40 0 L420 0 L420 66 L160 66 C154 66 142 64 133 62 L133 64 C142 64 160 71 166 80 L401 432 L401 485 L46 485 L46 417 L282 417 C289 417 303 420 311 422 L312 420 C304 420 288 415 282 405 L40 47 L40 0 Z " />
<glyph glyph-name="florin" unicode="&#x192;" horiz-adv-x="447" d="M437 565 L447 633 C412 645 376 656 339 656 C177 656 163 504 148 379 L59 360 L54 316 L142 316 L79 -247 L173 -229 L234 316 L368 316 L380 381 L241 381 C250 458 247 583 355 583 C388 583 413 574 437 565 L437 565 Z " />
<glyph glyph-name="circumflex" unicode="&#x2c6;" horiz-adv-x="407" d="M337 527 L248 685 L157 685 L70 527 L110 505 L204 624 L297 505 L337 527 Z " />
<glyph glyph-name="caron" unicode="&#x2c7;" horiz-adv-x="387" d="M317 676 L228 508 L157 508 L70 676 L110 698 L194 579 L277 698 L317 676 Z " />
<glyph glyph-name="breve" unicode="&#x2d8;" horiz-adv-x="326" d="M163 568 C239 568 276 611 276 685 L225 685 C225 650 196 631 163 631 C130 631 101 650 101 685 L50 685 C50 611 87 568 163 568 L163 568 Z " />
<glyph glyph-name="dotaccent" unicode="&#x2d9;" horiz-adv-x="238" d="M94 578 C128 578 156 606 156 640 C156 674 128 702 94 702 C60 702 32 674 32 640 C32 606 60 578 94 578 L94 578 Z " />
<glyph glyph-name="ring" unicode="&#x2da;" horiz-adv-x="348" d="M174 490 C232 490 278 536 278 594 C278 651 232 698 174 698 C116 698 70 652 70 594 C70 536 116 490 174 490 L174 490 Z M174 651 C206 651 232 626 232 594 C232 562 206 536 174 536 C142 536 116 562 116 594 C116 626 142 651 174 651 L174 651 Z " />
<glyph glyph-name="ogonek" unicode="&#x2db;" horiz-adv-x="262" d="M143 -213 C172 -213 199 -203 222 -186 L200 -139 C182 -147 163 -156 142 -156 C119 -156 106 -139 106 -117 C106 -80 140 -50 167 -29 L134 3 C87 -27 40 -60 40 -122 C40 -179 90 -213 143 -213 L143 -213 Z " />
<glyph glyph-name="tilde" unicode="&#x2dc;" horiz-adv-x="401" d="M262 607 C293 607 332 632 351 655 L351 702 C330 686 293 664 267 664 C222 664 185 698 139 698 C109 698 69 672 50 650 L50 605 C71 621 107 639 134 639 C179 639 217 607 262 607 L262 607 Z " />
<glyph glyph-name="hungarumlaut" unicode="&#x2dd;" horiz-adv-x="547" d="M70 565 L225 701 L289 642 L102 531 L70 565 Z M258 561 L414 697 L477 638 L290 527 L258 561 Z " />
<glyph glyph-name="pi" unicode="&#x3c0;" horiz-adv-x="745" d="M603 -14 C631 -14 658 -5 685 0 L685 59 C663 53 640 44 617 44 C567 44 546 75 546 122 L546 415 C556 415 649 415 649 415 L649 485 L97 485 L97 415 L201 415 L201 -1 L279 -1 L279 415 L469 415 L469 126 C469 37 512 -14 603 -14 L603 -14 Z " />
<glyph glyph-name="endash" unicode="&#x2013;" horiz-adv-x="486" d="M40 218 L446 218 L446 291 L40 291 L40 218 Z " />
<glyph glyph-name="emdash" unicode="&#x2014;" horiz-adv-x="997" d="M1003 289 L-6 289 L-6 216 L1003 216 L1003 289 Z " />
<glyph glyph-name="quoteleft" unicode="&#x2018;" horiz-adv-x="260" d="M200 453 C200 504 151 503 151 560 C151 596 176 651 197 680 L156 699 C106 649 70 523 70 453 C70 417 99 388 135 388 C171 388 200 417 200 453 L200 453 Z " />
<glyph glyph-name="quoteright" unicode="&#x2019;" horiz-adv-x="260" d="M60 634 C60 583 109 584 109 527 C109 491 84 436 63 407 L104 388 C154 438 190 564 190 634 C190 670 161 699 125 699 C89 699 60 670 60 634 L60 634 Z " />
<glyph glyph-name="quotesinglbase" unicode="&#x201a;" horiz-adv-x="243" d="M105 -195 C153 -147 190 -23 190 44 C190 78 163 108 128 108 C93 108 66 78 66 44 C66 -7 110 1 110 -56 C110 -92 85 -147 64 -176 L105 -195 Z " />
<glyph glyph-name="quotedblleft" unicode="&#x201c;" horiz-adv-x="440" d="M380 453 C380 504 331 503 331 560 C331 596 356 651 377 680 L336 699 C286 649 250 523 250 453 C250 417 279 388 315 388 C351 388 380 417 380 453 L380 453 Z M200 453 C200 504 151 503 151 560 C151 596 176 651 197 680 L156 699 C106 649 70 523 70 453 C70 417 99 388 135 388 C171 388 200 417 200 453 L200 453 Z " />
<glyph glyph-name="quotedblright" unicode="&#x201d;" horiz-adv-x="440" d="M60 634 C60 583 109 584 109 527 C109 491 84 436 63 407 L104 388 C154 438 190 564 190 634 C190 670 161 699 125 699 C89 699 60 670 60 634 L60 634 Z M240 634 C240 583 289 584 289 527 C289 491 264 436 243 407 L284 388 C334 438 370 564 370 634 C370 670 341 699 305 699 C269 699 240 670 240 634 L240 634 Z " />
<glyph glyph-name="quotedblbase" unicode="&#x201e;" horiz-adv-x="433" d="M105 -195 C153 -147 190 -23 190 44 C190 78 163 108 128 108 C93 108 66 78 66 44 C66 -7 110 1 110 -56 C110 -92 85 -147 64 -176 L105 -195 Z M295 -195 C343 -147 380 -23 380 44 C380 78 353 108 318 108 C283 108 256 78 256 44 C256 -7 300 1 300 -56 C300 -92 275 -147 254 -176 L295 -195 Z " />
<glyph glyph-name="dagger" unicode="&#x2020;" horiz-adv-x="592" d="M331 412 L532 393 L532 471 L332 462 L350 685 L247 685 L266 462 L60 471 L60 393 L266 412 L248 -193 L350 -193 L331 412 Z " />
<glyph glyph-name="daggerdbl" unicode="&#x2021;" horiz-adv-x="592" d="M332 30 L532 21 L532 103 L331 84 L331 412 L532 393 L532 471 L332 462 L350 685 L247 685 L266 462 L60 471 L60 393 L266 412 L266 84 L66 103 L66 21 L266 30 L247 -193 L350 -193 L332 30 Z " />
<glyph glyph-name="bullet" unicode="&#x2022;" horiz-adv-x="360" d="M181 251 C236 251 280 297 280 352 C280 407 236 452 181 452 C126 452 80 407 80 352 C80 297 126 251 181 251 L181 251 Z " />
<glyph glyph-name="ellipsis" unicode="&#x2026;" horiz-adv-x="687" d="M129 -14 C165 -14 194 15 194 51 C194 87 165 116 129 116 C93 116 64 87 64 51 C64 15 93 -14 129 -14 L129 -14 Z M349 -14 C385 -14 414 15 414 51 C414 87 385 116 349 116 C313 116 284 87 284 51 C284 15 313 -14 349 -14 L349 -14 Z M569 -14 C605 -14 634 15 634 51 C634 87 605 116 569 116 C533 116 504 87 504 51 C504 15 533 -14 569 -14 L569 -14 Z " />
<glyph glyph-name="perthousand" unicode="&#x2030;" horiz-adv-x="1142" d="M934 -14 C1024 -14 1072 63 1072 146 C1072 234 1034 316 934 316 C839 316 795 237 795 151 C795 69 843 -14 934 -14 L934 -14 Z M595 -14 C685 -14 732 63 732 146 C732 234 695 316 595 316 C500 316 456 237 456 151 C456 69 504 -14 595 -14 L595 -14 Z M264 -1 L609 684 L538 684 L193 -1 L264 -1 Z M209 368 C299 368 347 445 347 528 C347 616 309 698 209 698 C114 698 70 619 70 533 C70 451 118 368 209 368 L209 368 Z M934 259 C985 259 986 187 986 151 C986 116 984 44 934 44 C884 44 880 115 880 151 C880 187 883 259 934 259 L934 259 Z M595 259 C646 259 647 187 647 151 C647 116 645 44 595 44 C545 44 541 115 541 151 C541 187 544 259 595 259 L595 259 Z M209 642 C260 642 261 569 261 533 C261 498 259 426 209 426 C159 426 155 497 155 533 C155 569 158 642 209 642 L209 642 Z " />
<glyph glyph-name="guilsinglleft" unicode="&#x2039;" horiz-adv-x="395" d="M276 -6 L322 41 L151 244 L321 447 L272 493 L44 244 L276 -6 Z " />
<glyph glyph-name="guilsinglright" unicode="&#x203a;" horiz-adv-x="395" d="M119 -6 L350 244 L122 493 L74 447 L244 244 L73 41 L119 -6 Z " />
<glyph glyph-name="fraction" unicode="&#x2044;" horiz-adv-x="400" d="M115 0 L362 685 L289 685 L38 0 L115 0 Z " />
<glyph glyph-name="Euro" unicode="&#x20ac;" horiz-adv-x="678" d="M470 -14 C521 -14 573 -9 623 3 L623 82 C572 65 526 59 472 59 C381 59 313 115 291 202 L576 202 L599 263 L281 263 C276 286 273 299 273 322 C273 335 275 359 277 372 L580 372 L607 434 L283 434 C314 541 386 595 497 595 C533 595 570 591 604 578 L631 643 C579 659 525 666 471 666 C331 666 220 570 193 434 L111 434 L90 372 L184 372 C182 355 180 338 180 321 C180 302 183 282 185 263 L67 263 L46 202 L196 202 C225 64 331 -14 470 -14 L470 -14 Z " />
<glyph glyph-name="trademark" unicode="&#x2122;" horiz-adv-x="846" d="M595 419 C595 428 596 440 592 448 L480 685 L430 685 L391 334 L454 334 L474 535 C475 540 475 546 475 551 L475 566 L477 566 C477 557 476 543 480 535 L571 334 L612 334 L697 525 C700 531 700 558 700 558 L702 558 C702 558 703 537 704 527 L728 334 L796 334 L749 685 L704 685 L598 448 C596 444 597 439 597 435 C597 430 597 424 597 419 L595 419 Z M242 627 L364 627 L364 685 L50 685 L50 627 L172 627 L172 334 L242 334 L242 627 Z " />
<glyph glyph-name="Omega" unicode="&#x2126;" horiz-adv-x="833" d="M615 58 C707 119 753 230 753 337 C753 527 599 665 413 665 C226 665 80 526 80 337 C80 230 125 119 217 58 L94 58 L94 0 L352 0 L352 54 C224 101 158 209 158 343 C158 492 266 596 414 596 C561 596 674 492 674 343 C674 209 609 101 481 54 L481 0 L739 0 L739 58 L615 58 Z " />
<glyph glyph-name="partialdiff" unicode="&#x2202;" horiz-adv-x="559" d="M261 -14 C461 -14 489 239 489 390 C489 535 431 648 271 648 C218 648 168 623 131 587 L183 530 C207 554 239 573 274 573 C378 573 420 509 420 411 L420 408 C407 409 394 410 381 410 C230 410 70 326 70 157 C70 43 154 -14 261 -14 L261 -14 Z M381 348 C393 348 406 349 418 348 C417 252 386 46 258 46 C192 46 155 89 155 153 C155 277 267 348 381 348 L381 348 Z " />
<glyph glyph-name="Delta" unicode="&#x2206;" horiz-adv-x="829" d="M72 1 L765 1 L418 702 L72 1 Z M409 554 L649 52 L159 52 L409 554 Z " />
<glyph glyph-name="product" unicode="&#x220f;" horiz-adv-x="671" d="M495 0 L581 0 L581 685 L90 685 L90 0 L175 0 L175 621 L495 621 L495 0 Z " />
<glyph glyph-name="summation" unicode="&#x2211;" horiz-adv-x="522" d="M170 617 L462 617 L462 685 L62 685 L62 641 L363 253 L60 -151 L60 -200 L461 -200 L461 -132 L167 -132 L460 253 L170 617 Z " />
<glyph glyph-name="minus" unicode="&#x2212;" horiz-adv-x="481" d="M70 298 L411 298 L411 371 L70 371 L70 298 Z " />
<glyph glyph-name="radical" unicode="&#x221a;" horiz-adv-x="609" d="M311 51 C311 61 310 72 307 82 L196 510 L40 476 L51 432 L153 458 L273 0 L334 0 L569 800 L523 800 L315 82 C312 72 312 61 312 51 L311 51 Z " />
<glyph glyph-name="infinity" unicode="&#x221e;" horiz-adv-x="723" d="M509 213 C599 213 663 263 663 357 C663 448 600 501 511 501 C446 501 400 473 361 422 C321 473 275 501 208 501 C119 501 60 449 60 358 C60 272 120 213 206 213 C281 213 320 252 361 309 C396 259 443 213 509 213 L509 213 Z M511 432 C558 432 600 409 600 357 C600 306 555 287 511 287 C465 287 422 322 400 361 C423 403 462 432 511 432 L511 432 Z M208 432 C256 432 296 408 319 366 C295 327 257 287 208 287 C169 287 123 315 123 358 C123 404 166 432 208 432 L208 432 Z " />
<glyph glyph-name="integral" unicode="&#x222b;" horiz-adv-x="323" d="M317 743 C333 743 339 741 354 736 L354 790 C337 792 320 794 303 794 C187 794 131 708 131 600 L131 -22 C131 -92 109 -165 26 -165 C14 -165 2 -161 -10 -158 L-10 -211 C7 -214 23 -216 40 -216 C156 -216 212 -130 212 -22 L212 600 C212 670 234 743 317 743 L317 743 Z " />
<glyph glyph-name="approxequal" unicode="&#x2248;" horiz-adv-x="596" d="M411 272 C465 272 512 301 536 350 L507 383 C483 358 450 341 415 341 C340 341 262 387 187 387 C132 387 84 357 60 307 L90 274 C114 298 147 314 181 314 C255 314 337 272 411 272 L411 272 Z M411 134 C465 134 512 163 536 212 L507 245 C483 220 450 203 415 203 C340 203 262 249 187 249 C132 249 84 219 60 169 L90 135 C114 159 147 176 181 176 C255 176 337 134 411 134 L411 134 Z " />
<glyph glyph-name="notequal" unicode="&#x2260;" horiz-adv-x="557" d="M60 131 L181 131 L107 -23 L174 -23 L248 131 L496 131 L496 210 L286 210 L331 303 L497 303 L497 382 L369 382 L436 523 L369 523 L302 382 L61 382 L61 303 L264 303 L219 210 L60 210 L60 131 Z " />
<glyph glyph-name="lessequal" unicode="&#x2264;" horiz-adv-x="555" d="M80 327 L475 116 L475 185 L166 358 L475 524 L475 592 L80 389 L80 327 Z M111 0 L458 0 L458 71 L111 71 L111 0 Z " />
<glyph glyph-name="greaterequal" unicode="&#x2265;" horiz-adv-x="555" d="M80 116 L475 327 L475 389 L80 592 L80 524 L389 358 L80 185 L80 116 Z M97 0 L444 0 L444 71 L97 71 L97 0 Z " />
<glyph glyph-name="lozenge" unicode="&#x25ca;" horiz-adv-x="601" d="M334 0 L535 377 L334 754 L271 754 L81 377 L271 0 L334 0 Z M307 665 L456 376 L307 92 L158 380 L307 665 Z " />
<glyph glyph-name="fi" unicode="&#xfb01;" horiz-adv-x="612" d="M433 0 L525 0 L525 498 L433 466 L433 0 Z M229 486 L229 570 C229 638 249 686 325 686 C356 686 386 679 416 671 C412 663 410 654 410 645 C410 610 439 581 474 581 C509 581 538 610 538 645 C538 662 531 679 519 691 C471 741 378 757 311 757 C200 757 135 680 135 572 L135 486 L40 462 L40 419 L135 419 L135 0 L229 0 L229 419 L340 419 L375 486 L229 486 Z " />
<glyph glyph-name="fl" unicode="&#xfb02;" horiz-adv-x="634" d="M568 -10 L594 38 C563 45 530 59 530 96 L530 763 L449 733 C404 747 358 757 311 757 C200 757 135 678 135 570 L135 485 L40 461 L40 418 L135 418 L135 0 L229 0 L229 418 L340 418 L375 485 L229 485 L229 570 C229 638 249 686 325 686 C359 686 401 678 439 661 L439 91 C439 30 479 -14 541 -14 C550 -14 559 -13 568 -10 L568 -10 Z " />
</font>
</svg>
